<?xml version='1.0' encoding='utf-8'?>
<svg xmlns="http://www.w3.org/2000/svg" width="1087px" height="778px" version="1.1" viewBox="-10 652 1087 778"> <g fill="#8ac4f0"> <path d="m-10.001 651.35c-0.17141 0-0.33579 0.06814-0.45699 0.18935-0.1212 0.12122-0.18929 0.28559-0.18929 0.45695l1e-3 778c0 0.3569 0.28935 0.6462 0.64628 0.6462l1087 1e-3c0.1714 0 0.3358-0.068 0.457-0.1892s0.1892-0.2856 0.1892-0.457l-1e-3 -778c0-0.35693-0.2893-0.6463-0.6462-0.6463l-1087-1e-3z"/> </g> <g> <g fill-opacity=".21961"> <path d="m876.73 1306.9-2.8194 1.9862q-20.044 6.0016-117.3 9.5996-97.926 3.5957-230.63 2.9165-126.65-0.9493-202.58-5.5582-24.33-1.4895-40.08-3.2456l-13.238-1.8069q-10.91-1.8638-11.032-3.8904 3.3118-6.2191 90.457-10.348 87.145-4.13 218.38-4.2876 131.24 0.1573 218.38 4.2862 87.144 4.1292 90.456 10.348z"/> </g> <g fill="#304e4a"> <path d="m628.2 1091.5c14.839 6e-4 26.747-12.795 25.269-27.932-1.2873-13.191-13.147-22.856-26.401-22.856l-180.55 2e-4c-2.635-4e-4 -4.7709-2.1365-4.7709-4.7709v9e-4c0-2.6359 2.1359-4.7713 4.7709-4.7713l180.22 8e-4c19.13-2e-4 35.811 14.741 36.385 33.862 0.5936 19.786-15.269 36.011-34.92 36.012l-181.68 6e-4c-2.6351-6e-4 -4.7709-2.137-4.7709-4.772v-0.0027c0-2.6344 2.1358-4.7706 4.7709-4.7706l181.68 1e-3z"/> </g> <g fill="#ebf0f3"> <path d="m653.47 1063.5c1.4783 15.136-10.43 27.932-25.269 27.932l-180.77 9e-4c7.8791-16.931 7.8793-33.859 0-50.79l179.64 7e-4c13.256 0 25.114 9.6641 26.402 22.856z"/> </g> <g fill="#e1e6e9"> <path d="m637.88 1052.3-186.35 8e-4c-0.16992-0.6723-0.39148-1.3432-0.58554-2.0132l186.93 0.0011v2.0113z"/> <path d="m637.88 1059.7-184.92 0.0022c-0.0798-0.6738-0.24862-1.3453-0.35192-2.0156l185.28 0.0012v2.0122z"/> <path d="m637.88 1067.1-184.6 7e-4c0.013-0.6726 0.013-1.3436 0-2.0135l184.6 6e-4v2.0122z"/> <path d="m637.88 1074.5-185.28-4e-4c0.10309-0.6711 0.27213-1.3427 0.35193-2.013l184.92 0.0011v2.0123z"/> <path d="m637.88 1081.9-186.93-5e-4c0.1947-0.6719 0.4158-1.3428 0.58576-2.0122l186.35 4e-4v2.0123z"/> </g> <g fill="#884636"> <path d="m469.05 1161.8c-14.839 5e-4 -26.747-12.795-25.269-27.932 1.2873-13.192 13.148-22.856 26.402-22.856l180.55 8e-4c2.6349-1e-3 4.7707-2.1369 4.7707-4.7716v6e-4c0-2.6353-2.1359-4.7715-4.7707-4.7715l-180.22 1e-3c-19.13 1e-4 -35.812 14.742-36.386 33.863-0.59362 19.786 15.269 36.011 34.92 36.011l181.68-2e-4c2.6351 0 4.7707-2.1358 4.7707-4.7712v-3e-3c0-2.6344-2.1356-4.77-4.7707-4.77l-181.68 6e-4z"/> </g> <g fill="#ebf0f3"> <path d="m443.78 1133.8c-1.4783 15.136 10.43 27.932 25.269 27.932l180.78 5e-4c-7.8791-16.93-7.8793-33.86 0-50.79l-179.64 9e-4c-13.255 1e-4 -25.114 9.6632-26.402 22.856z"/> </g> <g fill="#e1e6e9"> <path d="m459.36 1122.6 186.35-5e-4c0.16986-0.6717 0.3913-1.3428 0.58533-2.0129l-186.93 0.0011v2.0123z"/> <path d="m459.36 1130 184.92-7e-4c0.07964-0.6713 0.24859-1.3427 0.3518-2.0134l-185.28 0.0011v2.013z"/> <path d="m459.36 1137.4 184.6 9e-4c-0.013-0.6723-0.013-1.3435 0-2.0141l-184.6 0.0013v2.0119z"/> <path d="m459.36 1144.8 185.28 0.0021c-0.10321-0.6742-0.27216-1.346-0.3518-2.0156l-184.92 0.0012-3e-5 2.0123z"/> <path d="m459.36 1152.2 186.93-5e-4c-0.19475-0.6718-0.41559-1.3431-0.58545-2.0131l-186.35 0.0016v2.012z"/> </g> <g fill="#535d66"> <path d="m471.1 1231c-14.839 0.0011-26.747-12.795-25.269-27.932 1.2873-13.192 13.147-22.856 26.401-22.857l180.55 0.0025c2.6349-0.0025 4.771-2.1385 4.771-4.7732v6e-4c0-2.6355-2.136-4.7709-4.7709-4.7709l-180.22 4e-4c-19.13 1e-4 -35.812 14.742-36.385 33.863-0.59372 19.786 15.269 36.012 34.92 36.012l181.68-9e-4c2.6349 0 4.7709-2.1357 4.7709-4.7708v-3e-3c0-2.6347-2.1358-4.7701-4.7709-4.7701l-181.68 8e-4z"/> </g> <g fill="#ebf0f3"> <path d="m445.84 1203c-1.4784 15.137 10.43 27.933 25.269 27.932l180.77 1e-4c-7.879-16.93-7.879-33.859 1.3e-4 -50.789l-179.64 0.0012c-13.255 2e-4 -25.114 9.6639-26.402 22.856z"/> </g> <g fill="#e1e6e9"> <path d="m461.42 1191.7 186.35-3e-4c0.1698-0.672 0.3913-1.3421 0.5854-2.0127l-186.93 0.0014v2.0116z"/> <path d="m461.42 1199.2 184.92 0.0017c0.07965-0.6736 0.24855-1.3452 0.35185-2.015l-185.28 6e-4v2.0127z"/> <path d="m461.42 1206.6 184.6 0.0022c-0.01286-0.6741-0.01286-1.3451 0-2.0149l-184.6 6e-4v2.0121z"/> <path d="m461.42 1214 185.28 0.0011c-0.1033-0.6732-0.2722-1.3446-0.35185-2.0142l-184.92 0.0011v2.012z"/> <path d="m461.42 1221.4 186.93-1e-4c-0.19471-0.672-0.41585-1.3432-0.58565-2.0127l-186.35 0.0014v2.0114z"/> </g> <g fill="#81c665"> <path d="m631.98 1300.9c14.839 1e-4 26.747-12.796 25.269-27.933-1.2874-13.191-13.147-22.856-26.402-22.856l-180.55 9e-4c-2.6349-5e-4 -4.7708-2.1361-4.7708-4.7705v3e-4c0-2.6351 2.136-4.771 4.7708-4.771l180.22 6e-4c19.13-1e-4 35.811 14.742 36.385 33.862 0.59365 19.785-15.269 36.012-34.92 36.012l-181.68 0.0022c-2.6349-0.0018-4.7707-2.1378-4.7707-4.7725v-0.0035c0-2.6342 2.1359-4.77 4.7708-4.77h181.68z"/> </g> <g fill="#ebf0f3"> <path d="m657.25 1273c1.4783 15.136-10.43 27.933-25.269 27.932l-180.77 0.0011c7.8792-16.93 7.8794-33.859 0-50.79l179.64 4e-4c13.255 0 25.114 9.6642 26.402 22.856z"/> </g> <g fill="#e1e6e9"> <path d="m641.66 1261.7-186.35 9e-4c-0.16986-0.6723-0.39158-1.3428-0.58533-2.0132l186.93 4e-4v2.0119z"/> <path d="m641.66 1269.1-184.92 0.0021c-0.07959-0.6736-0.24866-1.3449-0.35178-2.0153l185.28 7e-4v2.0125z"/> <path d="m641.66 1276.5-184.6 4e-4c0.01324-0.6717 0.01324-1.3424 0-2.0128l184.6 4e-4v2.012z"/> <path d="m641.66 1283.9-185.28 3e-4c0.10312-0.6714 0.27217-1.3433 0.35177-2.0131l184.92 3e-4v2.0125z"/> <path d="m641.66 1291.4-186.93 0.0027c0.19485-0.6745 0.41589-1.345 0.58575-2.0153l186.35 5e-4v2.0121z"/> </g> <g fill="#7ebfdf"> <path d="m644.49 954.26h0.23823c0.05317 0.15882 0.10557 0.31755 0.15877 0.47638 0.3614-0.07513 0.5462 0.07044 0.5559 0.43667 0.2779 0.0724 0.51604 0.2048 0.7146 0.3971 0.9346 0.1826 1.8613 0.156 2.7791-0.07943 0.1852-0.13237 0.37085-0.26477 0.55585-0.39707 0.15235-0.2931 0.31128-0.57113 0.4765-0.8337h0.23825c-0.0477 0.2375-0.1534 0.4492-0.31765 0.63525-0.31545 0.34192-0.65905 0.6463-1.0324 0.91315-1.0315 0.14575-2.0637 0.14575-3.0967 5e-5 -0.44476-0.28355-0.8949-0.57465-1.3499-0.87345 0.0745-0.216 0.1017-0.441 0.0794-0.67495z"/> </g> <g fill="#b2cae6"> <path d="m644.73 954.26c1.7469 0 3.4938 5e-5 5.2407-5e-5 -0.16522 0.26257-0.32415 0.5406-0.4765 0.8337-0.185 0.1323-0.37065 0.2647-0.55585 0.39707-0.91784 0.23543-1.8445 0.26203-2.7791 0.07943-0.19856-0.1923-0.4367-0.3247-0.7146-0.3971-0.0097-0.36623-0.1945-0.5118-0.5559-0.43667-0.0532-0.15883-0.1056-0.31756-0.15877-0.47638z"/> </g> <g fill="#6bbdd8"> <path d="m595.82 954.26h0.1588c-7.6e-4 2.9792-0.0802 5.9437-0.2382 8.8933v-3.8115h-0.2382c-0.0135-0.50345 0-1.0064 0.0398-1.5086 0.01976 0.0892 0.0595 0.16854 0.11894 0.2382 0.06356-0.1253 0.10336-0.2576 0.11906-0.39706 0.0398-1.1377 0.05337-2.276 0.0398-3.4143z"/> </g> <g fill="#aad2d3"> <path d="m595.74 965.69c-0.0802 5.9847-0.15966 11.967-0.2382 17.946 0.04754 0.35437 0.07366 0.725 0.07934 1.1118h-0.2381v-2.541c0.09286-5.5188 0.22466-11.024 0.39696-16.516z"/> </g> <g fill="#111214"> <path d="m589.76 840.34c-0.31844-0.1351-0.6497-0.2305-0.9952-0.2845v2.7013c-0.1165 0.49474-0.1878 1.0149-0.21307 1.5638-0.11813 3.436-0.09383 6.8478 0.07107 10.236 0.0056 1.3749 0.2432 2.7011 0.7108 3.9805-0.01563 0.08824-0.0627 0.15944-0.1421 0.21334-7.249 1.1443-14.499 2.2589-21.751 3.3408-0.4504-0.7864-0.63956-1.6392-0.56846-2.5591 0.33256-5.0638 0.52161-10.135 0.56861-15.211 0.13645-1.4927 0.23169-3.0082 0.2843-4.5493-0.04695-1.1515 0.0484-2.2887 0.28445-3.4119 0.317-1.7982 0.6255-3.5994 0.924-5.402 1.2326-1.7061 2.3229-3.5073 3.2698-5.4023 1.4215-3.507 2.8431-7.0128 4.2647-10.52 1.912-5.6115 1.9831-11.251 0.2132-16.917-8.1954 1.335-15.635-0.4422-22.319-5.331-3.6878-3.3536-6.7912-7.1696-9.3116-11.444-2.7496 7.587-4.835 15.359-6.2551 23.315-0.94114 4.5562-0.6087 9.0099 0.995 13.363 1.0534 2.1551 2.1438 4.2874 3.2698 6.3972 0.54444 1.3734 1.0421 2.748 1.4926 4.1228 0.29574 1.4542 0.4848 2.9243 0.5687 4.4069-1.9902 0.07535-3.9805 0.1464-5.9707 0.2134-0.4265 0.16627-0.8531 0.3325-1.2794 0.49744-0.65827 2.2021-1.1331 4.4282-1.4216 6.6817-0.10956 0.10805-0.18067 0.25025-0.2134 0.42645-0.3184 2.3116-0.41356 4.6331-0.28434 6.9658 0.0285 0.2675 0.09961 0.50496 0.21344 0.7111 0.2728 3.2156 0.8188 6.3915 1.6347 9.5249 0.02985 0.9112 0.101 1.8124 0.21326 2.7008-7.5658-1.4542-15.1-2.9698-22.604-4.5492 0.6853-1.1388 1.3492-2.3 1.9903-3.483 0.3411-0.9184 0.62546-1.8425 0.8529-2.7724 0.24595-0.62268 0.38804-1.2864 0.4265-1.9901 0.1279-0.41086 0.17626-0.8375 0.1421-1.2794 0.1165-0.35105 0.1877-0.73075 0.2133-1.1372 0.07105-1.4202 0.09503-2.8421 0.071-4.265 0.04546-0.69087-0.0015-1.3548-0.14216-1.9904-0.34834-8.1487-0.6568-16.299-0.92408-24.452-0.17906-5.9694-0.22583-11.94-0.14202-17.912 0.0426-7.2701 1.251-14.331 3.6251-21.182 3.4859-8.415 8.841-15.405 16.064-20.969 10.103-7.0436 20.101-6.9015 29.996 0.4264 6.2222 5.04 10.747 11.319 13.576 18.837 2.2945 6.7371 3.7164 13.656 4.265 20.756 0.38519 6.3959 0.76501 12.793 1.1374 19.192 0.563 8.8767 1.6292 17.69 3.1986 26.442z"/> </g> <g fill="#fbca8f"> <path d="m568.01 836.36c-1.7145 0.4449-3.4205 0.9199-5.118 1.4217-0.23035-0.04125-0.37255-0.18346-0.42645-0.42657 0.96106-1.2382 2.0514-2.3528 3.2697-3.3406-0.9709 0.4421-1.9176 0.9636-2.8432 1.5637-3.001 1.2154-5.8912 0.97814-8.6718-0.711-3.4091-2.1323-6.6078-4.525-9.5962-7.1792-0.071 0.28014-0.0936 0.56439-0.071 0.85314-0.45054-1.3748-0.94816-2.7494-1.4926-4.1228-1.126-2.1097-2.2164-4.2421-3.2698-6.3972-1.6037-4.3534-1.9361-8.807-0.995-13.363 1.4201-7.9554 3.5055-15.728 6.2551-23.315 2.5204 4.2747 5.6238 8.0906 9.3116 11.444 6.6844 4.8888 14.124 6.666 22.319 5.331 1.7699 5.6665 1.6988 11.306-0.2132 16.917-1.4217 3.507-2.8432 7.0128-4.2647 10.52-0.9469 1.895-2.0371 3.6962-3.2698 5.4023-0.2985 1.8026-0.607 3.6038-0.924 5.402z"/> </g> <g fill="#fd5216"> <path d="m545.12 832.95c0.2118 1.0152 0.37816 2.0572 0.49755 3.1276 0.77899 1.0634 1.4671 2.1766 2.0612 3.3408-0.199 2.013-0.3881 4.0274-0.5686 6.042 0.0229 0.43366-0.0725 0.83576-0.28434 1.2082 0.51331 2.6599 0.96404 5.337 1.3507 8.0323 0.2145 2.6115 0.4748 5.2188 0.7817 7.8188 0.56727 0.19644 0.2828 0.19626-0.8529 0-3.3749-0.57-6.7385-1.1854-10.093-1.848-0.11226-0.88845-0.18341-1.7896-0.21326-2.7008-0.8159-3.1334-1.3619-6.3093-1.6347-9.5249-0.0583-0.87594-0.10675-1.7514-0.1423-2.63 0.1365-1.8256 0.2788-3.6495 0.4266-5.4734 0.28845-2.2535 0.7633-4.4796 1.4216-6.6817 0.42633-0.16494 0.85293-0.33117 1.2794-0.49744 1.9902-0.067 3.9805-0.13805 5.9707-0.2134z"/> </g> <g fill="#edbb7e"> <path d="m562.89 837.78c-0.24731 0.3753-0.34255 0.8017-0.2843 1.2794-0.17205-0.4477-0.31421-0.9212-0.42655-1.4215-1.662 2.1876-3.1076 4.5093-4.336 6.9659-2.3271 5.1364-4.4595 10.348-6.3972 15.638-0.071 0.80446-0.0952 1.6092-0.071 2.4166-0.2745-2.7734-0.53445-5.5682-0.78194-8.3874-1.0903-2.8915-2.1809-5.7832-3.2699-8.672-0.05393-0.0797-0.125-0.1265-0.2132-0.1421 0.1805-2.0146 0.3696-4.029 0.5686-6.042-0.59415-1.1642-1.2823-2.2774-2.0612-3.3408-0.11939-1.0704-0.28575-2.1124-0.49755-3.1276-0.0839-1.4826-0.27296-2.9527-0.5687-4.4069-0.0226-0.28875 0-0.573 0.071-0.85314 2.9884 2.6542 6.1871 5.0469 9.5962 7.1792 2.7806 1.6891 5.6707 1.9264 8.6718 0.711 0.9256-0.60006 1.8724-1.1216 2.8432-1.5637-1.2183 0.98785-2.3086 2.1024-3.2697 3.3406 0.0539 0.24311 0.1961 0.38532 0.42645 0.42657z"/> </g> <g fill="#fd5317"> <path d="m568.01 836.36c-0.23605 1.1232-0.3314 2.2604-0.28445 3.4119-0.25159 1.4842-0.3468 3.0011-0.2843 4.5493-0.20325 4.7894-0.43921 9.5985-0.71082 14.429 0.00141 0.28864 0.04827 0.55011 0.14221 0.78184-0.0711 0.9199 0.11806 1.7727 0.56846 2.5591-3.9165 0.6267-7.8487 1.2906-11.799 1.9902-1.278-0.25019-2.5575-0.48754-3.8384-0.71094-0.02133-0.14923 0.0028-0.2915 0.0711-0.4264 2.6129-3.0025 5.125-6.0818 7.5345-9.2405 1.4104-2.9429 2.714-5.9281 3.9096-8.9562-0.25297-1.8951-0.48917-3.79-0.71082-5.6865-0.05825-0.4777 0.03699-0.9041 0.2843-1.2794 1.6974-0.5018 3.4034-0.9768 5.118-1.4217z"/> </g> <g fill="#fccb90"> <path d="m562.61 839.06c0.22165 1.8964 0.45785 3.7914 0.71082 5.6865-1.1956 3.0281-2.4992 6.0133-3.9096 8.9562-2.4095 3.1587-4.9216 6.238-7.5345 9.2405-0.0683 0.1349-0.09243 0.27717-0.0711 0.4264-0.34824-0.081-0.681-0.1746-0.9951-0.2842 0.18904 0 0.37965-1e-4 0.5687-1e-4v-0.4265c-0.0242-0.80745 0-1.6121 0.071-2.4166 1.9377-5.2898 4.0701-10.501 6.3972-15.638 1.2284-2.4566 2.674-4.7783 4.336-6.9659 0.11234 0.50034 0.2545 0.97384 0.42655 1.4215z"/> </g> <g fill="#fe5216"> <path d="m589.76 840.34c3.1718 1.7044 6.3944 3.2926 9.667 4.7625 2.2491 1.0918 4.4752 2.2064 6.6817 3.3409 0.21745 0.2486 0.5016 0.391 0.8528 0.4264 2.569 1.2966 5.1279 2.576 7.6767 3.8384-0.0355 0.79325 0.05983 1.5525 0.2844 2.2748v2.1324 1.5639c0.05125 2.2546 0.1934 4.4822 0.42643 6.6813 0.13237 0.9866 0.17917 1.9818 0.14234 2.9854 0.07519 2.134 0.1933 4.2665 0.35553 6.3974 0.0325 0.17636 0.1036 0.3183 0.2131 0.4265v3.2698c0.06674 3.6122 0.2572 7.2133 0.5685 10.804-0.8843 0.2575-1.7857 0.44657-2.701 0.5689v-0.85317c-2.6087 0.30011-5.2145 0.63281-7.819 0.99512-0.33124 0-0.6639 0-0.99506 5e-5 0.21319-1.548 0.30856-3.112 0.28426-4.6915 0.01286-0.85573 0.06114-1.7086 0.14225-2.5587 0.1023-0.0596 0.17335-0.1536 0.21325-0.2845 0.19605-2.0856 0.36244-4.1709 0.49745-6.255 0.06405-0.95095 0.15785-1.8992 0.28435-2.8433 0.1123-0.1578 0.18336-0.34685 0.21327-0.5685 0.07103-1.1389 0.14213-2.2762 0.21307-3.4121v-0.99516c0.10242-0.0596 0.17356-0.1534 0.2135-0.28413 0.07092-0.47207 0.09516-0.94527 0.07092-1.4218-0.04556-0.6439 0.00287-1.261 0.14209-1.8478 0.25875-1.2467 0.40105-2.5264 0.42655-3.8384v-1.1373c0.15945-0.539 0.25314-1.1075 0.2844-1.7059-0.1023-0.8034-0.14924-1.6079-0.1421-2.4169-0.22754-0.03826-0.41644 0.01004-0.56885 0.14214-6.0148 0.9569-12.032 1.8569-18.054 2.7011-0.4676-1.2794-0.7052-2.6056-0.7108-3.9805-0.0199-3.9335 0.02836-7.8672 0.142-11.799v-2.7013c0.3455 0.054 0.67676 0.1494 0.9952 0.2845z"/> </g> <g fill="#fd5217"> <path d="m518.68 841.33c0.18896 0.5845 0.2827 1.2241 0.28424 1.9193-0.03559 1.1147-0.08244 2.2277-0.14214 3.341 0.03416 0.44195-0.0142 0.86859-0.1421 1.2794-0.246 0.6226-0.3881 1.2866-0.4265 1.9901-0.22744 0.92986-0.5118 1.854-0.8529 2.7724-0.6411 1.183-1.305 2.3442-1.9903 3.483-2.7053-0.44785-5.4065-0.9212-8.1033-1.4218-0.49042-0.1692-1.0108-0.26294-1.5638-0.2841-0.35956 3.6579-0.73777 7.3055-1.1372 10.946 0 0.56864 0 1.1372 2e-5 1.7059-0.29442 2.2476-0.53177 4.5223-0.71088 6.8239-0.27864 3.038-0.60986 6.0703-0.99514 9.0984-0.42926 0.02285-0.85578-1.5e-4 -1.2794-0.07111-2.9314-0.59164-5.8684-1.1357-8.814-1.635 0.04832 0.2816-0.0455 0.4722-0.28435 0.5688-0.58575-0.1008-1.1543-0.28996-1.7059-0.5689-0.04682-0.189-0.09522-0.3795-0.14218-0.5685 0.20046-0.49186 0.29576-1.0137 0.28433-1.5639 0.2431-0.16193 0.33829-0.39796 0.2843-0.71056v-0.4266c0.36113-0.5473 0.5033-1.1642 0.42657-1.8481 0.23166-0.91693 0.39664-1.8637 0.49746-2.8432 0.054-0.07947 0.1251-0.12646 0.2133-0.14209 0.08813-0.33124 0.20755-0.66374 0.35535-0.99504 0.07115-0.3768 0.09375-0.7551 0.0711-1.1374 0.07535-0.8205 0.2175-1.6263 0.42645-2.4168 0.1422 0.0128 0.2602-0.0357 0.35547-0.1422 0.02555-0.48043 0.09659-0.95535 0.21317-1.4217 0.2019 0.74363 0.36826 0.74363 0.49756 0 0.04696 0.18925 0.0953 0.37956 0.14212 0.56865 0.21618-0.29999 0.26315-0.63251 0.14221-0.99518-0.09518 0.18927-0.18903 0.18927-0.28436 0-0.18619-0.20037-0.30417-0.43777-0.35537-0.71063 0.14223-0.56874 0.28432-1.1372 0.4265-1.7059 0.2089 0.1251 0.3269 0.3141 0.35535 0.5687 0.0242-0.0954 0.047-0.18906 0.07111-0.28446-0.33832-0.55157-0.36249-1.1201-0.07111-1.7061 0.02701 0.2959 0.09811 0.58017 0.21329 0.85324 0.15219-0.55438 0.10516-1.1004-0.14212-1.6349 0.22744-0.8118 0.36963-1.6405 0.42645-2.4879 0.12378-0.35544 0.21896-0.73484 0.2843-1.1371 0.45213-2.8561 1.0435-5.6992 1.777-8.5299 0.84589-0.55294 1.7699-0.93094 2.7722-1.1374 0.58143-0.15635 1.15-0.34675 1.7059-0.5686 0.2203 0.17495 0.45779 0.24609 0.71081 0.21332-0.09528-0.09527-0.18914-0.18903-0.28436-0.28437 0.27435-0.12774 0.51184-0.29406 0.71082-0.49743 0.13226-0.11524 0.27432-0.23467 0.42646-0.35547 1.4828-0.4462 2.9043-1.0151 4.2649-1.706 3.7232-1.3646 7.4193-2.7636 11.089-4.1939z"/> </g> <g fill="#40120d"> <path d="m567.72 839.77c-0.05261 1.541-0.14785 3.0565-0.2843 4.5493-0.0625-1.5482 0.03271-3.0651 0.2843-4.5493z"/> </g> <g fill="#bd4f2c"> <path d="m518.68 841.33c0.1009-0.1279 0.24304-0.1761 0.4264-0.14203 0.02403 1.423 5e-5 2.8448-0.071 4.265-0.0256 0.4065-0.0968 0.7862-0.2133 1.1372 0.0597-1.1132 0.10655-2.2262 0.14214-3.341-0.00154-0.69524-0.09528-1.3348-0.28424-1.9193z"/> </g> <g fill="#9d3d23"> <path d="m536.45 840.34c-0.1478 1.8238-0.2901 3.6477-0.4266 5.4734 0.03555 0.8786 0.084 1.7541 0.1423 2.63-0.11383-0.20614-0.18494-0.4436-0.21344-0.7111-0.12922-2.3327-0.03406-4.6542 0.28434-6.9658 0.03273-0.1762 0.10384-0.3184 0.2134-0.42645z"/> </g> <g fill="#de633d"> <path d="m502.9 847.59c-0.19898 0.20337-0.43647 0.36969-0.71082 0.49743 0.09522 0.09534 0.18908 0.1891 0.28436 0.28437-0.25302 0.03277-0.49051-0.03837-0.71081-0.21332-0.55591 0.22185-1.1245 0.41225-1.7059 0.5686 0.87707-0.53155 1.824-0.91119 2.8432-1.1371z"/> </g> <g fill="#c85632"> <path d="m518.68 847.87c-0.03846 0.7037-0.18055 1.3675-0.4265 1.9901 0.0384-0.70354 0.1805-1.3675 0.4265-1.9901z"/> </g> <g fill="#af8277"> <path d="m606.11 848.44c0.35105 0.0355 0.63523 0.1776 0.8528 0.4264-0.3512-0.0354-0.63535-0.1778-0.8528-0.4264z"/> </g> <g fill="#ce552e"> <path d="m588.76 842.75c-0.11364 3.9322-0.1619 7.8659-0.142 11.799-0.1649-3.3878-0.1892-6.7996-0.07107-10.236 0.02527-0.5489 0.09657-1.0691 0.21307-1.5638z"/> </g> <g fill="#ee4d17"> <path d="m547.11 845.46c0.0882 0.0156 0.15927 0.0624 0.2132 0.1421 1.089 2.8888 2.1796 5.7805 3.2699 8.672 0.24749 2.8192 0.50744 5.614 0.78194 8.3874v0.4265c-0.18905 0-0.37966 1e-4 -0.5687 1e-4 -0.94115-0.0839-1.841-0.2732-2.7011-0.5688 1.1357 0.19626 1.4202 0.19644 0.8529 0-0.3069-2.6-0.5672-5.2073-0.7817-7.8188-0.3867-2.6953-0.83743-5.3724-1.3507-8.0323 0.21184-0.37244 0.30724-0.77454 0.28434-1.2082z"/> </g> <g fill="#451610"> <path d="m567.44 844.32c-0.047 5.0765-0.23605 10.147-0.56861 15.211-0.09394-0.23173-0.1408-0.4932-0.14221-0.78184 0.27161-4.8308 0.50757-9.6399 0.71082-14.429z"/> </g> <g fill="#111214"> <path d="m607.81 857.54c0.1013 0.73355 0.1013 1.4914 0 2.2748v1.1373c-0.2857 1.2424-0.4279 2.5218-0.42655 3.8384-0.13922 0.58676-0.18765 1.2039-0.14209 1.8478-0.24872 0.5232-0.34406 1.0919-0.28442 1.7059v0.99516c-0.24298 1.2952-0.38519 2.623-0.42634 3.9806-0.1265 0.9441-0.2203 1.8924-0.28435 2.8433-0.35529 2.1452-0.59125 4.3258-0.7107 6.5395-0.08111 0.85006-0.12939 1.703-0.14225 2.5587-0.297 1.5783-0.48617 3.1903-0.5686 4.8338-0.0811 0.5986-0.1763 1.1899-0.2843 1.7771-4.6446 0.56834-9.2874 1.1372-13.932 1.7056-0.17624 0.0329-0.31833 0.10385-0.4263 0.21345-0.4734-1e-4 -0.9483-1e-4 -1.4216-1e-4 -1.4216-2.3472-3.2697-4.3131-5.5444-5.8996-2.9457-2.1368-6.1683-3.7474-9.667-4.8336-5.513-1.5424-10.229-0.23885-14.145 3.9094-1.5936 2.1082-2.1623 4.478-1.7058 7.1082 0.1861 1.1912 0.39934 2.3755 0.6395 3.5538-2.4067 0.3099-4.8234 0.54596-7.2502 0.711-1.6519-0.34686-3.3108-0.6783-4.9756-0.9951 1.3208-1.5369 2.3868-3.2425 3.1986-5.1177 0.5857-2.0558 0.20595-3.9039-1.1372-5.5442-4.6131-4.5721-10.182-6.6804-16.704-6.3264-2.0186 0.27576-3.8667 0.98645-5.5442 2.1323-3.264 2.4084-6.0121 5.2984-8.2453 8.6719-0.4678-0.0412-0.9412-0.1122-1.4216-0.2132-0.3398-0.0725-0.67266-0.16784-0.9953-0.28436-4.1226-0.8529-8.2454-1.706-12.368-2.5589-0.02552-0.5302 0.0226-1.0518 0.1422-1.5637 0.51173-5.3041 0.98524-10.611 1.4216-15.922v-0.14195c0.38517-2.8604 0.6695-5.7506 0.85294-8.672 0.17926-0.9809 0.27308-1.976 0.28431-2.9856 0.14801-0.8742 0.24315-1.7739 0.28435-2.7008 16.594 3.2853 33.205 6.5081 49.828 9.6672 17.379-2.6843 34.747-5.4334 52.102-8.2456z"/> </g> <g fill="#f5d4c9"> <path d="m507.3 854.7c-0.43788 0.0341-0.86432-0.01276-1.2794-0.14215-0.34253 1.3962-0.48468 2.8177-0.42651 4.2648-0.01123 1.0095-0.10505 2.0047-0.28431 2.9856-0.22326 0.81734-0.34112 1.6705-0.35544 2.5588-0.0228 0.38244-0.14077 0.71386-0.3553 0.9952 0.39943-3.6408 0.77764-7.2884 1.1372-10.946 0.55298 0.02116 1.0734 0.1149 1.5638 0.2841z"/> </g> <g fill="#b34d2f"> <path d="m607.39 855.83c0.15241-0.1321 0.34131-0.1804 0.56885-0.14214-0.00714 0.80904 0.0398 1.6135 0.1421 2.4169-0.03126 0.59844-0.12495 1.1669-0.2844 1.7059 0.1013-0.78336 0.1013-1.5412 0-2.2748v-1.706h-0.42655z"/> </g> <g fill="#ca6b51"> <path d="m495.51 858.39c-0.06534 0.4023-0.16052 0.7817-0.2843 1.1371-0.07669-0.45484 0.01849-0.83294 0.2843-1.1371z"/> </g> <g fill="#f1f1f2"> <path d="m507.3 854.7c2.6968 0.50055 5.398 0.9739 8.1033 1.4218 7.5032 1.5794 15.038 3.095 22.604 4.5492 3.355 0.6626 6.7185 1.278 10.093 1.848 0.86005 0.2956 1.76 0.4849 2.7011 0.5688 0.3141 0.1096 0.64686 0.2032 0.9951 0.2842 1.2808 0.2234 2.5603 0.46075 3.8384 0.71094 3.9507-0.69959 7.8828-1.3635 11.799-1.9902 7.2517-1.0819 14.502-2.1965 21.751-3.3408 0.0794-0.0539 0.12647-0.1251 0.1421-0.21334 6.022-0.84416 12.04-1.7442 18.054-2.7011h0.42655v1.706c-17.355 2.8122-34.723 5.5612-52.102 8.2456-16.623-3.1591-33.233-6.3819-49.828-9.6672-0.0412 0.9269-0.13634 1.8266-0.28435 2.7008-0.05817-1.4471 0.08398-2.8685 0.42651-4.2648 0.4151 0.12939 0.84154 0.17625 1.2794 0.14215z"/> </g> <g fill="#bd4d2d"> <path d="m607.81 860.95c-0.0255 1.312-0.1678 2.5917-0.42655 3.8384-0.00135-1.3166 0.14085-2.596 0.42655-3.8384z"/> </g> <g fill="#ef5a28"> <path d="m495.22 859.53c-0.05682 0.84736-0.19901 1.6761-0.42645 2.4879 0.24728 0.53454 0.29431 1.0806 0.14212 1.6349-0.11518-0.27307-0.18628-0.55734-0.21329-0.85324-0.29138 0.586-0.26721 1.1546 0.07111 1.7061-0.02411 0.0954-0.04691 0.18906-0.07111 0.28446-0.02845-0.2546-0.14645-0.4436-0.35535-0.5687-0.14218 0.5687-0.28427 1.1372-0.4265 1.7059 0.0512 0.27286 0.16918 0.51026 0.35537 0.71063 0.09533 0.18927 0.18918 0.18927 0.28436 0 0.12094 0.36267 0.07397 0.69519-0.14221 0.99518-0.04682-0.18909-0.09516-0.3794-0.14212-0.56865-0.1293 0.74363-0.29566 0.74363-0.49756 0-0.11658 0.46635-0.18762 0.94127-0.21317 1.4217-0.09527 0.1065-0.21327 0.155-0.35547 0.1422 0.5431-3.068 1.2055-6.1002 1.9903-9.0985z"/> </g> <g fill="#e6ebee"> <path d="m505.31 861.8c-0.18344 2.9214-0.46777 5.8115-0.85294 8.672 0-1.1402 0.04694-2.2776 0.14222-3.412-2e-5 -0.5687-2e-5 -1.1373-2e-5 -1.7059 0.21453-0.28134 0.3325-0.61276 0.3553-0.9952 0.01432-0.8883 0.13218-1.7415 0.35544-2.5588z"/> </g> <g fill="#b64526"> <path d="m607.24 866.64c0.02424 0.4765 0 0.9497-0.07092 1.4218-0.03994 0.13073-0.11108 0.22453-0.2135 0.28413-0.05964-0.61397 0.0357-1.1827 0.28442-1.7059z"/> </g> <g fill="#fad5c8"> <path d="m504.6 867.06c-0.09528 1.1344-0.14222 2.2718-0.14222 3.412v0.14195c-0.17626 1.095-0.3667 2.1839-0.56866 3.2699 0.17911-2.3016 0.41646-4.5763 0.71088-6.8239z"/> </g> <g fill="#ca5432"> <path d="m606.96 869.34c-0.07094 1.1359-0.14204 2.2732-0.21307 3.4121-0.02991 0.22165-0.10097 0.4107-0.21327 0.5685 0.04115-1.3576 0.18336-2.6854 0.42634-3.9806z"/> </g> <g fill="#d7633f"> <path d="m492.8 871.04c0.02265 0.3823 5e-5 0.7606-0.0711 1.1374-0.1478 0.3313-0.26722 0.6638-0.35535 0.99504 0.0341-0.74921 0.17627-1.46 0.42645-2.1324z"/> </g> <g fill="#ca6c53"> <path d="m491.67 876.16c0.07673 0.68387-0.06544 1.3008-0.42657 1.8481 0.11948-0.63835 0.2616-1.2536 0.42657-1.8481z"/> </g> <g fill="#b84a25"> <path d="m606.25 876.16c-0.13501 2.0841-0.3014 4.1694-0.49745 6.255-0.0399 0.1309-0.11095 0.2249-0.21325 0.2845 0.11945-2.2137 0.35541-4.3943 0.7107-6.5395z"/> </g> <g fill="#b77e70"> <path d="m491.24 878.44c0.05399 0.3126-0.0412 0.54863-0.2843 0.71056-0.05977-0.32379 0.03415-0.56146 0.2843-0.71056z"/> </g> <g fill="#fccb91"> <path d="m546.11 897.34c-1.126 1.315-2.31 2.5945-3.554 3.8384-2.259 1.8167-4.7241 3.3096-7.3923 4.478-2.1154 0.8444-4.2478 1.649-6.3974 2.4167-1.113 0.73496-2.037 1.659-2.7721 2.7722-0.62125 1.0122-1.1899 2.0544-1.7058 3.1276-1.7002 3.9196-3.4305 7.8047-5.189 11.657-0.16638 0.14356-0.2616 0.33423-0.28435 0.5685h-0.4266c-0.00695 0.4367-0.0781 0.86315-0.21306 1.2797-0.6142 0.94526-1.2311 1.8935-1.8481 2.8431-1.4928 3.1033-3.6963 5.5914-6.6106 7.4635-0.53882 0.1238-1.0592 0.2899-1.5638 0.49737-1.8297 0.44079-3.6309 0.34553-5.4021-0.28437-0.31845-0.26574-0.69668-0.4308-1.1373-0.4976-0.40091-0.3652-0.82726-0.6976-1.2796-0.9948-1.7712-1.868-3.0733-4.0231-3.9092-6.468-0.26446-1.0636-0.57156-2.107-0.92419-3.1278-0.24301-1.7758-0.59848-3.5301-1.0662-5.26-0.21317-1.5325-0.37952-3.0482-0.49752-4.549v-1.4217c-0.17912-3.0764-0.297-6.1558-0.35533-9.2408-0.0072-0.31855-0.12512-0.55575-0.35547-0.71082v-2.2745c-0.08532-2.0372-0.13357-4.0743-0.14224-6.113 0.05404-5.0965-0.04111-10.167-0.28416-15.211-0.0484-0.11936-0.14357-0.16646-0.28435-0.14216v-0.1421c0.23885-0.0966 0.33267-0.2872 0.28435-0.5688 2.9455 0.4993 5.8826 1.0434 8.814 1.635 0.42367 0.07096 0.85019 0.09396 1.2794 0.07111 0.01135 0.85575-0.03687 1.7086-0.14215 2.559-0.02558 0.38386 0.06823 0.7165 0.28435 0.9951-0.1196 0.51186-0.16772 1.0335-0.1422 1.5637 4.1226 0.8529 8.2454 1.706 12.368 2.5589-0.1465 0.95246-0.2885 1.9007-0.4265 2.8432 0.0924 0.08406 0.18774 0.17902 0.2843 0.2843 0.46203-0.92124 0.8403-1.8694 1.1375-2.8431 0.4804 0.101 0.9538 0.172 1.4216 0.2132 2.2332-3.3735 4.9813-6.2635 8.2453-8.6719 1.6774-1.1458 3.5256-1.8565 5.5442-2.1323 6.5223-0.354 12.091 1.7543 16.704 6.3264 1.3432 1.6403 1.723 3.4884 1.1372 5.5442-0.8118 1.8752-1.8779 3.5808-3.1986 5.1177z"/> </g> <g fill="#efe5e4"> <path d="m504.46 870.62c-0.43636 5.3114-0.90987 10.618-1.4216 15.922-0.21612-0.2786-0.30993-0.61124-0.28435-0.9951 0.10528-0.8503 0.1535-1.7032 0.14215-2.559 0.38528-3.028 0.7165-6.0603 0.99514-9.0984 0.20196-1.086 0.3924-2.1749 0.56866-3.2699z"/> </g> <g fill="#fccb91"> <path d="m588.76 893.79c0.52023 1.5139 1.0406 3.0308 1.5635 4.5492 0.09686-0.05126 0.19202-0.09956 0.28436-0.14221-0.23156 0.67655-0.11346 1.2924 0.35554 1.8482 0.34116 1.5552 0.81606 3.0706 1.4217 4.549 0.0952-0.28427 0.0952-0.56847 0-0.85291-0.49906-2.1438-0.99655-4.2761-1.4926-6.3972-0.2148-1.1885-0.45073-2.374-0.7108-3.554 0.10797-0.1096 0.25006-0.18055 0.4263-0.21345 4.6446-0.56835 9.2874-1.1372 13.932-1.7056 0.108-0.58724 0.2032-1.1785 0.2843-1.7771 0.4564 0.044 0.88285-0.00295 1.2794-0.14235 2.6045-0.36231 5.2103-0.69501 7.819-0.99512v0.85317c-0.13372 1.177-0.18076 2.3612-0.14236 3.5541-0.10934 0.10791-0.1804 0.25-0.21304 0.42644-0.30561 2.5987-0.47193 5.2044-0.49762 7.8187v0.71085c-0.18488 1.406-0.35114 2.8276-0.49764 4.2647-0.0597 1.7074-0.1307 3.4133-0.21306 5.1178-0.10669 1.0394-0.15374 2.0813-0.14234 3.1277-0.45763 3.2384-0.81304 6.5083-1.0661 9.8094-0.30974 1.6034-0.5942 3.2141-0.85296 4.8335-0.1051 0.59851-0.29424 1.1673-0.5686 1.7058-0.39654 2.3446-1.0605 4.6191-1.9903 6.8238-1.2269 2.8476-3.0992 5.1462-5.6155 6.895-1.8396 0.7674-3.7346 0.9565-5.6863 0.56843-2.4054-0.84153-4.3731-2.2875-5.8998-4.3356-1.4032-2.0629-2.6584-4.1957-3.7674-6.3976 0-0.18895-0.09515-0.28416-0.28415-0.28416-1.9677-5.1221-3.9821-10.24-6.0421-15.354-0.8615-1.986-2.1168-3.6677-3.7674-5.0466-4.5063-1.6362-8.6774-3.8637-12.51-6.6816-1.8864-1.6008-3.3324-3.5201-4.336-5.7577-0.5075-1.295-1.0051-2.5745-1.4928-3.8384v-0.14215c-0.24016-1.1783-0.4534-2.3626-0.6395-3.5538-0.4565-2.6302 0.11223-5 1.7058-7.1082 3.9166-4.1482 8.6321-5.4517 14.145-3.9094 3.4987 1.0863 6.7214 2.6968 9.667 4.8336 2.2748 1.5865 4.1229 3.5524 5.5444 5.8996z"/> </g> <g fill="#c96c4f"> <path d="m616.06 878.44c0.2245 1.9148 0.3894 3.8582 0.49747 5.8285 0.03839 1.4715 0.1095 2.94 0.2132 4.407-0.00141 0.2204-0.04847 0.40945-0.14217 0.56845-0.3113-3.5907-0.50176-7.1919-0.5685-10.804z"/> </g> <g fill="#dd5b2a"> <path d="m605.4 885.26c0.0243 1.5794-0.07107 3.1435-0.28426 4.6915 0.33116-5e-5 0.66382-5e-5 0.99506-5e-5 -0.39655 0.1394-0.823 0.18635-1.2794 0.14235 0.08243-1.6435 0.2716-3.2555 0.5686-4.8338z"/> </g> <g fill="#f45b20"> <path d="m515.27 890.66c0.32264 0.11652 0.6555 0.21186 0.9953 0.28436-0.2972 0.97376-0.67547 1.9219-1.1375 2.8431-0.09656-0.10528-0.1919-0.20024-0.2843-0.2843 0.138-0.9425 0.28-1.8907 0.4265-2.8432z"/> </g> <g fill="#f6581d"> <path d="m588.76 893.79c0.47333 0 0.94823 0 1.4216 1e-4 0.26007 1.18 0.496 2.3655 0.7108 3.554-0.09545 0.2841-0.18926 0.5684-0.2846 0.85285-0.09234 0.04265-0.1875 0.09095-0.28436 0.14221-0.52288-1.5183-1.0432-3.0352-1.5635-4.5492z"/> </g> <g fill="#fe5216"> <path d="m546.11 897.34c1.6648 0.3168 3.3236 0.64824 4.9756 0.9951 0.8743 0.16327 1.7757 0.1875 2.701 0.0709 1.507-0.27726 3.0238-0.4905 4.5492-0.63975 0.4877 1.264 0.9853 2.5434 1.4928 3.8384 1.0036 2.2376 2.4495 4.1569 4.336 5.7577 3.8326 2.8179 8.0038 5.0454 12.51 6.6816 1.6506 1.3789 2.9059 3.0606 3.7674 5.0466 2.06 5.114 4.0744 10.232 6.0421 15.354v2.2745h-1.9903-0.2843c-1.1985-0.2487-2.4311-0.3427-3.6963-0.28454-1.069 0.04578-2.1112-0.00146-3.1276-0.1419-1.1032-0.24466-2.2405-0.3385-3.4118-0.28466-0.09521 1e-4 -0.18915 1e-4 -0.28425 3e-4 -1.3932-0.22455-2.8149-0.3908-4.2649-0.49756-0.8985-0.07099-1.7998-0.09534-2.7011-0.07114-0.9937-0.0712-1.9888-0.11813-2.9855-0.14236-0.37954-0.09504-0.75757-0.18891-1.1372-0.284-1.4812-0.29309-2.9983-0.43504-4.5492-0.42684-0.3482-0.1378-0.7264-0.186-1.1373-0.14195-0.26855-0.11682-0.5529-0.23608-0.85296-0.35555-0.75624-0.07096-1.5153-0.09495-2.2746-0.0711-0.79604-0.1177-1.6021-0.2132-2.4167-0.28416-1.5879-0.27304-3.1986-0.51038-4.8337-0.71094-0.186-0.1035-0.37515-0.22296-0.5685-0.3554-1.4985-0.1905-2.9669-0.47504-4.407-0.853 0.38815-0.0254 0.76625-0.09653 1.1374-0.2132-0.28434-0.0469-0.56864-0.0952-0.85304-0.14206-0.48045 0.04406-0.8602 0.13776-1.1372 0.28416-0.23749-0.047-0.47351-0.0952-0.71085-0.1421 0.37106-0.17905 0.34683-0.32144-0.0711-0.42667-0.3099 0.16083-0.64115 0.25457-0.99515 0.28447-0.45345-0.03404-0.90271-0.08244-1.3504-0.1421-2.0982-0.3226-4.1838-0.7022-6.255-1.1371-1.7415-0.5604-3.5413-0.93856-5.4021-1.1375-2.3598-0.33403-4.6814-0.8089-6.9659-1.4216 0.02417-0.6653 0.07104-1.3292 0.14215-1.9903 1.7584-3.8526 3.4887-7.7377 5.189-11.657 0.51594-1.0732 1.0846-2.1153 1.7058-3.1276 0.7351-1.1132 1.6591-2.0372 2.7721-2.7722 2.1496-0.7677 4.282-1.5723 6.3974-2.4167 2.6683-1.1684 5.1333-2.6613 7.3923-4.478 1.2439-1.2439 2.428-2.5234 3.554-3.8384z"/> </g> <g fill="#c74f28"> <path d="m558.34 897.63v0.14215c-1.5254 0.14925-3.0422 0.36249-4.5492 0.63975-0.92533 0.1166-1.8267 0.09237-2.701-0.0709 2.4268-0.16504 4.8435-0.4011 7.2502-0.711z"/> </g> <g fill="#e5d0a7"> <path d="m613.78 893.36c-0.2358 1.8381-0.331 3.6863-0.2843 5.544-0.2343 0.8673-0.3767 1.7672-0.42636 2.7011 0.02569-2.6143 0.19201-5.22 0.49762-7.8187 0.03264-0.17644 0.1037-0.31853 0.21304-0.42644z"/> </g> <g fill="#a0c6e4"> <path d="m650.68 1110.1c0.3191-0.0167 0.62325 0.0357 0.91309 0.1588 0.17541 0.5138 0.0033 0.8313-0.51617 0.9528-0.15087-0.0444-0.28347-0.124-0.39692-0.2383-0.09369-0.2912-0.09369-0.5827 0-0.8733z"/> </g> <g fill="#c9754f"> <path d="m519.1 925.63c-0.07111 0.6611-0.11798 1.325-0.14215 1.9903h-0.14215c0-0.47345 0-0.9482-5e-5 -1.4218 0.02275-0.23427 0.11797-0.42494 0.28435-0.5685z"/> </g> <g fill="#1b1915"> <path d="m518.82 927.62h0.14215c2.2845 0.61273 4.6061 1.0876 6.9659 1.4216 1.7726 0.44347 3.5738 0.82307 5.4021 1.1375 2.0712 0.4349 4.1568 0.8145 6.255 1.1371 0.0597 0.10226 0.1535 0.1733 0.28435 0.2131 2.8872 0.54474 5.7774 1.0422 8.6716 1.4928 1.635 0.20056 3.2458 0.4379 4.8337 0.71094 0.01574 0.08819 0.06254 0.15899 0.14209 0.21319 0.76055 0.05547 1.5198 0.12671 2.2746 0.21307 1.0407 0.1183 2.0828 0.2134 3.1276 0.28455 0.8332 0.3794 1.733 0.52179 2.7012 0.42639 0.6142 0.0611 1.2311 0.1081 1.8481 0.1424 0.72504 0.20736 1.4828 0.30121 2.2745 0.284 0.99666 0.02423 1.9918 0.07116 2.9855 0.14236 1.0236 0.1409 2.0657 0.283 3.1276 0.4265 1.8666 0.24174 3.763 0.3839 5.6863 0.42656h1.8482c1.0164 0.14044 2.0586 0.18768 3.1276 0.1419 1.2012 0.22358 2.4339 0.31861 3.6963 0.28454h0.2843c0.6837 0.1409 1.3945 0.18763 2.1324 0.1424 0.00704 6.1312 0.81304 12.149 2.4168 18.054-0.776 0.31695-1.5354 0.67235-2.2747 1.0664-0.86139 0.263-1.7142 0.5231-2.5588 0.7817-1.7714 0.50034-3.5726 0.85556-5.4022 1.0664-0.13085 0.03947-0.2246 0.1107-0.28435 0.2129-8.831 1.1717-17.692 1.4558-26.584 0.8531-1.4884-0.2191-3.0051-0.361-4.5491-0.4266-1.1402-0.11946-2.2775-0.2615-3.4119-0.42665-9.1978-1.3092-18.107-3.6549-26.726-7.0368-1.9846-0.6215-3.9265-1.3097-5.8287-2.0619 1.0336-1.8207 2.0514-3.6689 3.0565-5.544 2.2249-5.0594 3.6693-10.319 4.3362-15.78z"/> </g> <g fill="#c14e27"> <path d="m525.93 929.05c1.8607 0.19891 3.6605 0.57707 5.4021 1.1375-1.8283-0.3144-3.6295-0.694-5.4021-1.1375z"/> </g> <g fill="#e35221"> <path d="m546.54 933.03c-2.8943-0.4506-5.7844-0.94806-8.6716-1.4928-0.13085-0.0398-0.22465-0.11084-0.28435-0.2131 0.44774 0.05966 0.897 0.10806 1.3504 0.1421 0.354-0.0299 0.68525-0.12364 0.99515-0.28447 0.41793 0.10523 0.44216 0.24762 0.0711 0.42667 0.23734 0.0469 0.47336 0.0951 0.71085 0.1421 0.27705-0.1464 0.6568-0.2401 1.1372-0.28416 0.2844 0.04686 0.5687 0.09516 0.85304 0.14206-0.37114 0.11667-0.74924 0.1878-1.1374 0.2132 1.4402 0.37796 2.9086 0.6625 4.407 0.853 0.19335 0.13244 0.3825 0.2519 0.5685 0.3554z"/> </g> <g fill="#642716"> <path d="m551.37 933.74c0.81454 0.07096 1.6206 0.16646 2.4167 0.28416v0.1421c-0.75484-0.08636-1.514-0.1576-2.2746-0.21307-0.07955-0.0542-0.12635-0.125-0.14209-0.21319z"/> </g> <g fill="#d65129"> <path d="m553.79 934.16v-0.1421c0.75926-0.02385 1.5184 1.4e-4 2.2746 0.0711 0.30006 0.11947 0.58441 0.23873 0.85296 0.35555-1.0447-0.07115-2.0868-0.16625-3.1276-0.28455z"/> </g> <g fill="#d65327"> <path d="m558.06 934.59c1.5509-0.0082 3.068 0.13375 4.5492 0.42684h-1.1372c-0.61696-0.0343-1.2339-0.0813-1.8481-0.1424-0.52175-0.09527-1.0421-0.18914-1.5639-0.28444z"/> </g> <g fill="#552015"> <path d="m556.92 934.45c0.4109-0.04405 0.7891 0.00415 1.1373 0.14195 0.52176 0.0953 1.0422 0.18917 1.5639 0.28444-0.96816 0.0954-1.868-0.04699-2.7012-0.42639z"/> </g> <g fill="#632213"> <path d="m561.47 935.02h1.1372c0.37967 0.09509 0.7577 0.18896 1.1372 0.284-0.79169 0.01721-1.5494-0.07664-2.2745-0.284z"/> </g> <g fill="#995f51"> <path d="m586.49 934.45c0.189 0 0.28415 0.09521 0.28415 0.28416-0.14055 0.6841-0.18765 1.3947-0.14209 2.1327-0.73786 0.04523-1.4487-0.0015-2.1324-0.1424h1.9903v-2.2745z"/> </g> <g fill="#d05329"> <path d="m566.73 935.44c0.90126-0.0242 1.8026 1.5e-4 2.7011 0.07114 1.45 0.10676 2.8717 0.27301 4.2649 0.49756-1.2781-0.0669-2.5577-0.1136-3.8384-0.1422-1.0619-0.1435-2.104-0.2856-3.1276-0.4265z"/> </g> <g fill="#ce562c"> <path d="m573.98 936.01c1.1714-0.05384 2.3086 0.04 3.4118 0.28466h-1.8482c-0.52165-0.09546-1.0421-0.18921-1.5636-0.28466z"/> </g> <g fill="#44180b"> <path d="m569.86 935.87c1.2807 0.0286 2.5603 0.0753 3.8384 0.1422 0.0951-2e-4 0.18904-2e-4 0.28425-3e-4 0.52155 0.09545 1.042 0.1892 1.5636 0.28466-1.9233-0.04266-3.8198-0.18482-5.6863-0.42656z"/> </g> <g fill="#c34e26"> <path d="m580.52 936.44c1.2652-0.05816 2.4978 0.03584 3.6963 0.28454-1.2624 0.03407-2.4951-0.06096-3.6963-0.28454z"/> </g> <g fill="#9abfbc"> <path d="m502.76 938c1.7712 0.6299 3.5724 0.72516 5.4021 0.28437-0.24023 0.11376-0.47772 0.25598-0.71088 0.42653-1.0903 0.1891-2.1793 0.1891-3.2696 0-0.50759-0.195-0.9823-0.4322-1.4216-0.7109z"/> </g> <g fill="#fe5216"> <path d="m511.43 948.95c1.9022 0.7522 3.8441 1.4404 5.8287 2.0619 8.6194 3.3818 17.529 5.7276 26.726 7.0368 0.04274 0.0924 0.091 0.18785 0.14224 0.28435 1.5566 0.2347 3.1205 0.3768 4.6913 0.4267 1.0378 0.1206 2.0799 0.16773 3.1275 0.1422 8.8922 0.6027 17.753 0.31856 26.584-0.8531 0.93545-0.05814 1.8596-0.2003 2.7722-0.42655 0.2915 0.02725 0.55166 0.12245 0.7819 0.28465 0.172-0.10954 0.172-0.22904 0-0.35557 0.7675-0.19897 1.4784-0.45923 2.1324-0.78183 0.8445-0.2586 1.6974-0.5187 2.5588-0.7817 0.73935-0.394 1.4987-0.7494 2.2747-1.0664 1.0635 2.8391 2.3201 5.5871 3.7671 8.2453 2.9458 4.511 5.8359 9.0601 8.672 13.648 0.28588 0.68366 0.59424 1.3477 0.92401 1.9902 0.24323 0.8188 0.52753 1.6247 0.85296 2.4166 0.14507 0.09806 0.28723 0.1936 0.42667 0.28446 0.3069 0.65961 0.6155 1.3222 0.92404 1.9903 0.32976 0.96954 0.59136 1.9646 0.78186 2.9854 1.153 5.6338 1.4372 11.32 0.85297 17.059v1.2794c-0.25887 1.059-0.44787 2.1498-0.56873 3.2696-0.25604 1.2925-0.58704 2.5718-0.99514 3.8385-0.14634 1.0181-0.38376 2.0128-0.7108 2.9854-0.128 0.10094-0.1764 0.24304-0.14214 0.42654-0.09516 0.04697-0.18916 0.0953-0.2843 0.14206 0.02411-1.1856 0-2.3698-0.07126-3.554-0.10794-0.2572-0.22586-0.4946-0.35526-0.7108-1.0932-2.4467-2.7054-4.5083-4.8337-6.1841-8.2567-5.8699-17.497-8.7844-27.722-8.743-3.008-0.16507-6.0418-0.18907-9.0982-0.07117-0.26727 0.0283-0.5047 0.0995-0.71088 0.21314-0.82452-0.01134-1.6291 0.10681-2.4168 0.35522-2.9923 1.3026-5.9778 2.582-8.956 3.8386-0.54449 0.11656-1.0662 0.3055-1.5638 0.5687-0.33126 0.0951-0.6639 0.0951-0.9952 0-4.3258-4.5464-9.3483-8.0289-15.069-10.449-0.65113-0.37535-1.3619-0.6126-2.1323-0.71086-1.517-0.33088-3.0338-0.66384-4.5493-0.99494-2.4879-0.1651-4.9984-0.18927-7.5346-0.071-0.22174 0.02974-0.4109 0.10115-0.5686 0.21346-0.8331 0.0766-1.6392 0.2185-2.4169 0.42614-0.90413 0.0725-1.8039 0.19196-2.701 0.35535-1.8438 0.47785-3.645 1.0689-5.4022 1.777-1.6732 0.38797-3.237 1.0036-4.6913 1.848-5.1575 2.046-9.4935 5.2216-13.008 9.5246-0.21472 0.64257-0.52307 1.2355-0.9241 1.7771-0.55012 1.1999-0.88132 2.4566-0.99515 3.767-0.16477 1.0168-0.18762 2.0602-0.07097 3.1277 0.03264 0.17626 0.10378 0.31873 0.21312 0.42676 0.17215 1.0106 0.40815 2.0061 0.71094 2.9855 0.03122 0.16745-0.01574 0.3098-0.14216 0.42636-0.40953-0.56446-0.50335-0.49326-0.28438 0.21289-0.172 0.18505-0.2659 0.3982-0.2844 0.6399 0.54028 0.05555 0.5644 0.19775 0.07118 0.42665-0.18903-0.18483-0.37818-0.3739-0.56864-0.56874-0.11652 0.31274-0.04556 0.57287 0.21324 0.78184-0.15932 0.0354-0.30135 0.1067-0.42653 0.2133 0.30283-0.02285 0.44501 0.16636 0.42653 0.5687-0.26448-0.08093-0.5019-0.08093-0.71074 0-0.6796-0.6836-1.2724-1.4429-1.7771-2.2745-0.36395-0.79026-0.76761-1.5495-1.2083-2.2744-0.01704-0.43785-0.15922-0.81592-0.42644-1.1372-0.04699-0.18908-0.09526-0.37954-0.14212-0.56874-0.07959-0.3269-0.15081-0.6582-0.21331-0.995-0.09519-0.10667-0.21326-0.1551-0.35543-0.14256-0.19197-1.0517-0.42942-2.0938-0.7109-3.1275 0.01426-0.89834-0.12786-1.7515-0.42644-2.5589v-1.2794c-0.18198-2.5589-0.18198-5.1174 0-7.6765-0.04406-0.50316 0.00281-0.97826 0.14218-1.4219 0.27719-0.69616 0.37103-1.4541 0.28426-2.2744 0.3953-0.9895 0.63258-2.033 0.71086-3.1275-0.02848-0.71653 0.11374-1.3792 0.42654-1.9902 0.22177-0.266 0.364-0.5987 0.4265-0.99515 0.30278 0.7632 0.49333 0.71493 0.5686-0.14237-0.11662-0.12628-0.25877-0.17343-0.4265-0.14227 0.16208-0.54856 0.25736-1.1173 0.28437-1.7056 0.19476 0.02271 0.38528-0.00158 0.5686-0.07143-0.24872-0.24876-0.34399-0.5574-0.28437-0.92387 0.12797-0.10107 0.17634-0.24328 0.14222-0.42683 0.33273-0.4035 0.52316-0.87706 0.5686-1.4216 0.11371-0.7419 0.327-1.4527 0.63971-2.1322 0.55875-1.133 1.1033-2.2705 1.635-3.4118 0.54872-0.4322 0.88004-1.0009 0.99515-1.7061 0.74927-1.1571 1.4842-2.3412 2.2035-3.5539 1.5155-1.9177 3.1503-3.7187 4.9046-5.402 4.1938-3.9805 8.5069-7.8417 12.937-11.586 1.4131-1.4344 2.7395-2.9273 3.9805-4.4784z"/> </g> <g fill="#da5425"> <path d="m584.21 956.77c-0.65396 0.3226-1.3649 0.58286-2.1324 0.78183 0.172 0.12653 0.172 0.24603 0 0.35557-0.23024-0.1622-0.4904-0.2574-0.7819-0.28465-0.9127 0.22625-1.8368 0.36841-2.7722 0.42655 0.05975-0.1022 0.1535-0.17343 0.28435-0.2129 1.8296-0.21084 3.6308-0.56606 5.4022-1.0664z"/> </g> <g fill="#d05024"> <path d="m543.98 958.05c1.1344 0.16515 2.2717 0.30719 3.4119 0.42665 0.4735 0.0953 0.94817 0.1892 1.4216 0.2844-1.5708-0.0499-3.1347-0.192-4.6913-0.4267-0.05124-0.0965-0.0995-0.19195-0.14224-0.28435z"/> </g> <g fill="#551f11"> <path d="m547.39 958.47c1.544 0.0656 3.0607 0.2075 4.5491 0.4266-1.0476 0.02553-2.0898-0.0216-3.1275-0.1422-0.47339-0.0952-0.94806-0.1891-1.4216-0.2844z"/> </g> <g fill="#d96849"> <path d="m487.4 973.97c-0.11511 0.70524-0.44643 1.2739-0.99515 1.7061 0.33272-0.57156 0.66392-1.1402 0.99515-1.7061z"/> </g> <g fill="#e1633a"> <path d="m602.41 978.8c0.14239-0.0043 0.23608 0.06666 0.28433 0.2132 0.37533 0.8116 0.7081 1.6406 0.9953 2.4879-0.13944-0.09086-0.2816-0.1864-0.42667-0.28446-0.32543-0.7919-0.60973-1.5978-0.85296-2.4166z"/> </g> <g fill="#d76a49"> <path d="m484.13 981.22c-0.04544 0.54454-0.23587 1.0181-0.5686 1.4216-0.02272-0.1945 0.00148-0.38494 0.07114-0.5686 0.10519-0.33965 0.27139-0.624 0.49746-0.853z"/> </g> <g fill="#e75e2f"> <path d="m483.42 983.07c-0.05962 0.36647 0.03565 0.67511 0.28437 0.92387-0.18332 0.06985-0.37384 0.09414-0.5686 0.07143-0.02701 0.58837-0.12229 1.1571-0.28437 1.7056 0.16773-0.03116 0.30988 0.01599 0.4265 0.14227-0.07527 0.8573-0.26582 0.90557-0.5686 0.14237-0.0625 0.39645-0.20473 0.72915-0.4265 0.99515 0.2787-1.0934 0.5388-2.1836 0.7819-3.2701 0.108-0.25716 0.226-0.49436 0.3553-0.71063z"/> </g> <g fill="#d45428"> <path d="m525.07 989.04c-2.441-0.04693-4.8576-1e-4 -7.2502 0.14246h-0.853c0.1577-0.11231 0.34686-0.18372 0.5686-0.21346 2.5361-0.11827 5.0466-0.0941 7.5346 0.071z"/> </g> <g fill="#39170f"> <path d="m516.97 989.18h0.853c-0.2943 0.18604-0.6497 0.28149-1.0662 0.28414-0.735 0.05393-1.4701 0.1008-2.2037 0.142 0.77771-0.20764 1.5838-0.34954 2.4169-0.42614z"/> </g> <g fill="#111214"> <path d="m525.07 989.04c1.5155 0.3311 3.0324 0.66406 4.5493 0.99494 0.67233 0.31866 1.383 0.55606 2.1323 0.71086 5.7207 2.4202 10.743 5.9027 15.069 10.449 0.3313 0.0951 0.66394 0.0951 0.9952 0 0.49754-0.2632 1.0193-0.45214 1.5638-0.5687 2.9782-1.2566 5.9637-2.536 8.956-3.8386 0.78775-0.24841 1.5923-0.36656 2.4168-0.35522 3.2683-0.12074 6.5381-0.16761 9.8091-0.14197 10.224-0.04137 19.465 2.8732 27.722 8.743 2.1282 1.6758 3.7404 3.7374 4.8337 6.1841 0.25586 1.453 0.35106 2.9214 0.28426 4.4071-0.1024 0.32104-0.14925 0.6539-0.1422 0.995-0.15066 0.5233-0.31704 1.0448-0.4976 1.5637-1.1344 2.4608-2.485 4.7837-4.0516 6.966-0.35256 0.3269-0.6369 0.7063-0.8531 1.1372-2.6014 2.9342-5.2088 5.8726-7.8188 8.8141-0.8997 0.8062-1.7529 1.6591-2.5589 2.5591-0.327 0.375-0.65966 0.7548-0.9952 1.1373-1.6534 1.5823-3.2881 3.1926-4.9045 4.8332-0.0712 0.6612-0.0954 1.325-0.0712 1.9904v0.2842 0.1422c-0.13505 0.2018-0.182 0.4394-0.1421 0.7107-1.0505 14.448-2.6144 28.853-4.6913 43.217-2.7765 14.525-6.9943 28.598-12.652 42.222-0.2203 0.135-0.45634 0.1832-0.7108 0.1423-1.615-0.5347-3.2741-0.9614-4.9758-1.2798-7.3127-1.9106-14.658-3.7585-22.035-5.5439-0.08819-0.7152-0.20616-1.4258-0.35546-2.1327-0.69513-0.3339-1.4301-0.523-2.2036-0.5685-3.2454-0.1422-6.5152-0.1891-9.809-0.1423-1.4429-0.1407-2.913-0.1893-4.4071-0.1423-0.27995 0.0345-0.54014-0.0124-0.78184-0.1418-3.2442-11.409-5.8513-22.972-7.819-34.688-0.61548-5.291-0.85144-10.598-0.7107-15.922 0.11944-2.094 0.33264-4.1796 0.63971-6.2548 0.58429-3.4619 1.153-6.9206 1.706-10.378 0.08667-0.1267 0.1336-0.2687 0.14215-0.4264 5e-5 -0.1421 5e-5 -0.2841 5e-5 -0.4265 0.53596-2.5374 0.96235-5.0965 1.2794-7.6768v-0.1421c0.0953 1e-4 0.1423-0.0469 0.1423-0.1418 0.361-2.2992 0.125-4.5265-0.71094-6.6819-0.04699-0.142-0.14216-0.2374-0.2843-0.2843-0.12936-0.4964-0.36676-0.9226-0.71081-1.2793-0.60995-0.8474-1.3206-1.6065-2.1324-2.2748-0.09528-0.0471-0.18909-0.0955-0.28443-0.1422-3.645-2.2975-7.2942-4.595-10.946-6.895-1.4927-1.1845-2.9612-2.3927-4.4071-3.6253-2.3784-2.3755-4.3686-5.0298-5.9708-7.961-0.03555-0.35153-0.1777-0.6357-0.42648-0.85324-0.11234-0.41211-0.30137-0.79186-0.56861-1.1371-0.30279-0.9794-0.53879-1.9749-0.71094-2.9855-0.12356-1.1799-0.17044-2.3641-0.14215-3.5544 0.11383-1.3103 0.44503-2.567 0.99515-3.767 0.40103-0.54164 0.70938-1.1345 0.9241-1.7771 3.5143-4.303 7.8503-7.4785 13.008-9.5246 0.28991-0.14502 0.57434-0.1449 0.8529 1.5e-4 -0.07528 0.098-0.16914 0.16916-0.28427 0.213 0.34967 0.13524 0.634 0.0641 0.85291-0.213-0.12503-0.1067-0.26715-0.17764-0.42646-0.2135 0.68525-0.51187 1.4444-0.74905 2.2746-0.7106 0.4222-0.40784 0.89705-0.71655 1.4216-0.9241 1.7572-0.70804 3.5584-1.2991 5.4022-1.777 0.8971-0.16339 1.7969-0.28285 2.701-0.35535 0.73357-0.0412 1.4687-0.08807 2.2037-0.142 0.4165-0.00265 0.7719-0.0981 1.0662-0.28414 2.3925-0.14256 4.8092-0.18939 7.2502-0.14246z"/> </g> <g fill="#b1492a"> <path d="m529.62 990.03c0.77038 0.09826 1.4811 0.33551 2.1323 0.71086-0.74927-0.1548-1.4599-0.3922-2.1323-0.71086z"/> </g> <g fill="#c57059"> <path d="m481.86 989.04c-0.07828 1.0945-0.31556 2.138-0.71086 3.1275 0.10673-1.008 0.27302-2.0031 0.49766-2.9853 0.05399-0.0797 0.12504-0.1267 0.2132-0.1422z"/> </g> <g fill="#2e1713"> <path d="m506.45 991.74c-0.52455 0.20755-0.9994 0.51626-1.4216 0.9241-0.8302-0.03845-1.5893 0.19873-2.2746 0.7106 0.15931 0.03586 0.30143 0.1068 0.42646 0.2135-0.21891 0.2771-0.50324 0.34824-0.85291 0.213 0.11513-0.04384 0.20899-0.115 0.28427-0.213-0.27856-0.14505-0.56299-0.14517-0.8529-1.5e-4 1.4543-0.84448 3.018-1.4601 4.6913-1.848z"/> </g> <g fill="#8a3b27"> <path d="m570.57 996.29c-3.271-0.02564-6.5408 0.02123-9.8091 0.14197 0.20618-0.11364 0.44361-0.18484 0.71088-0.21314 3.0564-0.1179 6.0902-0.0939 9.0982 0.07117z"/> </g> <g fill="#db6138"> <path d="m605.4 986.48c0.15643 0.25317 0.2744 0.53723 0.35535 0.85303 0.28589 1.6265 0.54585 3.237 0.78205 4.8334 0.12365 2.6041 0.1703 5.2101 0.142 7.8187-0.0469 0.85314-0.0952 1.7059-0.1421 2.5588-0.0953 0.3313-0.1891 0.66394-0.28433 0.99523 0.58423-5.7392 0.30003-11.425-0.85297-17.059z"/> </g> <g fill="#6d2a19"> <path d="m486.83 1008.7c-0.02829 1.1903 0.01859 2.3745 0.14215 3.5544-0.10934-0.10803-0.18048-0.2505-0.21312-0.42676-0.11665-1.0675-0.0938-2.1108 0.07097-3.1277z"/> </g> <g fill="#732919"> <path d="m488.26 1016.3c0.24878 0.21754 0.39093 0.50171 0.42648 0.85324-0.26727-0.19907-0.40939-0.4836-0.42648-0.85324z"/> </g> <g fill="#f7541a"> <path d="m487.69 1015.2c0.26724 0.3452 0.45627 0.72495 0.56861 1.1371 0.01709 0.36964 0.15921 0.65417 0.42648 0.85324 1.6022 2.9312 3.5924 5.5855 5.9708 7.961-2.9712-1.5934-5.6253-3.6322-7.961-6.1131-0.2402-0.38095-0.47774-0.7606-0.71074-1.1373 0.20884-0.08093 0.44626-0.08093 0.71074 0 0.01848-0.40234-0.1237-0.59155-0.42653-0.5687 0.12518-0.1066 0.26721-0.1779 0.42653-0.2133-0.2588-0.20897-0.32976-0.4691-0.21324-0.78184 0.19046 0.19484 0.37961 0.38391 0.56864 0.56874 0.49322-0.2289 0.4691-0.3711-0.07118-0.42665 0.0185-0.2417 0.1124-0.45485 0.2844-0.6399-0.21897-0.70615-0.12515-0.77735 0.28438-0.21289 0.12642-0.11656 0.17338-0.25891 0.14216-0.42636z"/> </g> <g fill="#604f3e"> <path d="m519.53 1122.5c1.4941-0.047 2.9642 0.0016 4.4071 0.1423h-4.2648v0.5686c-0.13514-0.2017-0.18214-0.4389-0.1423-0.7109z"/> </g> <g fill="#fbca8d"> <path d="m533.75 1122.8c0.7735 0.0455 1.5085 0.2346 2.2036 0.5685 0.1493 0.7069 0.26727 1.4175 0.35546 2.1327 7.3766 1.7854 14.722 3.6333 22.035 5.5439 0.27173 0.1391 0.55597 0.2815 0.85307 0.4264-0.4165 0.1393-0.84294 0.1876-1.2795 0.1422v0.4263c0.27445-0.0381 0.5119 0.0328 0.7108 0.2134-0.5431 0.2715-1.1116 0.4605-1.7059 0.5684 0.59284 0.232 1.1616 0.2092 1.7059-0.0708 0.1436 0.0625 0.1436 0.1563 0 0.2845 0.4962 0.1106 0.9937 0.2044 1.4927 0.284 0.56437-0.1662 0.63544-0.0241 0.21327 0.4268-0.1691 0.1321-0.35835 0.1791-0.5686 0.1418v-0.4264h-0.5687c-0.0199 0.2305 0.07534 0.3965 0.28426 0.4977-0.23743 0.2373-0.52166 0.3554-0.85296 0.3554v-0.5685c-0.7619 0.0155-1.5196-0.0314-2.2745-0.1422-0.18903 0.0469-0.37952 0.0951-0.56866 0.1422 0.37963 0.0952 0.7578 0.1888 1.1373 0.2841-0.56566 0.1437-1.1343 0.1437-1.7058 3e-4 0.05397 0.5857 0.125 1.1543 0.2132 1.7058-0.047 0.0469-0.09527 0.0954-0.14226 0.1421-0.12928-0.2757-0.34247-0.4178-0.63974-0.4262-0.0381 0.3724 0.00863 0.7278 0.14236 1.0661-0.13519 0.0684-0.27726 0.0925-0.42656 0.071v-1.2794c-0.58003-0.0243-0.6512-0.1664-0.21345-0.4264 0.13525 0.0737 0.25325 0.1692 0.35555 0.2842 0.1536-0.1221 0.1778-0.2646 0.0712-0.4263-0.303-0.182-0.61145-0.182-0.9242-2e-4 -0.1762-0.2146-0.1293-0.3795 0.14216-0.4976-0.08946-0.1064-0.16066-0.2246-0.21316-0.3554-0.22196 0.3514-0.50614 0.6356-0.8531 0.853-0.0952 0.0952-0.0952 0.1892 0 0.2844 0.2119 0.0936 0.37675 0.2361 0.49766 0.4264-1.1261 0.1632-1.1261 0.2813 0 0.3555 0.04694 0.047 0.09524 0.0952 0.14214 0.142-0.5232 0.1737-0.4762 0.293 0.1421 0.3553-0.02265-0.3354 0-0.6666 0.0712-0.9949 0.3198 0.5686 0.24874 1.0904-0.2133 1.564-0.36816-0.0983-0.69933-0.2647-0.99505-0.4978 0.11798-0.1294 0.26005-0.2246 0.42645-0.2843-0.28436-0.0951-0.5687-0.0953-0.853-1e-4 -0.18905 0.1889-0.18905 0.3795 0 0.5686-0.13503 0.0681-0.2771 0.0924-0.4266 0.0714-0.02124 0.1489 0.00293 0.2911 0.0711 0.4261 1.035 0.5987 0.96394 0.6925-0.2131 0.2843-0.2958 0.2118-0.4379 0.4962-0.4265 0.8532h-0.5687v-0.5687c0.4293-0.0428 0.7137-0.28 0.85296-0.7109-0.04681-0.2373-0.18903-0.3795-0.42639-0.4265-0.13927-0.3681-0.18627-0.7461-0.14221-1.1372-0.38813-0.034-0.71942 0.0852-0.99516 0.3555 0.1422 0.1179 0.28434 0.2373 0.42655 0.3555-0.33405 0.2459-0.71362 0.3409-1.1374 0.2842 0.0241 0.1878-0.02274 0.3538-0.1422 0.4975-0.2573-0.0073-0.49474 0.017-0.7108 0.071 0.09533 0.0954 0.189 0.189 0.28436 0.2845-0.16346 0.1745-0.32976 0.1745-0.49762 0-0.30414 0.2828-0.65961 0.472-1.0661 0.5684-0.14516-0.6524-0.5473-1.0321-1.2083-1.1368 0.2658 0.4348 0.57425 0.8611 0.9239 1.2793-0.0241 0.1417-0.04686 0.2843-0.071 0.4263-0.2302-0.2472-0.44363-0.5078-0.6397-0.7818-0.0953-0.0954-0.18906-0.0953-0.2843 2e-4 0.1479 0.4605 0.3837 0.8641 0.7108 1.2082-0.22195 0.1207-0.4351 0.0724-0.6398-0.142-0.0469 0.1889-0.0952 0.3796-0.14215 0.5686-0.26721-0.327-0.62262-0.4935-1.0661-0.4975 0.74345-0.1293 0.74345-0.2958 5e-5 -0.4976 0.1747-0.1109 0.3639-0.1821 0.56856-0.2132-0.27002-0.0287-0.4834-0.1466-0.63971-0.3556-0.12091 0.435-0.33415 0.8145-0.63971 1.1374 0.07526-0.3582 0.07526-0.7379 6e-5 -1.1374-0.08405 0.3354-0.2488 0.62-0.4977 0.8531-0.1947-0.529-0.43065-0.529-0.71086 0-0.12934-0.1181-0.22444-0.2603-0.28414-0.4269-0.1294 0.1639-0.2488 0.141-0.3554-0.0706 0.3297-0.0696 0.661-0.1648 0.9951-0.2846-0.1607-0.6366-0.3739-0.6609-0.6397-0.071-0.37956-0.2103-0.4024-0.4237-0.07114-0.6397-0.14226-0.0711-0.28426-0.1423-0.42636-0.2131-0.0257 0.3083-0.04844 0.6394-0.0712 0.9949-0.2871 0.2147-0.26435 0.4055 0.07104 0.5687-0.46914 0.4054-0.65954 0.9258-0.56864 1.5637h0.56864c0.04696-1.5166 0.09522-1.5166 0.14221 0h0.56861c0.02694 0.2277-0.04406 0.418-0.21326 0.5687-0.4095-0.2187-0.85864-0.3609-1.3506-0.4266 0.02986-0.0836 0.0768-0.1548 0.14235-0.2129-1.5084-0.0727-1.5084-0.1905 0-0.3557-0.37122-0.1162-0.74935-0.1875-1.1374-0.2133 1.5168-0.1418 1.5168-0.2842 0-0.4262 0.361-0.2488 0.6937-0.5334 0.99514-0.8532-0.25739-0.3186-0.58854-0.4833-0.99504-0.4977-0.0428-0.2987 0.00413-0.5827 0.142-0.8526 0.08546 0.1733 0.1081 0.3622 0.071 0.5686 0.19054 0.199 0.31 0.1517 0.3555-0.1425-0.0995-0.1928-0.0994-0.3595 1e-4 -0.4975-0.16347-0.0908-0.3058-0.2105-0.4266-0.3555-0.21746 0.3954-0.3595 0.822-0.42644 1.2795-0.35822 0.2787-0.73639 0.3743-1.1372 0.2845-0.1778 0.2503-0.13085 0.4632 0.14195 0.6399-0.23015 0.4292-0.56145 0.547-0.995 0.3553-0.1507-0.4138-0.2459-0.7931-0.28434-1.1372-0.1153 0.3228-0.18626 0.6539-0.21326 0.9954-0.047 0.0468-0.09515 0.0949-0.14215 0.142-0.06825-0.1348-0.09235-0.277-0.0711-0.4265h-0.56861c0.05542-0.6995-0.11084-0.7478-0.49754-0.1422-0.06966 0.1835-0.0939 0.3739-0.07106 0.5687-0.16774 0.0314-0.31-0.0156-0.42654-0.142 0.19753-0.2289 0.3398-0.4894 0.42654-0.782-0.22894-0.3825-0.56159-0.643-0.99518-0.7821 0.74344-0.2019 0.74354-0.3682 0-0.4976 0.18921-0.0467 0.37958-0.095 0.56874-0.1422-0.37953-0.0241-0.7577-0.0469-1.1373-0.0711-0.4549 0.0142-0.8814 0.1096-1.2795 0.2846-0.19764-0.1581-0.36404-0.347-0.49764-0.569-0.34825 0.4579-0.5374 0.9795-0.56865 1.5638-0.04685-0.3793-0.09521-0.7579-0.14209-1.1373-0.42651-0.2131-0.73496-0.5456-0.92406-0.9952-0.7491-0.0353-1.5084-0.0582-2.2746-0.0709 0.3796-0.047 0.7577-0.0953 1.1374-0.1422-0.92575-0.0656-1.0208-0.303-0.28435-0.711-0.2688-0.1378-0.55324-0.2329-0.8531-0.284 0.2517-0.381 0.44213-0.7851 0.5686-1.2084 0.34405 0.044 0.6767-0.0043 0.9952-0.1422-0.1748-0.3612-0.3412-0.3612-0.4976 0-0.1422-0.0953-0.2842-0.1893-0.42644-0.2844-0.12926 0.2757-0.34256 0.4179-0.63976 0.4266v-0.4266c-0.2104 0.037-0.3994-0.0099-0.5687-0.1422 0.2801-0.1178 0.5645-0.1421 0.853-0.0711-0.2189-0.1577-0.3127-0.371-0.2843-0.6395-0.3568-0.1823-0.73646-0.3244-1.1373-0.4268 0.0583-0.2289 0.0583-0.4179 0-0.5687-0.13785 0.2699-0.1847 0.5548-0.1421 0.8532-0.1422 1e-4 -0.2844 1e-4 -0.42654 1e-4v-0.8532h-0.42646c-0.00274 0.9995-0.07384 1.0464-0.2132 0.1424-0.2603 0.3397-0.236 0.6721 0.0712 0.9948-0.3797 0.1894-0.75783 0.1894-1.1374 0 0.2133 0.0032 0.44915-0.044 0.7108-0.1419-0.0498-0.6993-0.0498-1.4102 0-2.1324-0.8075-0.0014-1.0435-0.3811-0.7108-1.1373h0.42644v-0.5687c-0.49464-0.013-0.92114-0.1792-1.2794-0.4976 0.3838-0.0353 0.7634-0.0353 1.1373 0-0.25166-0.1379-0.51325-0.2558-0.782-0.3554-0.3453 0.1392-0.7008 0.2345-1.0662 0.2841v-1.1369h-0.71065v-0.7112c-1.5169-0.0947-1.5169-0.189 0-0.2841 0.03835-0.4665-0.10385-0.5843-0.42651-0.3553 0.34686 0.1422 0.29852 0.2131-0.14214 0.2131-0.44087 0-0.4891-0.0709-0.1422-0.2131-0.2715-0.283-0.43636-0.2121-0.4976 0.2131-0.2772-0.0868-0.5373-0.2048-0.78184-0.3554 0.43074-0.0184 0.80884-0.1606 1.1372-0.4264-0.07097-0.0712-0.14217-0.1421-0.21314-0.2133-0.56303 0.0795-1.1089 0.2218-1.635 0.4265 0.0924-0.276 0.13936-0.56 0.14223-0.853h-0.42643v-0.9952c4.6445 2e-4 9.2873 1e-4 13.932 2e-4z"/> </g> <g fill="#dab88e"> <path d="m523.94 1122.7c3.2938-0.0468 6.5636 1e-4 9.809 0.1423-4.6444-1e-4 -9.2872 0-13.932-2e-4v0.9952h0.42643c-0.00287 0.293-0.04983 0.577-0.14223 0.853 0.13936 1.6801 0.2574 1.6801 0.3555 0 0.0397 1.0434 0.0157 2.0852-0.0711 3.1275-0.3113-1.487-0.5473-3.0041-0.7107-4.5492v-0.5686h4.2648z"/> </g> <g fill="#fbcb90"> <path d="m558.34 1131.1c1.7017 0.3184 3.3608 0.7451 4.9758 1.2798-3.0894 8.6018-5.9793 17.274-8.6719 26.016-1.8268 5.4322-3.4844 10.929-4.9757 16.491v0.1422c-0.57282 1.8638-1.0947 3.7601-1.5636 5.6865 0.5899 1.8409 1.2538 3.6421 1.9902 5.4022 0.16077 0.7676 0.35101 1.5256 0.56867 2.2748 0.4449 2.1436 0.9652 4.2292 1.5638 6.2548 0.34965 1.5042 0.6339 3.0208 0.85294 4.5492v1.1371c0.1991 7.2008 0.41236 14.404 0.63971 21.609 0.11385 0.5415 0.23175 1.0632 0.35535 1.5637 0.44507 3.3564 0.8231 6.7217 1.1375 10.093v0.2844c0.027 1.3306-0.0214 2.6571-0.14226 3.9806-0.31554 0.4579-0.48064 0.9793-0.49764 1.5638-0.5048 0.5995-1.0975 1.0973-1.777 1.4922-0.57164 0.1665-1.1403 0.3326-1.7061 0.4978-4.1256-0.2434-8.248-0.5273-12.368-0.8531 0.12219 0.6995 0.40649 1.3164 0.85293 1.848 0.29984 1.0177 0.75064 1.9648 1.3504 2.8431 0.25306 0.5375 0.41956 1.1063 0.49766 1.7062h0.4265c0.2545 1.1699 0.3256 2.3556 0.2132 3.5542-0.3085 0.3311-0.6156 0.6637-0.92405 0.9949-0.4436 0.1224-0.87011 0.2644-1.2794 0.4264-2.3614-0.3734-4.7313-0.3734-7.1081 1e-4 -1.0547-0.0724-2.0984-0.2144-3.1275-0.4265-0.4762 0.0241-0.9496 0-1.4216-0.071-9.35-2.2662-14.088-8.2126-14.216-17.841v-0.2841c0.0171-2.8846 0.37254-5.7279 1.0662-8.5297 1.062-3.7561 2.2946-7.4519 3.6961-11.089 0.78486-2.2892 0.927-4.6104 0.4265-6.966-0.634-2.2363-1.2978-4.4626-1.9902-6.6819-0.26455-1.8269-0.0271-3.5798 0.71075-5.2601 1.8126-3.4204 3.8497-6.6899 6.113-9.8092 0.70796-1.1784 1.3007-2.4109 1.7771-3.6962 0.2971-0.5686 0.4861-1.1839 0.5686-1.8479 0.2048-0.8017 0.39385-1.6076 0.56865-2.4167 0.0882-0.0155 0.15925-0.0625 0.21325-0.1419 0.0242-0.829 0.04694-1.6593 0.0711-2.4878-1e-4 -0.8831-0.09526-1.7121-0.2845-2.488-2.2033-14.688-4.3827-29.378-6.5392-44.07 0.0868-1.0423 0.1108-2.0841 0.0711-3.1275-0.0981 1.6801-0.21614 1.6801-0.3555 0 0.5261-0.2047 1.072-0.347 1.635-0.4265 0.07097 0.0712 0.14217 0.1421 0.21314 0.2133-0.32837 0.2658-0.70647 0.408-1.1372 0.4264 0.24454 0.1506 0.50464 0.2686 0.78184 0.3554 0.06124-0.4252 0.2261-0.4961 0.4976-0.2131-0.3469 0.1422-0.29867 0.2131 0.1422 0.2131 0.44066 0 0.489-0.0709 0.14214-0.2131 0.32266-0.229 0.46486-0.1112 0.42651 0.3553-1.5169 0.0951-1.5169 0.1894 0 0.2841v0.7112h0.71065v1.1369c0.3654-0.0496 0.7209-0.1449 1.0662-0.2841 0.26875 0.0996 0.53034 0.2175 0.782 0.3554-0.3739-0.0353-0.7535-0.0353-1.1373 0 0.3583 0.3184 0.7848 0.4846 1.2794 0.4976v0.5687h-0.42644c-0.3327 0.7562-0.0967 1.1359 0.7108 1.1373-0.0498 0.7222-0.0498 1.4331 0 2.1324-0.26165 0.0979-0.4975 0.1451-0.7108 0.1419 0.37957 0.1894 0.7577 0.1894 1.1374 0-0.3072-0.3227-0.3315-0.6551-0.0712-0.9948 0.13936 0.904 0.21046 0.8571 0.2132-0.1424h0.42646v0.8532c0.14214 0 0.28434 0 0.42654-1e-4 -0.0426-0.2984 0.00425-0.5833 0.1421-0.8532 0.0583 0.1508 0.0583 0.3398 0 0.5687 0.40084 0.1024 0.7805 0.2445 1.1373 0.4268-0.0284 0.2685 0.0654 0.4818 0.2843 0.6395-0.2885-0.071-0.5729-0.0467-0.853 0.0711 0.1693 0.1323 0.3583 0.1792 0.5687 0.1422v0.4266c0.2972-0.0087 0.5105-0.1509 0.63976-0.4266 0.14224 0.0951 0.28424 0.1891 0.42644 0.2844 0.1564-0.3612 0.3228-0.3612 0.4976 0-0.3185 0.1379-0.65115 0.1862-0.9952 0.1422-0.12647 0.4233-0.3169 0.8274-0.5686 1.2084 0.29986 0.0511 0.5843 0.1462 0.8531 0.284-0.7365 0.408-0.6414 0.6454 0.28435 0.711-0.37975 0.0469-0.75785 0.0952-1.1374 0.1422 0.76617 0.0127 1.5255 0.0356 2.2746 0.0709 0.1891 0.4496 0.49755 0.7821 0.92406 0.9952 0.04688 0.3794 0.09524 0.758 0.14209 1.1373 0.03125-0.5843 0.2204-1.1059 0.56865-1.5638 0.1336 0.222 0.3 0.4109 0.49764 0.569 0.39806-0.175 0.82456-0.2704 1.2795-0.2846 0.3796 0.0242 0.75777 0.047 1.1373 0.0711-0.18916 0.0472-0.37953 0.0955-0.56874 0.1422 0.74354 0.1294 0.74344 0.2957 0 0.4976 0.43359 0.1391 0.76624 0.3996 0.99518 0.7821-0.08674 0.2926-0.22901 0.5531-0.42654 0.782 0.11654 0.1264 0.2588 0.1734 0.42654 0.142-0.02284-0.1948 0.0014-0.3852 0.07106-0.5687 0.3867-0.6056 0.55296-0.5573 0.49754 0.1422h0.56861c-0.02125 0.1495 0.00285 0.2917 0.0711 0.4265 0.047-0.0471 0.09515-0.0952 0.14215-0.142 0.027-0.3415 0.09796-0.6726 0.21326-0.9954 0.03844 0.3441 0.13364 0.7234 0.28434 1.1372 0.43355 0.1917 0.76485 0.0739 0.995-0.3553-0.2728-0.1767-0.31975-0.3896-0.14195-0.6399 0.40082 0.0898 0.77899-0.0058 1.1372-0.2845 0.06694-0.4575 0.20898-0.8841 0.42644-1.2795 0.1208 0.145 0.26313 0.2647 0.4266 0.3555-0.0995 0.138-0.0996 0.3047-1e-4 0.4975-0.0455 0.2942-0.16496 0.3415-0.3555 0.1425 0.0371-0.2064 0.01446-0.3953-0.071-0.5686-0.13787 0.2699-0.1848 0.5539-0.142 0.8526 0.4065 0.0144 0.73765 0.1791 0.99504 0.4977-0.30144 0.3198-0.63414 0.6044-0.99514 0.8532 1.5168 0.142 1.5168 0.2844 0 0.4262 0.388 0.0258 0.76613 0.0971 1.1374 0.2133-1.5084 0.1652-1.5084 0.283 0 0.3557-0.06555 0.0581-0.11249 0.1293-0.14235 0.2129 0.49196 0.0657 0.9411 0.2079 1.3506 0.4266 0.1692-0.1507 0.2402-0.341 0.21326-0.5687h-0.56861c-0.04699-1.5166-0.09525-1.5166-0.14221 0h-0.56864c-0.0909-0.6379 0.0995-1.1583 0.56864-1.5637-0.33539-0.1632-0.35814-0.354-0.07104-0.5687 0.02276-0.3555 0.0455-0.6866 0.0712-0.9949 0.1421 0.0708 0.2841 0.142 0.42636 0.2131-0.33126 0.216-0.30842 0.4294 0.07114 0.6397 0.2658-0.5899 0.479-0.5656 0.6397 0.071-0.3341 0.1198-0.6654 0.215-0.9951 0.2846 0.1066 0.2116 0.226 0.2345 0.3554 0.0706 0.0597 0.1666 0.1548 0.3088 0.28414 0.4269 0.28021-0.529 0.51616-0.529 0.71086 0 0.2489-0.2331 0.41365-0.5177 0.4977-0.8531 0.0752 0.3995 0.0752 0.7792-6e-5 1.1374 0.30556-0.3229 0.5188-0.7024 0.63971-1.1374 0.15631 0.209 0.36969 0.3269 0.63971 0.3556-0.20466 0.0311-0.39386 0.1023-0.56856 0.2132 0.7434 0.2018 0.7434 0.3683-5e-5 0.4976 0.44348 4e-3 0.79889 0.1705 1.0661 0.4975 0.04695-0.189 0.09525-0.3797 0.14215-0.5686 0.2047 0.2144 0.41785 0.2627 0.6398 0.142-0.3271-0.3441-0.5629-0.7477-0.7108-1.2082 0.09524-0.0955 0.189-0.0956 0.2843-2e-4 0.19607 0.274 0.4095 0.5346 0.6397 0.7818 0.02414-0.142 0.0469-0.2846 0.071-0.4263-0.34965-0.4182-0.6581-0.8445-0.9239-1.2793 0.661 0.1047 1.0631 0.4844 1.2083 1.1368 0.40653-0.0964 0.762-0.2856 1.0661-0.5684 0.16786 0.1745 0.33416 0.1745 0.49762 0-0.09536-0.0955-0.18903-0.1891-0.28436-0.2845 0.21606-0.054 0.4535-0.0783 0.7108-0.071 0.11946-0.1437 0.1663-0.3097 0.1422-0.4975 0.42373 0.0567 0.8033-0.0383 1.1374-0.2842-0.14221-0.1182-0.28435-0.2376-0.42655-0.3555 0.27574-0.2703 0.60703-0.3895 0.99516-0.3555-0.04406 0.3911 0.00294 0.7691 0.14221 1.1372 0.23736 0.047 0.37958 0.1892 0.42639 0.4265-0.13926 0.4309-0.42366 0.6681-0.85296 0.7109v0.5687h0.5687c-0.0114-0.357 0.1307-0.6414 0.4265-0.8532 1.177 0.4082 1.2481 0.3144 0.2131-0.2843-0.06817-0.135-0.09234-0.2772-0.0711-0.4261 0.1495 0.021 0.29157-0.0033 0.4266-0.0714-0.18905-0.1891-0.18905-0.3797 0-0.5686 0.2843-0.0952 0.56864-0.095 0.853 1e-4 -0.1664 0.0597-0.30847 0.1549-0.42645 0.2843 0.29572 0.2331 0.62689 0.3995 0.99505 0.4978 0.46204-0.4736 0.5331-0.9954 0.2133-1.564-0.0712 0.3283-0.09385 0.6595-0.0712 0.9949-0.6183-0.0623-0.6653-0.1816-0.1421-0.3553-0.0469-0.0468-0.0952-0.095-0.14214-0.142-1.1261-0.0742-1.1261-0.1923 0-0.3555-0.12091-0.1903-0.28576-0.3328-0.49766-0.4264-0.0952-0.0952-0.0952-0.1892 0-0.2844 0.34696-0.2174 0.63114-0.5016 0.8531-0.853 0.0525 0.1308 0.1237 0.249 0.21316 0.3554-0.27146 0.1181-0.31836 0.283-0.14216 0.4976 0.31275-0.1818 0.6212-0.1818 0.9242 2e-4 0.1066 0.1617 0.0824 0.3042-0.0712 0.4263-0.1023-0.115-0.2203-0.2105-0.35555-0.2842-0.43775 0.26-0.36658 0.4021 0.21345 0.4264v1.2794c0.1493 0.0215 0.29137-0.0026 0.42656-0.071-0.13373-0.3383-0.18046-0.6937-0.14236-1.0661 0.29727 0.0084 0.51046 0.1505 0.63974 0.4262 0.04699-0.0467 0.09526-0.0952 0.14226-0.1421-0.0882-0.5515-0.15923-1.1201-0.2132-1.7058 0.5715 0.1434 1.1401 0.1434 1.7058-3e-4 -0.37946-0.0953-0.75763-0.1889-1.1373-0.2841 0.18914-0.0471 0.37963-0.0953 0.56866-0.1422 0.75494 0.1108 1.5126 0.1577 2.2745 0.1422v0.5685c0.3313 0 0.61553-0.1181 0.85296-0.3554-0.20892-0.1012-0.30416-0.2672-0.28426-0.4977h0.5687v0.4264c0.21025 0.0373 0.3995-0.0097 0.5686-0.1418 0.42217-0.4509 0.3511-0.593-0.21327-0.4268-0.49903-0.0796-0.99653-0.1734-1.4927-0.284 0.1436-0.1282 0.1436-0.222 0-0.2845-0.5443 0.28-1.1131 0.3028-1.7059 0.0708 0.5943-0.1079 1.1628-0.2969 1.7059-0.5684-0.1989-0.1806-0.43635-0.2515-0.7108-0.2134v-0.4263c0.43656 0.0454 0.863-0.0029 1.2795-0.1422-0.2971-0.1449-0.58134-0.2873-0.85307-0.4264z"/> </g> <g fill="#268ec5"> <path d="m537.21 1291.1h0.0794c72.06 0.0793 144.13 0.1056 216.22 0.0792v0.0795c-72.1 1e-4 -144.2 1e-4 -216.3 2e-4v-0.1589z"/> </g> </g> </svg>