<?xml version="1.0" standalone="no"?>
<!DOCTYPE svg PUBLIC "-//W3C//DTD SVG 20010904//EN"
 "http://www.w3.org/TR/2001/REC-SVG-20010904/DTD/svg10.dtd">
<svg version="1.0" xmlns="http://www.w3.org/2000/svg"
 width="300.000000pt" height="300.000000pt" viewBox="0 0 300.000000 300.000000"
 preserveAspectRatio="xMidYMid meet">
<metadata>
Created by potrace 1.10, written by Peter Selinger 2001-2011
</metadata>
<g transform="translate(0.000000,300.000000) scale(0.100000,-0.100000)"
fill="#000000" stroke="none">
<path d="M26 2985 c4 -8 -1 -17 -10 -21 -20 -8 -21 -24 -1 -24 20 0 19 -17 -2
-29 -17 -9 -17 -11 2 -25 19 -15 19 -16 2 -27 -18 -10 -18 -11 0 -25 17 -13
17 -15 1 -27 -15 -12 -15 -14 0 -25 16 -10 15 -13 -3 -27 -19 -15 -19 -17 -2
-26 21 -12 22 -29 2 -29 -20 0 -19 -10 3 -26 16 -13 16 -15 -1 -28 -18 -14
-18 -15 0 -25 17 -11 17 -12 -2 -27 -19 -14 -19 -16 -2 -25 21 -12 22 -29 2
-29 -20 0 -19 -10 2 -26 17 -13 17 -15 1 -27 -15 -12 -15 -14 0 -25 16 -10 16
-12 -2 -27 -19 -15 -19 -15 -1 -29 18 -13 18 -13 -1 -24 -19 -11 -19 -11 1
-26 19 -15 19 -17 3 -29 -15 -12 -15 -14 0 -25 16 -10 16 -12 -2 -27 -19 -15
-19 -15 -1 -29 18 -13 18 -13 -1 -24 -19 -11 -19 -11 1 -26 19 -15 19 -17 3
-29 -15 -12 -15 -14 0 -25 16 -10 16 -12 -2 -27 -19 -15 -19 -15 -1 -29 18
-13 18 -13 -1 -24 -19 -11 -19 -11 1 -26 19 -15 19 -16 2 -27 -18 -10 -18 -11
0 -25 17 -13 17 -15 -1 -29 -19 -15 -19 -15 -1 -29 18 -13 18 -13 -1 -24 -19
-11 -19 -11 1 -26 19 -15 19 -16 2 -27 -18 -10 -18 -11 0 -25 17 -13 17 -15 0
-28 -21 -16 -22 -26 -2 -26 20 0 19 -17 -3 -29 -16 -9 -16 -11 3 -25 19 -15
19 -16 2 -27 -18 -10 -18 -11 0 -25 17 -14 17 -14 0 -28 -18 -14 -18 -15 0
-25 17 -11 17 -12 -2 -27 -19 -14 -19 -16 -3 -25 22 -12 23 -29 3 -29 -20 0
-19 -10 2 -26 17 -13 17 -15 1 -28 -22 -16 -23 -26 -3 -26 20 0 19 -17 -3 -29
-16 -9 -16 -11 2 -24 19 -14 19 -14 0 -25 -19 -11 -19 -11 1 -26 19 -15 19
-17 2 -30 -18 -14 -18 -15 0 -25 17 -11 17 -12 -2 -27 -19 -14 -19 -16 -2 -25
21 -12 22 -29 2 -29 -20 0 -19 -10 3 -26 16 -13 16 -15 0 -27 -15 -12 -15 -14
0 -25 16 -10 16 -12 -2 -27 -19 -15 -19 -15 -1 -29 18 -13 18 -13 -1 -24 -19
-11 -19 -11 1 -26 19 -15 19 -17 3 -29 -15 -12 -15 -14 0 -25 16 -10 16 -12
-2 -27 -19 -15 -19 -15 -1 -29 18 -13 18 -13 -1 -24 -19 -11 -19 -11 1 -26 19
-15 19 -17 3 -29 -15 -12 -15 -14 0 -25 16 -10 16 -12 -2 -27 -19 -15 -19 -15
-1 -29 18 -13 18 -13 -1 -24 -19 -11 -19 -11 1 -26 19 -15 19 -17 2 -30 -18
-14 -18 -15 0 -25 17 -11 17 -12 -2 -27 -19 -14 -19 -16 -3 -25 22 -12 23 -29
3 -29 -20 0 -19 -10 2 -26 17 -13 17 -15 0 -28 -16 -12 -16 -15 -1 -27 14 -12
14 -14 -3 -27 -17 -12 -17 -14 -1 -23 22 -12 23 -29 3 -29 -20 0 -19 -10 2
-26 17 -13 17 -15 0 -28 -18 -14 -18 -15 0 -25 17 -11 17 -12 -1 -26 -19 -15
-19 -15 -1 -29 18 -13 18 -13 -1 -24 -19 -11 -19 -11 1 -26 19 -15 19 -17 3
-29 -15 -12 -15 -14 0 -25 16 -10 16 -12 -2 -27 -19 -15 -19 -15 -1 -29 18
-13 18 -13 -1 -24 -19 -11 -19 -11 1 -26 19 -15 19 -17 3 -29 -15 -12 -15 -14
1 -24 13 -8 21 -9 29 -1 8 8 15 8 27 -2 11 -9 19 -10 28 -1 10 8 17 7 25 -1 8
-8 15 -8 27 2 14 12 18 11 25 0 7 -11 11 -11 24 -1 13 11 19 11 31 1 11 -9 19
-10 28 -1 10 8 17 7 25 -1 8 -8 15 -8 27 2 11 10 18 10 29 1 11 -10 16 -9 23
4 9 15 11 15 22 1 8 -9 19 -16 25 -16 6 0 3 5 -7 11 -9 6 -15 15 -12 20 4 5
11 7 16 4 13 -9 11 19 -3 33 -6 6 -8 15 -3 19 4 5 10 2 12 -4 3 -7 11 -13 19
-13 8 0 17 -7 20 -15 6 -14 8 -13 20 2 7 10 13 23 13 28 0 6 -4 2 -10 -8 -13
-23 -31 -11 -24 16 2 12 2 16 -1 10 -8 -18 -34 -16 -34 2 0 8 7 15 15 15 8 0
15 5 15 10 0 6 -7 10 -15 10 -8 0 -15 7 -15 15 0 8 7 15 15 15 8 0 15 -4 15
-10 0 -15 17 -12 23 3 3 9 -6 13 -34 13 -21 0 -39 3 -39 7 0 4 0 12 0 18 0 5
5 7 10 4 6 -3 10 1 10 9 0 9 7 16 15 16 8 0 15 5 15 10 0 6 -6 10 -13 10 -14
0 -41 39 -33 47 3 3 12 0 20 -6 10 -8 16 -9 21 -1 3 5 -1 10 -9 10 -9 0 -16 7
-16 15 0 23 18 18 44 -12 15 -18 25 -23 30 -15 4 7 1 12 -9 12 -17 0 -42 46
-31 58 4 4 13 -1 20 -11 16 -20 23 -22 23 -4 0 7 -11 18 -24 24 -12 6 -23 7
-23 2 0 -14 -18 -11 -39 7 -11 10 -17 23 -14 29 2 7 -2 12 -9 12 -7 -1 -14 2
-15 7 -1 5 -7 12 -14 17 -8 4 -11 10 -8 13 3 3 24 -10 46 -29 38 -32 41 -33
56 -17 13 14 13 20 3 35 -7 9 -18 17 -25 17 -6 0 -11 7 -11 15 0 8 6 15 13 15
8 0 14 7 14 15 0 13 -3 13 -19 -2 -10 -9 -21 -14 -24 -10 -9 8 27 58 37 51 5
-3 9 1 9 10 0 8 6 16 13 19 9 4 9 7 0 18 -11 11 -13 10 -13 -4 0 -9 -7 -17
-15 -17 -20 0 -19 20 2 36 16 12 16 13 1 14 -9 0 -18 -5 -20 -12 -3 -7 -13 -5
-32 7 -17 12 -24 21 -17 28 11 11 34 0 26 -14 -4 -5 -1 -9 5 -9 6 0 13 7 16
15 7 18 30 20 38 3 5 -10 7 -10 12 0 3 6 12 12 20 12 8 0 14 5 14 10 0 7 -6 7
-20 0 -12 -7 -27 -7 -37 -2 -10 5 -24 7 -31 5 -6 -3 -12 0 -12 6 0 6 5 11 10
11 6 0 10 7 10 16 0 8 -4 13 -9 9 -5 -3 -12 -1 -15 4 -4 5 -1 13 5 17 7 4 22
-4 35 -19 20 -24 23 -25 36 -10 8 11 9 14 1 10 -16 -10 -56 30 -49 49 3 9 12
12 18 9 7 -4 5 0 -4 8 -22 17 -23 37 -3 37 8 0 15 -7 15 -16 0 -8 4 -13 9 -9
6 3 14 -2 19 -11 6 -10 12 -12 16 -6 3 5 -1 12 -9 16 -8 3 -15 13 -15 21 0 9
-4 14 -9 10 -5 -3 -12 -1 -16 5 -3 5 -1 10 4 10 6 0 11 8 10 18 0 10 -3 12 -6
5 -7 -18 -33 -16 -33 1 0 8 -6 16 -12 19 -7 2 -10 8 -5 12 4 5 13 3 19 -3 15
-15 28 -16 28 -2 0 6 -7 10 -15 10 -8 0 -15 7 -15 15 0 18 27 20 33 3 2 -7 8
-10 12 -6 9 8 -18 38 -35 38 -6 0 -10 8 -8 17 2 10 10 17 16 15 7 -1 12 5 12
13 0 9 -6 12 -15 9 -9 -4 -15 0 -15 9 0 24 22 32 35 13 11 -15 13 -15 19 -1 3
9 2 13 -4 10 -6 -3 -13 1 -16 10 -4 9 -13 14 -20 11 -9 -3 -14 2 -14 14 0 11
7 20 15 20 8 0 15 5 15 10 0 6 -7 10 -15 10 -16 0 -21 25 -6 35 6 3 13 0 18
-7 4 -7 17 -20 28 -28 19 -14 19 -14 5 5 -8 11 -21 25 -29 31 -17 13 2 29 21
18 9 -6 9 -3 0 9 -13 15 -16 14 -37 -11 -19 -21 -26 -24 -36 -15 -10 10 -9 14
4 19 20 7 22 30 5 37 -7 2 -10 8 -6 12 4 4 14 2 23 -5 13 -10 19 -8 36 14 11
14 25 26 30 26 14 0 11 -28 -3 -33 -7 -2 -10 -7 -7 -11 3 -3 23 10 43 29 21
19 44 35 51 35 9 0 12 6 9 15 -4 8 -1 15 6 15 6 0 10 -8 9 -17 -3 -32 1 -44
11 -38 5 3 10 1 10 -6 0 -10 3 -10 11 -2 6 6 17 9 24 7 7 -3 19 8 26 25 15 34
24 38 32 17 10 -27 54 -48 74 -38 11 6 25 7 35 1 11 -6 23 -3 39 10 23 19 24
19 61 -3 l37 -21 23 23 c20 20 23 32 23 107 0 73 -3 87 -22 106 -24 25 -50 20
-61 -11 -7 -19 -9 -19 -40 10 -19 17 -38 28 -43 24 -14 -8 -119 -13 -119 -5 0
4 -9 7 -19 7 -11 0 -18 -3 -16 -6 2 -3 -7 -18 -20 -34 l-23 -28 -18 30 c-21
37 -51 46 -81 27 -26 -17 -43 -19 -43 -5 0 5 8 6 17 3 14 -5 13 -2 -4 16 -15
16 -27 21 -42 16 -15 -4 -21 -2 -21 8 0 9 6 17 12 20 8 2 9 8 4 13 -5 5 -11 4
-13 -3 -6 -16 -33 -17 -33 -2 0 6 10 19 22 29 18 14 26 16 38 7 13 -10 13 -10
1 6 -11 14 -11 20 -1 32 9 10 9 15 1 15 -6 0 -11 -5 -11 -11 0 -7 -7 -8 -17
-4 -10 4 -27 8 -38 7 -11 0 -14 2 -7 5 16 6 16 40 0 46 -7 2 -10 8 -6 12 4 4
15 2 24 -5 13 -11 17 -11 24 0 7 12 11 12 25 0 14 -12 18 -12 26 1 5 8 8 19 8
24 0 6 -3 4 -6 -2 -7 -19 -30 -16 -42 5 -10 16 -10 16 -11 0 0 -23 -16 -23
-41 1 -22 20 -9 41 14 23 8 -7 18 -6 31 4 18 13 19 15 2 33 -17 18 -17 20 1
30 17 9 17 10 -1 24 -16 12 -17 16 -5 23 18 12 64 64 57 64 -4 0 -20 -13 -36
-30 -33 -32 -52 -38 -52 -16 0 8 -6 16 -12 19 -7 2 -10 7 -6 11 3 4 15 3 25
-2 15 -8 22 -6 31 9 7 11 8 19 2 19 -5 0 -10 -4 -10 -10 0 -5 -7 -10 -15 -10
-8 0 -15 6 -15 14 0 8 -6 16 -12 19 -8 2 -9 8 -4 13 5 5 11 4 13 -3 5 -15 33
-17 33 -3 0 6 -7 10 -15 10 -8 0 -15 7 -15 15 0 8 7 15 15 15 8 0 15 -4 15 -9
0 -5 7 -11 14 -14 10 -4 13 -1 10 8 -3 7 0 15 8 18 7 2 4 3 -8 1 -19 -3 -54
26 -54 46 0 6 -4 10 -10 10 -5 0 -10 7 -10 15 0 8 -6 12 -14 9 -28 -11 -25 13
4 35 17 12 30 27 30 35 0 7 11 19 24 26 14 7 27 19 30 27 3 8 1 11 -4 8 -10
-6 -50 29 -50 45 0 6 7 10 15 10 8 0 15 -7 15 -16 0 -8 5 -12 11 -9 7 5 4 14
-7 26 -16 18 -18 18 -36 3 -17 -16 -18 -16 -18 -1 0 10 5 17 10 17 6 0 10 7
10 15 0 7 7 18 16 23 15 8 15 10 0 15 -9 4 -16 13 -16 22 0 8 -6 15 -14 15 -8
0 -13 -8 -12 -17 0 -10 -5 -18 -13 -18 -25 0 -23 22 4 39 20 13 28 14 45 4 11
-7 20 -18 20 -24 0 -7 7 -14 15 -18 13 -5 13 -2 -1 19 -17 26 -12 41 18 63 17
12 16 15 -13 39 -30 25 -30 27 -13 41 18 13 17 14 -6 7 -14 -4 -29 -15 -34
-23 -5 -9 -20 -26 -33 -38 l-23 -22 22 -5 c19 -5 20 -9 10 -19 -11 -11 -16 -9
-28 6 -16 23 -18 36 -4 36 5 0 7 7 4 15 -4 10 0 15 15 15 12 0 21 6 21 15 0 8
5 15 10 15 6 0 10 7 10 16 0 11 6 15 18 12 13 -4 17 2 18 21 1 14 -1 20 -3 14
-7 -18 -33 -16 -33 2 0 8 7 15 16 15 8 0 12 5 9 10 -4 6 -11 8 -16 5 -5 -4 -9
3 -9 14 0 12 -4 21 -10 21 -5 0 -10 7 -10 15 0 13 4 13 28 -2 l27 -17 -18 21
c-11 13 -16 27 -11 34 5 9 2 10 -9 6 -11 -4 -17 -1 -17 8 0 8 -9 15 -20 15
-22 0 -27 15 -8 26 6 4 27 -10 49 -34 21 -22 41 -37 44 -31 4 5 1 9 -4 9 -15
0 -14 27 0 32 9 3 8 10 -2 25 -10 17 -17 20 -32 11 -10 -5 -22 -6 -25 -2 -4 4
-1 9 6 11 6 3 12 11 12 19 0 8 7 14 15 14 8 0 14 6 13 13 -2 6 5 11 14 11 20
-2 13 22 -9 30 -14 6 -13 9 3 27 16 17 16 22 4 30 -12 7 -13 11 -2 18 11 7 12
12 1 29 -10 17 -10 23 4 37 22 21 21 25 -2 25 -10 0 -18 -6 -17 -12 0 -7 -3
-13 -9 -13 -5 0 -9 6 -9 13 1 6 -6 12 -15 12 -10 0 -17 -8 -17 -20 0 -11 6
-20 13 -20 7 0 13 -4 13 -10 0 -5 7 -10 15 -10 8 0 15 -7 15 -15 0 -8 -7 -15
-15 -15 -8 0 -15 6 -15 14 0 14 -27 31 -43 27 -5 -1 -6 3 -2 9 3 5 1 10 -4 10
-6 0 -11 -6 -11 -12 0 -10 -2 -10 -9 0 -4 7 -14 12 -22 10 -8 -2 -13 4 -13 15
1 10 -5 17 -16 17 -10 0 -17 -6 -16 -12 0 -7 -3 -13 -9 -13 -5 0 -9 6 -9 13 1
6 -6 12 -16 12 -11 0 -17 -7 -16 -17 0 -10 -6 -18 -14 -18 -8 0 -14 8 -14 18
1 9 -4 17 -11 17 -7 0 -12 -8 -11 -17 0 -10 -6 -18 -14 -18 -8 0 -14 8 -14 18
1 10 -5 17 -16 17 -10 0 -17 -7 -16 -16 0 -9 -5 -19 -11 -21 -8 -3 -13 4 -13
16 0 12 -6 21 -14 21 -8 0 -13 -8 -12 -17 0 -10 -6 -18 -14 -18 -8 0 -14 8
-14 18 1 9 -4 17 -12 17 -8 0 -11 -6 -8 -15z m54 -61 c0 -17 -26 -19 -36 -3
-7 12 15 31 28 23 4 -3 8 -12 8 -20z m340 -24 c0 -5 7 -10 15 -10 8 0 15 -7
15 -15 0 -8 -7 -15 -15 -15 -8 0 -15 7 -15 15 0 8 -4 15 -10 15 -5 0 -10 5
-10 10 0 6 5 10 10 10 6 0 10 -4 10 -10z m-340 -24 c0 -8 -4 -17 -8 -20 -13
-8 -35 11 -28 23 10 16 36 14 36 -3z m103 7 c9 -9 -13 -34 -24 -27 -14 8 -11
34 4 34 8 0 17 -3 20 -7z m267 -62 c0 -4 -10 -15 -21 -25 -15 -13 -24 -15 -32
-7 -8 8 -6 11 6 11 10 0 17 8 17 20 0 11 -4 20 -10 20 -5 0 -10 5 -10 10 0 6
11 3 25 -6 14 -9 25 -19 25 -23z m-374 8 c10 -17 -13 -36 -27 -22 -12 12 -4
33 11 33 5 0 12 -5 16 -11z m108 3 c2 -4 1 -14 -4 -22 -7 -11 -12 -12 -21 -3
-6 6 -8 16 -5 22 8 13 23 14 30 3z m52 -3 c10 -17 -13 -36 -27 -22 -12 12 -4
33 11 33 5 0 12 -5 16 -11z m110 0 c10 -17 -13 -36 -27 -22 -12 12 -4 33 11
33 5 0 12 -5 16 -11z m50 0 c10 -17 -13 -36 -27 -22 -12 12 -4 33 11 33 5 0
12 -5 16 -11z m-15 -48 c15 -14 17 -21 8 -26 -11 -8 -39 19 -39 37 0 13 9 9
31 -11z m-303 -14 c2 -10 -3 -17 -12 -17 -18 0 -29 16 -21 31 9 14 29 6 33
-14z m106 -8 c-8 -14 -34 -11 -34 4 0 8 3 17 7 20 9 9 34 -13 27 -24z m56 5
c0 -14 -21 -19 -33 -7 -9 9 13 34 24 27 5 -3 9 -12 9 -20z m-160 -49 c0 -8 -9
-15 -20 -15 -20 0 -26 11 -13 23 12 13 33 7 33 -8z m-4 -46 c10 -17 -13 -36
-27 -22 -12 12 -4 33 11 33 5 0 12 -5 16 -11z m54 -9 c0 -11 -7 -20 -15 -20
-8 0 -15 9 -15 20 0 11 7 20 15 20 8 0 15 -9 15 -20z m54 12 c2 -4 1 -14 -4
-22 -7 -11 -12 -12 -21 -3 -6 6 -8 16 -5 22 8 13 23 14 30 3z m52 -3 c10 -17
-13 -36 -27 -22 -12 12 -4 33 11 33 5 0 12 -5 16 -11z m114 -9 c0 -5 -5 -12
-11 -16 -14 -8 -33 11 -25 25 7 11 36 4 36 -9z m46 9 c4 -7 -3 -19 -16 -29
-22 -17 -22 -17 -2 -22 11 -3 25 -15 31 -27 10 -17 9 -21 -5 -21 -10 0 -14 5
-11 14 4 10 1 13 -8 10 -7 -3 -19 4 -26 17 -9 17 -9 24 0 27 6 2 9 8 5 13 -6
11 3 29 16 29 5 0 12 -5 16 -11z m-318 -62 c2 -10 -3 -17 -12 -17 -18 0 -29
16 -21 31 9 14 29 6 33 -14z m106 8 c3 -9 -1 -18 -10 -22 -19 -7 -28 2 -21 22
8 19 23 19 31 0z m54 -8 c2 -10 -3 -17 -12 -17 -18 0 -29 16 -21 31 9 14 29 6
33 -14z m106 -8 c-8 -14 -34 -11 -34 4 0 8 3 17 7 20 9 9 34 -13 27 -24z
m-264 -44 c0 -8 -9 -15 -20 -15 -20 0 -26 11 -13 23 12 13 33 7 33 -8z m340
-25 c0 -5 -7 -10 -16 -10 -8 0 -12 -5 -9 -10 7 -12 -23 -26 -33 -16 -4 4 4 16
18 26 28 22 40 25 40 10z m-344 -21 c10 -17 -13 -36 -27 -22 -12 12 -4 33 11
33 5 0 12 -5 16 -11z m108 3 c2 -4 1 -14 -4 -22 -7 -11 -12 -12 -21 -3 -6 6
-8 16 -5 22 8 13 23 14 30 3z m52 -3 c3 -6 1 -16 -5 -22 -9 -9 -14 -8 -21 3
-9 15 -4 30 10 30 5 0 12 -5 16 -11z m-156 -65 c0 -17 -26 -19 -36 -3 -7 12
15 31 28 23 4 -3 8 -12 8 -20z m104 -5 c-8 -14 -34 -11 -34 4 0 8 3 17 7 20 9
9 34 -13 27 -24z m276 4 c24 -21 26 -33 5 -33 -8 0 -15 5 -15 10 0 6 -7 10
-15 10 -8 0 -15 -4 -15 -10 0 -5 7 -10 15 -10 8 0 15 -7 15 -15 0 -8 -7 -15
-15 -15 -8 0 -15 6 -15 14 0 8 -6 17 -12 20 -10 5 -10 7 0 12 6 3 12 12 12 20
0 19 15 18 40 -3z m-115 -44 c4 -6 -2 -13 -14 -16 -11 -3 -18 -9 -15 -15 3 -5
15 -6 27 -3 12 2 17 2 10 -1 -7 -3 -10 -11 -7 -18 3 -8 -2 -16 -10 -19 -17 -7
-30 8 -21 22 3 5 1 12 -4 15 -13 8 -1 46 15 46 7 0 16 -5 19 -11z m-265 -53
c0 -8 -5 -18 -11 -22 -14 -8 -33 11 -25 25 10 16 36 13 36 -3z m104 6 c2 -4 1
-14 -4 -22 -7 -11 -12 -12 -21 -3 -6 6 -8 16 -5 22 8 13 23 14 30 3z m52 -3
c3 -6 1 -16 -5 -22 -9 -9 -14 -8 -21 3 -9 15 -4 30 10 30 5 0 12 -5 16 -11z
m54 -2 c0 -8 -3 -17 -7 -20 -9 -9 -34 13 -27 24 8 14 34 11 34 -4z m135 -27
c6 -9 -8 -15 -29 -11 -5 1 -6 -5 -3 -13 9 -23 -14 -31 -30 -11 -7 11 -13 24
-13 29 0 6 5 4 10 -4 8 -13 11 -13 27 3 20 19 29 21 38 7z m-105 -16 c0 5 7 3
15 -4 8 -7 13 -16 10 -20 -3 -5 1 -11 7 -13 10 -4 10 -6 1 -6 -16 -1 -53 35
-53 52 0 8 4 7 10 -3 5 -8 10 -11 10 -6z m-242 -17 c2 -10 -3 -17 -12 -17 -18
0 -29 16 -21 31 9 14 29 6 33 -14z m50 0 c2 -10 -3 -17 -12 -17 -10 0 -16 9
-16 21 0 24 23 21 28 -4z m55 8 c8 -18 -11 -31 -25 -17 -11 11 -3 32 12 32 4
0 10 -7 13 -15z m53 4 c8 -14 -11 -33 -25 -25 -11 7 -4 36 9 36 5 0 12 -5 16
-11z m-156 -64 c0 -8 -9 -15 -20 -15 -11 0 -20 7 -20 15 0 8 9 15 20 15 11 0
20 -7 20 -15z m324 -4 c10 -11 15 -25 11 -31 -10 -16 -25 -2 -18 17 4 11 3 14
-5 9 -15 -9 -34 2 -27 15 9 14 20 11 39 -10z m-328 -42 c10 -17 -13 -36 -27
-22 -12 12 -4 33 11 33 5 0 12 -5 16 -11z m108 3 c8 -13 -11 -35 -23 -28 -16
10 -14 36 3 36 8 0 17 -4 20 -8z m52 -3 c10 -17 -13 -36 -27 -22 -12 12 -4 33
11 33 5 0 12 -5 16 -11z m160 0 c3 -6 2 -15 -2 -19 -12 -12 -38 5 -30 19 9 14
23 14 32 0z m12 -51 c-17 -26 -43 -31 -43 -8 0 8 8 14 17 14 10 -1 15 2 12 7
-3 5 2 9 12 9 15 0 15 -2 2 -22z m-330 -11 c2 -10 -3 -17 -12 -17 -18 0 -29
16 -21 31 9 14 29 6 33 -14z m102 3 c0 -11 -7 -20 -15 -20 -15 0 -21 21 -8 33
12 13 23 7 23 -13z m56 9 c10 -17 -13 -36 -27 -22 -12 12 -4 33 11 33 5 0 12
-5 16 -11z m52 -12 c2 -10 -3 -17 -12 -17 -10 0 -16 9 -16 21 0 24 23 21 28
-4z m62 3 c0 -5 -5 -12 -11 -16 -14 -8 -33 11 -25 25 7 11 36 4 36 -9z m3 -32
c-4 -7 -8 -17 -8 -23 0 -5 -8 -11 -17 -13 -39 -7 -15 29 30 47 2 0 0 -5 -5
-11z m-273 -24 c0 -8 -9 -14 -20 -14 -22 0 -28 26 -7 33 16 6 27 -1 27 -19z
m315 -48 c25 -24 26 -26 10 -49 -16 -26 -44 -42 -53 -32 -3 3 0 5 6 5 6 0 9 7
6 15 -4 10 0 15 15 15 12 0 21 6 21 15 0 9 -9 15 -21 15 -14 0 -19 5 -16 14 3
8 1 17 -6 20 -9 3 -9 5 0 5 7 1 24 -10 38 -23z m-315 0 c0 -8 -5 -18 -11 -22
-14 -8 -33 11 -25 25 10 16 36 13 36 -3z m103 7 c9 -9 -13 -34 -24 -27 -14 8
-11 34 4 34 8 0 17 -3 20 -7z m-105 -66 c2 -10 -3 -17 -12 -17 -18 0 -29 16
-21 31 9 14 29 6 33 -14z m106 8 c3 -9 -1 -18 -10 -22 -19 -7 -28 2 -21 22 8
19 23 19 31 0z m-104 -61 c0 -9 -7 -14 -17 -12 -25 5 -28 28 -4 28 12 0 21 -6
21 -16z m268 4 c-2 -6 -13 -15 -25 -19 -17 -6 -20 -4 -16 12 3 11 14 19 25 19
11 0 18 -5 16 -12z m-268 -52 c0 -8 -5 -18 -11 -22 -14 -8 -33 11 -25 25 10
16 36 13 36 -3z m355 -36 c18 -20 18 -21 -2 -41 -20 -20 -22 -20 -47 -4 -28
18 -30 40 -5 40 8 0 13 -8 13 -17 -1 -11 5 -18 17 -18 21 0 16 25 -7 34 -9 3
-12 10 -9 16 9 15 20 12 40 -10z m-359 -11 c10 -17 -13 -36 -27 -22 -12 12 -4
33 11 33 5 0 12 -5 16 -11z m52 -12 c2 -10 -3 -17 -12 -17 -10 0 -16 9 -16 21
0 24 23 21 28 -4z m55 8 c8 -18 -11 -31 -25 -17 -11 11 -3 32 12 32 4 0 10 -7
13 -15z m53 4 c10 -17 -13 -36 -27 -22 -12 12 -4 33 11 33 5 0 12 -5 16 -11z
m-156 -65 c0 -9 -7 -14 -17 -12 -25 5 -28 28 -4 28 12 0 21 -6 21 -16z m0 -48
c0 -8 -5 -18 -11 -22 -14 -8 -33 11 -25 25 10 16 36 13 36 -3z m103 7 c9 -9
-13 -34 -24 -27 -14 8 -11 34 4 34 8 0 17 -3 20 -7z m192 -47 c18 7 30 -15 15
-29 -9 -9 -14 -8 -24 5 -7 10 -16 15 -19 11 -11 -10 -8 -25 3 -18 6 3 10 1 10
-4 0 -15 -12 -14 -35 2 -20 15 -12 42 11 33 8 -3 14 0 15 7 0 9 2 9 5 0 3 -7
11 -10 19 -7z m-299 -7 c10 -17 -13 -36 -27 -22 -12 12 -4 33 11 33 5 0 12 -5
16 -11z m54 -9 c0 -11 -7 -20 -15 -20 -8 0 -15 9 -15 20 0 11 7 20 15 20 8 0
15 -9 15 -20z m54 12 c2 -4 1 -14 -4 -22 -7 -11 -12 -12 -21 -3 -6 6 -8 16 -5
22 8 13 23 14 30 3z m52 -3 c10 -17 -13 -36 -27 -22 -12 12 -4 33 11 33 5 0
12 -5 16 -11z m-156 -65 c0 -17 -26 -19 -36 -3 -7 12 15 31 28 23 4 -3 8 -12
8 -20z m104 -5 c-8 -14 -34 -11 -34 4 0 8 3 17 7 20 9 9 34 -13 27 -24z m218
4 c20 -18 24 -33 8 -33 -5 0 -10 6 -10 14 0 8 -7 13 -16 12 -9 0 -19 5 -21 12
-7 17 17 15 39 -5z m-322 -48 c0 -8 -9 -15 -20 -15 -20 0 -26 11 -13 23 12 13
33 7 33 -8z m325 -11 c17 -26 15 -41 -4 -29 -6 3 -9 11 -6 16 4 5 -1 9 -9 9
-21 0 -21 -16 0 -24 27 -11 9 -30 -30 -32 -39 -1 -55 11 -38 28 8 8 16 7 27
-2 17 -14 16 -15 20 25 3 36 3 35 14 35 5 0 16 -12 26 -26z m-329 -35 c10 -17
-13 -36 -27 -22 -12 12 -4 33 11 33 5 0 12 -5 16 -11z m54 -9 c0 -11 -7 -20
-15 -20 -8 0 -15 9 -15 20 0 11 7 20 15 20 8 0 15 -9 15 -20z m56 9 c10 -17
-13 -36 -27 -22 -12 12 -4 33 11 33 5 0 12 -5 16 -11z m50 0 c10 -17 -13 -36
-27 -22 -12 12 -4 33 11 33 5 0 12 -5 16 -11z m-156 -65 c0 -17 -26 -19 -36
-3 -7 12 15 31 28 23 4 -3 8 -12 8 -20z m210 6 c0 -5 -4 -10 -10 -10 -15 0
-12 -40 3 -41 10 0 10 -2 0 -6 -7 -2 -13 -13 -13 -23 0 -10 6 -21 13 -24 10
-5 10 -7 0 -12 -7 -3 -13 -12 -13 -20 0 -10 12 -14 40 -14 29 0 40 -4 40 -15
0 -12 -13 -15 -55 -15 l-55 0 0 95 c0 95 0 95 25 95 14 0 25 -4 25 -10z m211
-75 c15 -44 33 -81 39 -83 14 -5 2 -22 -15 -22 -8 0 -17 11 -21 25 -5 21 -12
25 -45 25 -33 0 -41 -4 -49 -25 -5 -14 -13 -25 -18 -25 -15 0 -22 13 -13 24 7
9 42 104 57 154 2 8 11 12 21 10 11 -2 26 -31 44 -83z m110 10 c13 -41 26 -75
29 -75 3 0 16 34 29 75 14 43 31 75 38 75 18 0 17 -4 -20 -100 -20 -50 -39
-85 -47 -85 -9 0 -27 34 -47 85 -37 98 -37 100 -20 100 7 0 24 -32 38 -75z
m169 -20 c0 -78 -3 -95 -15 -95 -12 0 -15 17 -15 95 0 78 3 95 15 95 12 0 15
-17 15 -95z m113 28 l42 -68 3 68 c2 51 6 67 17 67 12 0 15 -19 15 -95 0 -69
-3 -95 -12 -95 -7 0 -34 33 -60 73 l-48 72 0 -72 c0 -58 -3 -73 -15 -73 -12 0
-15 17 -15 95 0 119 13 124 73 28z m-813 2 c0 -8 -9 -15 -20 -15 -20 0 -26 11
-13 23 12 13 33 7 33 -8z m0 -49 c0 -8 -5 -18 -11 -22 -14 -8 -33 11 -25 25
10 16 36 13 36 -3z m104 6 c8 -13 -11 -35 -23 -28 -16 10 -14 36 3 36 8 0 17
-4 20 -8z m-104 -68 c0 -17 -26 -19 -36 -3 -7 12 15 31 28 23 4 -3 8 -12 8
-20z m0 -47 c0 -8 -3 -17 -7 -20 -9 -9 -34 13 -27 24 8 14 34 11 34 -4z m0
-51 c0 -8 -5 -18 -11 -22 -14 -8 -33 11 -25 25 10 16 36 13 36 -3z m104 6 c2
-4 1 -14 -4 -22 -7 -11 -12 -12 -21 -3 -6 6 -8 16 -5 22 8 13 23 14 30 3z m52
-3 c3 -6 1 -16 -5 -22 -9 -9 -14 -8 -21 3 -9 15 -4 30 10 30 5 0 12 -5 16 -11z
m52 -6 c-5 -25 -28 -28 -28 -4 0 12 6 21 16 21 9 0 14 -7 12 -17z m56 9 c2 -4
1 -14 -4 -22 -7 -11 -12 -12 -21 -3 -6 6 -8 16 -5 22 8 13 23 14 30 3z m52 -3
c10 -17 -13 -36 -27 -22 -12 12 -4 33 11 33 5 0 12 -5 16 -11z m-318 -62 c2
-10 -3 -17 -12 -17 -18 0 -29 16 -21 31 9 14 29 6 33 -14z m106 8 c3 -9 -1
-18 -10 -22 -19 -7 -28 2 -21 22 8 19 23 19 31 0z m52 4 c8 -14 -11 -33 -25
-25 -11 7 -4 36 9 36 5 0 12 -5 16 -11z m114 -9 c0 -5 -5 -12 -11 -16 -14 -8
-33 11 -25 25 7 11 36 4 36 -9z m54 -9 c17 -19 17 -21 -3 -42 -17 -18 -24 -20
-33 -11 -10 10 -8 14 10 18 12 4 22 13 22 21 0 13 -3 13 -25 -1 -14 -9 -25
-12 -25 -6 0 5 4 10 10 10 5 0 7 7 4 15 -9 22 19 19 40 -4z m-324 -46 c0 -8
-9 -15 -20 -15 -20 0 -26 11 -13 23 12 13 33 7 33 -8z m309 -68 c-10 -18 -12
-19 -21 -4 -5 10 -6 22 -3 27 3 6 1 10 -4 10 -6 0 -11 5 -11 10 0 6 11 3 25
-6 21 -14 23 -19 14 -37z m-313 22 c10 -17 -13 -36 -27 -22 -12 12 -4 33 11
33 5 0 12 -5 16 -11z m52 -6 c-5 -25 -28 -28 -28 -4 0 12 6 21 16 21 9 0 14
-7 12 -17z m56 9 c2 -4 1 -14 -4 -22 -7 -11 -12 -12 -21 -3 -6 6 -8 16 -5 22
8 13 23 14 30 3z m52 -3 c3 -6 1 -16 -5 -22 -9 -9 -14 -8 -21 3 -9 15 -4 30
10 30 5 0 12 -5 16 -11z m109 -10 c0 -8 -10 -15 -22 -15 -19 -1 -21 2 -12 18
11 21 34 19 34 -3z m75 -31 c0 -5 -7 -7 -16 -4 -15 6 -15 4 0 -18 19 -29 20
-36 6 -36 -5 0 -10 7 -10 15 0 8 -6 12 -14 9 -25 -10 -28 16 -4 35 23 19 38
19 38 -1z m-342 -21 c2 -10 -3 -17 -12 -17 -18 0 -29 16 -21 31 9 14 29 6 33
-14z m106 8 c3 -9 -1 -18 -10 -22 -19 -7 -28 2 -21 22 8 19 23 19 31 0z m52 4
c8 -14 -11 -33 -25 -25 -11 7 -4 36 9 36 5 0 12 -5 16 -11z m114 -9 c0 -5 -5
-12 -11 -16 -14 -8 -33 11 -25 25 7 11 36 4 36 -9z m-17 -43 c10 -4 15 -11 12
-17 -8 -13 -35 -13 -35 -1 0 5 -3 18 -6 28 -3 11 -2 14 3 7 4 -6 16 -13 26
-17z m-253 -12 c0 -8 -9 -15 -20 -15 -20 0 -26 11 -13 23 12 13 33 7 33 -8z
m0 -49 c0 -8 -5 -18 -11 -22 -14 -8 -33 11 -25 25 10 16 36 13 36 -3z m103 7
c9 -9 -13 -34 -24 -27 -14 8 -11 34 4 34 8 0 17 -3 20 -7z m-105 -66 c2 -10
-3 -17 -12 -17 -18 0 -29 16 -21 31 9 14 29 6 33 -14z m106 8 c3 -9 -1 -18
-10 -22 -19 -7 -28 2 -21 22 8 19 23 19 31 0z m52 4 c8 -14 -11 -33 -25 -25
-11 7 -4 36 9 36 5 0 12 -5 16 -11z m184 -37 c0 -5 -9 -17 -20 -27 -15 -14
-23 -15 -34 -6 -10 8 -16 9 -21 1 -9 -15 -35 -12 -35 5 0 11 11 14 45 11 33
-2 45 1 45 11 0 7 5 13 10 13 6 0 10 -4 10 -8z m-340 -27 c0 -8 -9 -15 -20
-15 -11 0 -20 7 -20 15 0 8 9 15 20 15 11 0 20 -7 20 -15z m217 -10 c6 -14 7
-25 2 -25 -5 0 -9 5 -9 10 0 6 -7 10 -15 10 -8 0 -15 7 -15 15 0 24 24 17 37
-10z m100 -49 c-5 -16 -32 -13 -32 4 0 8 -4 21 -9 29 -5 8 1 7 18 -4 15 -10
25 -23 23 -29z m-321 13 c10 -17 -13 -36 -27 -22 -12 12 -4 33 11 33 5 0 12
-5 16 -11z m54 -9 c0 -11 -7 -20 -15 -20 -8 0 -15 9 -15 20 0 11 7 20 15 20 8
0 15 -9 15 -20z m53 5 c8 -18 -11 -31 -25 -17 -11 11 -3 32 12 32 4 0 10 -7
13 -15z m53 4 c10 -17 -13 -36 -27 -22 -12 12 -4 33 11 33 5 0 12 -5 16 -11z
m104 -7 c0 -10 6 -24 13 -32 10 -12 9 -12 -5 -1 -10 7 -25 11 -33 7 -9 -3 -14
-2 -12 2 2 4 7 15 10 25 8 22 27 22 27 -1z m-260 -58 c0 -17 -26 -19 -36 -3
-7 12 15 31 28 23 4 -3 8 -12 8 -20z m50 0 c0 -14 -21 -19 -33 -7 -9 9 13 34
24 27 5 -3 9 -12 9 -20z m54 -5 c-8 -14 -34 -11 -34 4 0 8 3 17 7 20 9 9 34
-13 27 -24z m-104 -44 c0 -8 -9 -15 -20 -15 -20 0 -26 11 -13 23 12 13 33 7
33 -8z m340 -25 c0 -6 -9 -21 -20 -32 -16 -18 -23 -19 -33 -9 -9 10 -7 16 13
31 28 22 40 25 40 10z m-344 -21 c10 -17 -13 -36 -27 -22 -12 12 -4 33 11 33
5 0 12 -5 16 -11z m52 -6 c-5 -25 -28 -28 -28 -4 0 12 6 21 16 21 9 0 14 -7
12 -17z m58 6 c10 -17 -13 -36 -27 -22 -12 12 -4 33 11 33 5 0 12 -5 16 -11z
m50 0 c10 -17 -13 -36 -27 -22 -12 12 -4 33 11 33 5 0 12 -5 16 -11z m110 0
c10 -17 -13 -36 -27 -22 -12 12 -4 33 11 33 5 0 12 -5 16 -11z m-268 -62 c2
-10 -3 -17 -12 -17 -18 0 -29 16 -21 31 9 14 29 6 33 -14z m272 3 c0 -6 -12
-15 -26 -20 -14 -6 -28 -19 -31 -30 -7 -25 -29 -26 -35 -2 -4 14 0 18 16 18
13 -1 25 8 31 22 10 22 45 31 45 12z m83 -34 c21 -16 22 -36 2 -36 -8 0 -15 7
-15 15 0 8 -4 15 -10 15 -5 0 -10 5 -10 10 0 13 11 12 33 -4z m-353 -21 c0 -8
-9 -15 -20 -15 -20 0 -26 11 -13 23 12 13 33 7 33 -8z m270 -6 c7 -11 9 -23 6
-27 -3 -3 -6 0 -6 6 0 7 -9 12 -20 12 -11 0 -20 7 -20 15 0 22 28 18 40 -6z
m0 -49 c0 -6 -9 -10 -19 -10 -13 0 -19 6 -18 19 1 16 5 18 19 10 10 -5 18 -14
18 -19z m-270 6 c0 -8 -5 -18 -11 -22 -14 -8 -33 11 -25 25 10 16 36 13 36 -3z
m104 6 c2 -4 1 -14 -4 -22 -7 -11 -12 -12 -21 -3 -6 6 -8 16 -5 22 8 13 23 14
30 3z m52 -3 c3 -6 2 -15 -2 -19 -12 -12 -38 5 -30 19 9 14 23 14 32 0z m169
-13 l23 -25 -25 -23 c-24 -23 -25 -23 -39 -4 -17 23 -18 36 -3 36 5 0 7 -4 4
-10 -3 -5 2 -10 13 -10 10 0 19 7 19 15 0 8 -9 15 -19 15 -18 0 -24 11 -11 23
10 11 14 9 38 -17z m-327 -49 c2 -10 -3 -17 -12 -17 -18 0 -29 16 -21 31 9 14
29 6 33 -14z m106 -8 c-8 -14 -34 -11 -34 4 0 8 3 17 7 20 9 9 34 -13 27 -24z
m161 -50 c-11 -17 -35 -9 -35 11 0 18 3 19 20 10 11 -6 18 -15 15 -21z m75
-16 c-1 -5 -10 -19 -21 -32 -14 -17 -23 -21 -31 -13 -13 13 0 35 18 28 8 -3
13 -2 13 2 -2 15 1 22 11 22 6 0 10 -3 10 -7z m-340 -27 c0 -8 -5 -18 -11 -22
-14 -8 -33 11 -25 25 10 16 36 13 36 -3z m104 6 c8 -13 -11 -35 -23 -28 -16
10 -14 36 3 36 8 0 17 -4 20 -8z m52 -3 c3 -6 1 -16 -5 -22 -9 -9 -14 -8 -21
3 -9 15 -4 30 10 30 5 0 12 -5 16 -11z m-158 -62 c2 -10 -3 -17 -12 -17 -18 0
-29 16 -21 31 9 14 29 6 33 -14z m106 8 c3 -9 -1 -18 -10 -22 -19 -7 -28 2
-21 22 8 19 23 19 31 0z m52 4 c8 -14 -11 -33 -25 -25 -11 7 -4 36 9 36 5 0
12 -5 16 -11z m172 -20 c12 -18 10 -24 -14 -45 -25 -24 -25 -26 -9 -38 20 -15
12 -38 -10 -29 -10 3 -15 -1 -16 -13 -1 -18 -2 -18 -6 -1 -5 21 -35 19 -45 -3
-6 -13 -7 -13 -7 1 -1 8 6 24 14 35 14 18 16 18 29 1 11 -15 15 -15 19 -3 3 8
2 16 -2 18 -14 5 7 48 24 48 8 0 15 7 15 15 0 12 -4 13 -18 6 -14 -8 -18 -6
-19 10 -2 26 29 25 45 -2z m-328 -44 c0 -8 -9 -15 -20 -15 -11 0 -20 7 -20 15
0 8 9 15 20 15 11 0 20 -7 20 -15z m0 -49 c0 -8 -5 -18 -11 -22 -14 -8 -33 11
-25 25 10 16 36 13 36 -3z m104 6 c8 -13 -11 -35 -23 -28 -16 10 -14 36 3 36
8 0 17 -4 20 -8z m52 -3 c3 -6 1 -16 -5 -22 -9 -9 -14 -8 -21 3 -9 15 -4 30
10 30 5 0 12 -5 16 -11z"/>
<path d="M442 1378 c-16 -46 -16 -48 13 -48 28 0 30 11 12 54 l-12 28 -13 -34z"/>
<path d="M2550 2984 c8 -10 23 -26 32 -35 20 -18 24 -39 8 -39 -5 0 -10 5 -10
10 0 6 -7 10 -15 10 -8 0 -15 -4 -15 -10 0 -5 7 -10 15 -10 8 0 15 -7 15 -15
0 -17 -27 -20 -32 -4 -2 7 -4 -4 -5 -24 -1 -23 6 -42 18 -53 10 -9 19 -24 19
-32 0 -9 7 -6 19 9 15 18 22 21 31 12 15 -14 3 -36 -16 -29 -8 3 -14 -1 -14
-9 0 -8 -3 -15 -7 -15 -10 1 -43 26 -43 33 0 3 -13 19 -30 35 -16 17 -30 27
-30 23 0 -4 9 -16 21 -27 32 -29 42 -53 29 -69 -8 -10 -5 -18 15 -33 28 -22
33 -42 10 -42 -8 0 -15 4 -15 9 0 5 -8 12 -17 15 -15 6 -15 4 2 -14 23 -25 33
-25 62 2 18 16 26 19 35 10 9 -9 7 -13 -8 -18 -10 -4 -22 -13 -26 -20 -5 -7
-16 -10 -26 -7 -21 5 -49 -22 -32 -32 5 -3 10 1 10 9 0 9 7 16 15 16 8 0 15
-7 15 -16 0 -8 5 -12 10 -9 6 3 10 -1 10 -9 0 -9 -4 -16 -10 -16 -5 0 -10 -7
-10 -15 0 -8 7 -15 16 -15 8 0 13 4 9 9 -8 14 15 25 26 14 15 -15 -39 -47 -55
-34 -10 8 -17 6 -30 -8 -14 -16 -15 -20 -2 -30 12 -10 13 -16 3 -32 -10 -16
-9 -21 2 -28 9 -6 10 -11 2 -15 -6 -4 -11 -12 -11 -18 0 -6 11 2 25 18 25 28
25 29 31 7 3 -12 12 -19 19 -17 16 7 29 -12 15 -21 -6 -4 -20 1 -31 11 -16 15
-19 15 -19 1 0 -8 6 -17 13 -20 6 -2 9 -8 4 -12 -4 -5 -13 -3 -19 3 -8 8 -15
9 -25 1 -9 -8 -17 -8 -27 0 -10 9 -16 8 -26 -4 -7 -9 -10 -18 -6 -22 3 -3 6
-1 6 5 0 20 15 14 49 -18 38 -37 38 -44 4 -75 -16 -13 -22 -25 -15 -25 6 0 12
5 12 10 0 6 7 10 15 10 18 0 20 -27 3 -33 -7 -2 -10 -8 -6 -12 4 -4 17 0 30 9
12 9 18 16 13 16 -5 0 -4 5 2 11 6 6 16 8 22 5 7 -5 -3 -20 -25 -42 -40 -37
-54 -42 -54 -18 0 8 -5 12 -11 8 -7 -4 -6 -11 5 -22 15 -15 13 -19 -13 -47
l-29 -30 24 -18 c21 -15 24 -16 24 -2 0 21 26 19 34 -2 3 -10 9 -25 12 -33 5
-10 -1 -9 -17 5 -18 15 -20 16 -10 3 7 -10 11 -27 8 -37 -3 -15 -1 -18 12 -14
13 5 14 3 4 -8 -13 -13 -19 -48 -7 -37 6 7 44 -27 44 -39 0 -5 -6 -8 -12 -8
-7 0 -12 5 -11 11 4 19 -48 27 -65 11 -13 -13 -11 -17 12 -32 28 -19 35 -45
11 -45 -8 0 -15 7 -15 17 0 9 -3 13 -7 10 -3 -4 -12 1 -20 11 -12 15 -13 14
-2 -8 17 -35 37 -47 68 -43 23 4 24 3 10 -9 -8 -7 -18 -21 -22 -31 -8 -22 -27
-13 -27 14 0 10 -5 19 -11 19 -7 0 -20 10 -30 22 -11 11 -19 17 -19 12 0 -6 5
-15 11 -21 8 -8 8 -13 0 -17 -6 -4 -11 -12 -11 -19 0 -6 6 -3 13 8 13 17 15
17 30 -6 23 -32 21 -38 -9 -36 -15 1 -28 -4 -30 -11 -1 -7 0 -8 3 -2 6 12 33
14 33 2 0 -4 -6 -14 -12 -22 -11 -12 -10 -12 4 -1 15 11 19 11 24 -3 7 -17 34
-22 34 -6 0 6 5 10 10 10 6 0 10 -7 10 -15 0 -8 6 -12 14 -9 7 3 21 -6 30 -20
9 -15 12 -26 6 -26 -5 0 -10 5 -10 10 0 6 -8 10 -18 10 -10 0 -23 5 -30 12 -9
9 -12 9 -12 0 0 -7 -7 -12 -15 -12 -8 0 -15 5 -15 11 0 5 -5 7 -11 3 -8 -5 -6
-10 5 -16 13 -7 14 -12 3 -29 -10 -17 -9 -23 11 -39 12 -10 22 -23 22 -29 0
-6 7 -11 15 -11 23 0 13 23 -17 39 -29 14 -36 35 -17 46 6 4 13 -2 16 -14 3
-12 8 -21 12 -21 3 0 17 -9 29 -18 l24 -18 -27 -18 c-21 -14 -29 -15 -41 -5
-10 8 -14 8 -14 0 0 -6 5 -11 10 -11 6 0 10 -9 10 -20 0 -27 -18 -25 -30 3 -5
13 -9 16 -9 7 -1 -9 4 -21 9 -26 7 -7 3 -19 -15 -36 -26 -26 -26 -58 1 -58 11
0 14 -20 14 -95 0 -70 -3 -95 -13 -95 -7 0 -33 32 -57 72 l-45 71 -3 -72 c-2
-51 -6 -71 -15 -68 -8 2 -12 35 -13 104 l-1 101 23 -22 c12 -11 38 -47 58 -78
20 -32 38 -58 40 -58 2 0 1 30 -2 67 -5 65 -23 105 -37 83 -8 -14 -35 -13 -35
1 0 6 7 8 16 5 14 -5 15 -4 4 9 -7 9 -15 13 -17 11 -3 -3 -16 -1 -30 5 -13 5
-22 5 -19 0 8 -12 -23 -23 -37 -14 -15 9 -155 16 -184 8 -13 -3 -29 -16 -34
-29 -9 -20 -7 -30 12 -57 13 -19 29 -38 34 -42 6 -6 6 -10 -2 -14 -7 -2 -13
-13 -13 -23 0 -10 6 -21 13 -24 6 -3 -1 -3 -18 0 -16 3 -32 9 -35 13 -3 5 -15
13 -28 20 -17 9 -21 17 -16 37 4 17 2 29 -7 35 -10 6 -10 9 -2 9 14 0 7 27
-14 51 -9 11 -29 15 -62 15 -51 -1 -81 -18 -81 -44 0 -11 -10 -4 -29 18 -26
32 -30 34 -55 22 -23 -10 -31 -10 -49 3 -28 20 -67 19 -96 -1 -19 -14 -27 -14
-47 -3 -21 11 -27 10 -47 -9 l-24 -22 -23 20 c-27 24 -48 25 -70 5 -14 -13
-21 -13 -55 5 -50 26 -78 25 -125 -1 l-38 -22 -35 22 c-19 11 -47 21 -63 21
-42 0 -93 -35 -110 -75 -52 -125 68 -235 181 -165 28 17 34 18 44 6 25 -30
103 -36 152 -10 21 10 33 11 57 2 26 -10 34 -9 51 6 19 17 21 17 49 -4 25 -18
33 -20 52 -10 17 9 29 9 53 -1 37 -16 82 -13 109 5 17 12 25 12 60 -4 32 -14
47 -16 72 -8 54 17 83 20 90 9 16 -24 115 -8 138 23 3 5 19 -1 34 -13 15 -12
30 -18 33 -14 3 4 17 14 30 21 21 12 26 11 52 -14 16 -15 32 -24 36 -21 3 4 1
7 -5 7 -7 0 -12 4 -12 9 0 4 18 8 40 8 22 0 40 -4 40 -8 0 -5 -5 -9 -12 -9 -6
0 -8 -3 -5 -7 4 -3 18 4 32 17 l25 23 25 -23 c19 -18 22 -26 13 -32 -10 -7 -9
-8 2 -7 27 3 41 -1 36 -9 -2 -4 5 -14 17 -22 20 -12 21 -12 9 3 -10 11 -11 21
-4 34 9 16 11 15 17 -10 4 -15 11 -24 16 -21 5 3 9 -2 9 -10 0 -9 -4 -16 -10
-16 -5 0 -10 -7 -10 -15 0 -8 7 -15 15 -15 8 0 12 6 9 14 -7 20 11 29 25 12 9
-10 6 -17 -14 -30 -14 -9 -30 -14 -35 -11 -6 3 -7 -1 -3 -10 3 -10 0 -21 -8
-27 -11 -8 -10 -9 4 -4 10 3 23 6 28 6 5 0 8 6 7 12 -3 15 24 18 29 3 2 -6
-10 -16 -27 -23 -16 -8 -30 -20 -30 -28 0 -21 -30 -17 -30 4 -1 16 -1 16 -14
0 -15 -21 -32 -23 -39 -5 -3 7 -6 8 -6 1 -1 -16 53 -68 57 -55 5 16 23 13 38
-6 18 -24 17 -38 -1 -23 -13 10 -19 10 -33 -3 -15 -14 -21 -14 -32 -4 -8 6 -6
1 5 -12 16 -19 21 -20 23 -7 5 23 32 20 32 -5 0 -11 -3 -18 -8 -15 -4 2 -16
-2 -27 -10 -18 -13 -18 -15 -3 -31 16 -15 17 -15 11 5 -4 16 -1 22 11 22 9 0
16 -7 16 -15 0 -8 7 -15 16 -15 8 0 13 4 10 9 -3 5 7 17 22 26 15 10 22 12 15
5 -6 -7 -9 -19 -6 -27 4 -9 -2 -16 -16 -20 -11 -3 -21 -12 -21 -21 0 -13 -2
-13 -13 2 -13 17 -15 17 -41 -6 -26 -22 -26 -24 -8 -25 14 -1 19 3 15 13 -3 8
1 14 11 14 20 0 21 -14 0 -30 -22 -19 -37 -50 -24 -50 5 0 10 7 10 15 0 8 7
15 15 15 21 0 19 -17 -4 -41 -11 -12 -25 -18 -33 -14 -7 3 2 -7 20 -23 35 -31
42 -62 15 -62 -17 -1 -17 -1 0 -14 21 -16 22 -36 2 -36 -8 0 -15 7 -15 15 0 8
-3 15 -6 15 -9 0 -33 -33 -33 -45 0 -5 4 -2 10 8 10 16 11 16 34 0 27 -20 33
-43 10 -43 -8 0 -15 7 -15 15 0 8 -4 15 -10 15 -17 0 -11 -18 12 -34 23 -16
21 -18 -31 -20 -13 -1 -25 -7 -27 -14 -1 -7 0 -8 3 -2 8 17 33 11 33 -7 1 -17
1 -17 14 0 7 9 16 17 20 17 11 0 36 -27 36 -39 0 -13 -13 -14 -25 -2 -6 6 -17
4 -29 -4 -14 -11 -16 -18 -8 -28 6 -7 10 -22 8 -33 -2 -10 -1 -13 1 -6 6 17
33 15 33 -2 0 -8 -5 -18 -10 -21 -8 -5 -7 -11 0 -20 7 -8 9 -19 5 -25 -5 -8
-20 0 -43 22 -24 22 -30 24 -17 8 11 -14 26 -29 33 -33 10 -7 10 -12 2 -22 -7
-8 -10 -20 -7 -27 4 -8 6 -7 6 5 1 9 5 17 11 17 12 0 50 -32 50 -42 0 -13 -28
-9 -33 5 -4 9 -7 9 -18 -1 -15 -14 -43 -16 -34 -2 7 11 -8 14 -18 4 -6 -6 52
-64 65 -64 4 0 10 5 13 10 5 8 11 8 19 1 7 -6 22 -9 33 -7 29 6 62 -19 46 -34
-14 -15 -34 -4 -27 14 3 7 -1 13 -9 13 -8 0 -14 -7 -13 -16 0 -9 -6 -16 -14
-16 -8 0 -14 8 -14 17 2 24 -17 23 -23 -2 -3 -10 -14 -22 -25 -26 -16 -5 -19
-12 -15 -33 6 -28 -12 -61 -33 -61 -7 0 -11 -3 -7 -6 10 -10 47 7 47 22 0 8 7
14 15 14 15 0 21 -26 8 -32 -5 -2 -19 -15 -32 -31 -24 -27 -24 -27 -3 -27 15
0 20 5 16 15 -4 10 0 15 11 15 11 0 15 -5 11 -15 -4 -10 1 -15 14 -15 13 0 18
5 14 15 -4 8 -10 15 -15 15 -5 0 -9 7 -9 15 0 20 10 18 38 -5 13 -11 21 -24
17 -30 -3 -5 1 -10 9 -10 9 0 13 6 10 14 -3 7 2 16 10 19 17 7 30 -8 21 -23
-3 -5 3 -10 13 -10 11 0 19 6 18 13 0 6 4 12 9 12 6 0 9 -6 9 -12 -1 -7 6 -13
16 -13 11 0 17 7 16 18 0 9 6 17 14 17 8 0 14 -8 14 -17 -1 -10 4 -18 11 -18
7 0 12 8 11 18 0 9 6 17 14 17 8 0 14 -8 14 -17 -1 -11 5 -18 16 -18 13 0 17
5 13 20 -4 14 0 20 12 20 12 0 16 -6 12 -20 -4 -15 0 -20 13 -20 11 0 17 7 16
18 0 9 6 17 14 17 8 0 14 -8 14 -17 -1 -10 4 -18 12 -18 8 0 11 6 8 15 -4 8 1
17 10 21 20 8 21 24 1 24 -20 0 -19 17 3 29 16 9 16 11 -3 25 -19 15 -19 16
-2 27 18 10 18 11 0 25 -17 14 -17 14 0 28 18 14 18 15 0 25 -17 11 -17 12 2
27 19 14 19 16 3 25 -22 12 -23 29 -3 29 20 0 19 10 -2 26 -17 13 -17 15 0 28
18 14 18 15 0 25 -17 11 -17 12 2 27 19 14 19 16 3 25 -22 12 -23 29 -3 29 20
0 19 10 -2 26 -17 13 -17 15 -1 27 15 12 15 14 0 25 -16 10 -15 13 3 27 19 15
19 17 3 26 -22 12 -23 29 -3 29 20 0 19 10 -2 26 -17 13 -17 15 -1 27 15 12
15 14 0 25 -16 10 -16 12 2 27 19 15 19 15 1 29 -18 13 -18 13 1 24 19 11 19
11 -1 26 -19 15 -19 17 -3 29 15 12 15 14 0 25 -16 10 -16 12 2 27 19 15 19
15 1 29 -18 13 -18 13 1 24 19 11 19 11 -1 26 -19 15 -19 16 -2 27 18 10 18
11 0 25 -17 13 -17 15 0 28 21 16 22 26 2 26 -20 0 -19 17 3 29 16 9 16 11 -3
25 -19 15 -19 16 -2 27 18 10 18 11 0 25 -17 13 -17 15 0 28 21 16 22 26 2 26
-20 0 -19 17 3 29 16 9 16 11 -3 25 -19 15 -19 16 -2 27 18 10 18 11 0 25 -17
14 -17 14 0 28 18 14 18 15 0 25 -17 11 -17 12 2 27 19 14 19 16 3 25 -22 12
-23 29 -3 29 20 0 19 10 -2 26 -17 13 -17 15 0 28 21 16 22 26 2 26 -20 0 -19
17 3 29 16 9 16 11 -2 24 -19 14 -19 14 0 25 19 11 19 11 -1 26 -19 15 -19 17
-2 30 18 14 18 15 0 25 -17 11 -17 12 2 27 19 14 19 16 3 25 -22 12 -23 29 -3
29 20 0 19 10 -2 26 -17 13 -17 15 -1 27 15 12 15 14 0 25 -16 10 -15 13 3 27
19 15 19 17 3 26 -22 12 -23 29 -3 29 20 0 19 10 -2 26 -17 13 -17 15 -1 27
15 12 15 14 0 25 -16 10 -15 13 3 27 20 16 20 16 1 27 -19 11 -19 11 -1 24 18
14 18 14 -1 29 -18 14 -18 16 -2 28 15 12 15 14 0 25 -16 10 -16 12 2 27 19
15 19 15 1 29 -18 13 -18 13 1 24 19 11 19 11 -1 26 -19 15 -19 17 -2 30 18
14 18 15 0 25 -17 11 -17 12 2 27 19 14 19 16 3 25 -22 12 -23 29 -3 29 20 0
19 10 -2 26 -17 13 -17 15 0 28 18 14 18 15 0 25 -17 11 -17 12 1 26 19 15 19
15 1 29 -18 13 -18 13 1 24 19 11 19 11 -1 26 -19 15 -19 17 -3 29 15 12 15
14 0 25 -16 10 -15 13 3 27 19 15 19 17 3 26 -22 12 -23 29 -3 29 20 0 19 10
-2 26 -17 13 -17 15 -1 27 15 12 15 14 0 25 -16 10 -15 13 3 27 20 16 20 16 1
27 -19 11 -19 11 -1 24 18 14 18 14 -1 29 -18 14 -18 16 -2 28 15 12 15 14 -1
24 -13 8 -21 9 -29 1 -8 -8 -15 -8 -27 2 -11 9 -19 10 -28 1 -10 -8 -17 -7
-25 1 -8 8 -15 8 -27 -2 -11 -9 -19 -10 -28 -1 -10 8 -17 7 -25 -1 -8 -8 -15
-8 -27 2 -11 9 -19 10 -28 1 -10 -8 -17 -7 -25 1 -8 8 -15 8 -24 0 -9 -7 -19
-7 -28 -2 -9 5 -19 5 -28 -2 -9 -8 -16 -8 -24 0 -15 15 -31 16 -23 1 4 -5 18
-14 32 -20 13 -5 23 -15 20 -22 -5 -16 -33 -16 -29 1 1 6 -5 12 -13 12 -8 0
-15 3 -15 8 0 4 -10 13 -22 21 -22 14 -22 13 -8 -5z m100 -14 c0 -6 8 -10 18
-8 9 2 17 -3 17 -11 0 -25 -22 -23 -39 4 -9 14 -12 25 -6 25 5 0 10 -5 10 -10z
m143 -15 c8 -18 -11 -31 -25 -17 -11 11 -3 32 12 32 4 0 10 -7 13 -15z m54 0
c7 -20 -2 -29 -21 -22 -9 4 -13 13 -10 22 8 19 23 19 31 0z m53 -5 c0 -11 -7
-20 -15 -20 -15 0 -21 21 -8 33 12 13 23 7 23 -13z m56 9 c10 -17 -13 -36 -27
-22 -12 12 -4 33 11 33 5 0 12 -5 16 -11z m-321 -60 c4 -6 -2 -13 -14 -16 -12
-3 -21 -12 -21 -21 0 -13 -2 -14 -12 -3 -10 11 -10 14 0 18 6 3 12 11 12 19 0
16 26 19 35 3z m55 -4 c0 -8 -4 -15 -9 -15 -5 0 -18 -3 -28 -6 -15 -5 -15 -4
-3 5 8 6 11 11 7 11 -5 0 -5 5 -2 10 10 15 35 12 35 -5z m270 0 c0 -8 -9 -15
-20 -15 -11 0 -20 7 -20 15 0 8 9 15 20 15 11 0 20 -7 20 -15z m-377 -47 c3
-10 8 -10 21 1 12 11 20 11 28 3 8 -8 6 -13 -8 -19 -10 -4 -24 -13 -29 -21 -9
-11 -14 -10 -29 7 -10 11 -15 25 -11 30 8 15 22 14 28 -1z m102 -9 c0 -8 -10
-15 -22 -15 -19 -1 -21 2 -12 18 11 21 34 19 34 -3z m111 10 c10 -17 -13 -36
-27 -22 -12 12 -4 33 11 33 5 0 12 -5 16 -11z m50 0 c3 -6 1 -16 -5 -22 -9 -9
-14 -8 -21 3 -9 15 -4 30 10 30 5 0 12 -5 16 -11z m54 -10 c0 -24 -23 -21 -28
4 -2 10 3 17 12 17 10 0 16 -9 16 -21z m56 10 c10 -17 -13 -36 -27 -22 -12 12
-4 33 11 33 5 0 12 -5 16 -11z m-216 -58 c0 -10 -9 -21 -20 -24 -11 -3 -18 -2
-17 1 2 4 7 15 10 25 8 23 27 22 27 -2z m53 4 c8 -18 -11 -31 -25 -17 -11 11
-3 32 12 32 4 0 10 -7 13 -15z m54 0 c7 -20 -2 -29 -21 -22 -9 4 -13 13 -10
22 8 19 23 19 31 0z m53 -5 c0 -11 -7 -20 -15 -20 -15 0 -21 21 -8 33 12 13
23 7 23 -13z m56 9 c10 -17 -13 -36 -27 -22 -12 12 -4 33 11 33 5 0 12 -5 16
-11z m-2 -70 c-8 -14 -34 -11 -34 4 0 8 3 17 7 20 9 9 34 -13 27 -24z m-374 7
c0 -8 6 -16 13 -19 7 -2 8 -8 3 -13 -5 -5 -11 -4 -13 4 -3 6 -11 12 -19 12 -8
0 -14 7 -14 15 0 8 7 15 15 15 8 0 15 -6 15 -14z m270 -49 c0 -8 -3 -17 -7
-20 -9 -9 -34 13 -27 24 8 14 34 11 34 -4z m105 -7 c0 -22 -29 -18 -33 3 -3
14 1 18 15 15 10 -2 18 -10 18 -18z m-273 -62 c-9 -9 -15 -9 -24 0 -10 10 -10
15 2 22 20 12 38 -6 22 -22z m114 21 c10 -17 -13 -36 -27 -22 -12 12 -4 33 11
33 5 0 12 -5 16 -11z m50 0 c10 -17 -13 -36 -27 -22 -12 12 -4 33 11 33 5 0
12 -5 16 -11z m109 -10 c0 -7 -8 -15 -17 -17 -18 -3 -25 18 -11 32 10 10 28 1
28 -15z m-319 -4 c-3 -8 -1 -15 4 -15 6 0 10 -5 10 -10 0 -6 -11 -3 -25 6 -31
20 -32 34 -4 34 15 0 19 -5 15 -15z m324 -46 c0 -12 -29 -24 -37 -16 -3 4 -3
13 0 21 6 16 37 11 37 -5z m-380 -55 c0 -8 5 -14 10 -14 6 0 10 -4 10 -10 0
-14 -13 -13 -35 4 -11 8 -16 19 -12 30 8 19 27 12 27 -10z m110 2 c0 -8 -4
-17 -8 -20 -13 -8 -35 11 -28 23 10 16 36 14 36 -3z m160 0 c0 -21 -21 -31
-30 -15 -5 7 -6 17 -4 21 9 14 34 9 34 -6z m105 -6 c0 -22 -29 -18 -33 3 -3
14 1 18 15 15 10 -2 18 -10 18 -18z m-310 -28 c-16 -11 -14 -42 2 -42 8 0 11
-4 8 -10 -8 -13 -55 18 -55 35 0 12 17 21 45 24 7 0 7 -2 0 -7z m41 -13 c3 -6
2 -15 -2 -19 -12 -12 -38 5 -30 19 9 14 23 14 32 0z m110 0 c10 -17 -13 -36
-27 -22 -12 12 -4 33 11 33 5 0 12 -5 16 -11z m50 0 c10 -17 -13 -36 -27 -22
-12 12 -4 33 11 33 5 0 12 -5 16 -11z m54 -9 c0 -11 -7 -20 -15 -20 -8 0 -15
9 -15 20 0 11 7 20 15 20 8 0 15 -9 15 -20z m56 9 c10 -17 -13 -36 -27 -22
-12 12 -4 33 11 33 5 0 12 -5 16 -11z m2 -61 c-7 -19 -38 -22 -38 -4 0 10 9
16 21 16 12 0 19 -5 17 -12z m-298 -28 c0 -5 -7 -10 -15 -10 -9 0 -12 -6 -9
-15 4 -9 0 -15 -8 -15 -27 0 -29 14 -6 32 26 20 38 23 38 8z m131 -25 c0 -19
-29 -16 -34 4 -4 16 -1 18 15 12 11 -4 19 -11 19 -16z m-211 0 c0 -8 5 -15 10
-15 6 0 10 -7 10 -15 0 -13 4 -14 21 -5 11 7 23 9 27 6 3 -3 1 -6 -5 -6 -13 0
-12 -32 2 -42 6 -5 5 -8 -3 -8 -14 0 -62 47 -62 61 0 5 -7 9 -15 9 -8 0 -15 7
-15 15 0 8 7 15 15 15 8 0 15 -7 15 -15z m270 2 c0 -8 -3 -17 -7 -20 -9 -9
-34 13 -27 24 8 14 34 11 34 -4z m106 2 c7 -12 -15 -31 -28 -23 -4 3 -8 12 -8
20 0 17 26 19 36 3z m-270 -50 c10 -17 -13 -36 -27 -22 -12 12 -4 33 11 33 5
0 12 -5 16 -11z m54 -9 c0 -11 -7 -20 -15 -20 -8 0 -15 9 -15 20 0 11 7 20 15
20 8 0 15 -9 15 -20z m56 9 c10 -17 -13 -36 -27 -22 -12 12 -4 33 11 33 5 0
12 -5 16 -11z m104 -9 c0 -11 -7 -20 -15 -20 -8 0 -15 9 -15 20 0 11 7 20 15
20 8 0 15 -9 15 -20z m56 9 c10 -17 -13 -36 -27 -22 -12 12 -4 33 11 33 5 0
12 -5 16 -11z m-266 -65 c0 -9 -7 -14 -17 -12 -25 5 -28 28 -4 28 12 0 21 -6
21 -16z m268 -1 c2 -8 -5 -13 -17 -13 -12 0 -21 6 -21 16 0 18 31 15 38 -3z
m-220 -50 c-4 -20 -21 -18 -29 5 -6 16 -4 19 12 15 11 -3 19 -12 17 -20z
m-105 10 c9 -8 -42 -55 -53 -48 -5 3 1 16 13 30 23 26 30 29 40 18z m55 -11
c2 -7 -6 -12 -17 -12 -12 0 -20 -3 -20 -7 3 -17 -2 -24 -11 -18 -6 4 -3 16 7
31 16 25 33 28 41 6z m108 7 c8 -14 -18 -31 -30 -19 -9 9 0 30 14 30 5 0 12
-5 16 -11z m54 -2 c0 -8 -3 -17 -7 -20 -9 -9 -34 13 -27 24 8 14 34 11 34 -4z
m105 -7 c0 -22 -29 -18 -33 3 -3 14 1 18 15 15 10 -2 18 -10 18 -18z m-105
-56 c0 -14 -21 -19 -33 -7 -9 9 13 34 24 27 5 -3 9 -12 9 -20z m105 5 c0 -7
-8 -15 -17 -17 -18 -3 -25 18 -11 32 10 10 28 1 28 -15z m-375 -2 c0 -8 6 -14
14 -14 8 0 12 6 9 14 -3 8 2 13 16 13 29 0 27 -18 -4 -32 -25 -11 -26 -31 -1
-22 18 7 30 -12 15 -22 -7 -4 -22 4 -36 21 -23 26 -25 26 -42 10 -13 -11 -21
-13 -26 -6 -8 14 3 33 16 26 5 -4 9 1 9 9 0 9 7 16 15 16 8 0 15 -6 15 -13z
m110 -55 c0 -8 -8 -12 -17 -10 -10 2 -17 10 -15 16 1 7 -2 12 -8 12 -5 0 -10
4 -10 9 0 5 11 4 25 -2 14 -7 25 -18 25 -25z m2 -43 c-5 -11 -11 -20 -15 -20
-4 1 -11 1 -17 1 -28 0 -2 28 37 39 1 1 -1 -8 -5 -20z m-58 -13 c-1 -9 3 -16
10 -16 7 0 7 -3 1 -8 -5 -4 -10 -14 -10 -22 0 -8 -7 -15 -15 -15 -10 0 -15 11
-16 35 0 19 1 39 4 43 7 14 27 1 26 -17z m160 16 c8 -13 -11 -35 -23 -28 -16
10 -14 36 3 36 8 0 17 -4 20 -8z m56 -6 c0 -21 -21 -31 -30 -15 -5 7 -6 17 -4
21 9 14 34 9 34 -6z m105 -6 c0 -22 -29 -18 -33 3 -3 14 1 18 15 15 10 -2 18
-10 18 -18z m-270 -51 c0 -8 -8 -13 -17 -13 -10 1 -18 -5 -19 -15 0 -9 -3 -11
-5 -4 -7 17 15 55 29 50 7 -2 12 -10 12 -18z m108 6 c8 -18 -11 -31 -25 -17
-11 11 -3 32 12 32 4 0 10 -7 13 -15z m53 4 c8 -14 -11 -33 -25 -25 -11 7 -4
36 9 36 5 0 12 -5 16 -11z m110 0 c10 -17 -13 -36 -27 -22 -12 12 -4 33 11 33
5 0 12 -5 16 -11z m-376 -63 c0 -8 6 -16 13 -19 7 -2 8 -8 3 -13 -5 -5 -11 -4
-13 4 -3 6 -11 12 -19 12 -8 0 -14 7 -14 15 0 8 7 15 15 15 8 0 15 -6 15 -14z
m380 -1 c0 -8 -9 -15 -20 -15 -11 0 -20 7 -20 15 0 8 9 15 20 15 11 0 20 -7
20 -15z m-310 -76 c0 -5 -5 -9 -10 -9 -6 0 -10 -8 -8 -17 2 -12 -3 -18 -14
-17 -10 1 -16 -2 -13 -6 3 -5 1 -11 -5 -15 -24 -15 -8 35 18 54 26 20 26 20 5
21 -25 0 -26 1 -16 26 6 15 8 15 25 -6 10 -12 18 -26 18 -31z m40 22 c7 -14 6
-19 -3 -17 -21 3 -38 17 -32 27 10 15 23 11 35 -10z m104 11 c2 -4 1 -14 -4
-22 -7 -11 -12 -12 -21 -3 -6 6 -8 16 -5 22 8 13 23 14 30 3z m56 -6 c0 -21
-21 -31 -30 -15 -5 7 -6 17 -4 21 9 14 34 9 34 -6z m105 -6 c0 -22 -29 -18
-33 3 -3 14 1 18 15 15 10 -2 18 -10 18 -18z m-269 -42 c7 -11 -22 -39 -40
-37 -6 0 -5 3 2 6 6 2 10 9 6 14 -6 11 3 29 16 29 5 0 12 -5 16 -12z m107 -3
c8 -18 -11 -31 -25 -17 -11 11 -3 32 12 32 4 0 10 -7 13 -15z m53 4 c8 -14
-11 -33 -25 -25 -11 7 -4 36 9 36 5 0 12 -5 16 -11z m54 -9 c0 -11 -7 -20 -15
-20 -15 0 -21 21 -8 33 12 13 23 7 23 -13z m55 -1 c0 -7 -8 -15 -17 -17 -18
-3 -25 18 -11 32 10 10 28 1 28 -15z m5 -50 c0 -12 -29 -24 -37 -16 -3 4 -3
13 0 21 6 16 37 11 37 -5z m-220 -4 c0 -8 -7 -15 -15 -15 -8 0 -15 -4 -15 -10
0 -5 7 -10 15 -10 8 0 15 -7 15 -15 0 -22 -27 -18 -33 5 -3 11 -3 29 0 40 6
23 33 27 33 5z m216 -46 c7 -12 -15 -31 -28 -23 -4 3 -8 12 -8 20 0 17 26 19
36 3z m-352 -34 c3 -8 13 -15 22 -15 8 0 14 -5 12 -12 -8 -22 -28 -20 -37 4
-6 12 -10 19 -10 15 -1 -5 -6 -5 -11 -2 -11 7 -4 25 10 25 4 0 10 -7 14 -15z
m66 -45 c-14 -10 -27 -16 -30 -13 -3 3 1 8 8 10 6 3 9 9 6 15 -9 14 18 30 31
17 7 -7 2 -16 -15 -29z m126 29 c10 -17 -13 -36 -27 -22 -12 12 -4 33 11 33 5
0 12 -5 16 -11z m50 0 c8 -14 -11 -33 -25 -25 -11 7 -4 36 9 36 5 0 12 -5 16
-11z m54 -9 c0 -11 -7 -20 -15 -20 -15 0 -21 21 -8 33 12 13 23 7 23 -13z m56
9 c10 -17 -13 -36 -27 -22 -12 12 -4 33 11 33 5 0 12 -5 16 -11z m4 -60 c0
-12 -29 -24 -37 -16 -3 4 -3 13 0 21 6 16 37 11 37 -5z m-271 -45 c10 -9 -10
-33 -24 -28 -9 4 -14 12 -11 20 3 7 0 15 -7 18 -7 3 -1 3 13 0 14 -4 27 -8 29
-10z m-49 -13 c13 -25 13 -31 -1 -31 -5 0 -8 4 -5 9 4 5 -2 8 -11 7 -9 -2 -19
-8 -21 -14 -2 -7 -8 -10 -13 -6 -5 3 -9 -2 -9 -10 0 -8 4 -18 10 -21 6 -4 4
-15 -6 -30 -9 -14 -20 -22 -25 -19 -14 8 -10 24 6 24 8 0 15 7 15 16 0 8 -4
13 -9 9 -5 -3 -13 0 -17 6 -3 6 6 22 22 35 16 13 25 24 19 24 -11 0 15 20 27
20 4 0 12 -9 18 -19z m316 8 c7 -12 -15 -31 -28 -23 -4 3 -8 12 -8 20 0 17 26
19 36 3z m-320 -50 c10 -17 -13 -36 -27 -22 -12 12 -4 33 11 33 5 0 12 -5 16
-11z m160 0 c10 -17 -13 -36 -27 -22 -12 12 -4 33 11 33 5 0 12 -5 16 -11z
m50 0 c10 -17 -13 -36 -27 -22 -12 12 -4 33 11 33 5 0 12 -5 16 -11z m54 -9
c0 -11 -7 -20 -15 -20 -8 0 -15 9 -15 20 0 11 7 20 15 20 8 0 15 -9 15 -20z
m56 9 c10 -17 -13 -36 -27 -22 -12 12 -4 33 11 33 5 0 12 -5 16 -11z m-652
-73 c-3 -9 -17 -16 -30 -16 -23 0 -24 -2 -24 -85 0 -69 -3 -85 -15 -85 -12 0
-15 16 -15 85 l0 85 -30 0 c-16 0 -30 5 -30 10 0 6 28 10 64 10 36 0 68 5 71
11 10 15 17 5 9 -15z m56 -81 c0 -87 -3 -105 -15 -105 -12 0 -15 17 -15 90 0
78 9 117 28 120 1 0 2 -47 2 -105z m339 85 c10 0 26 -9 36 -20 9 -10 25 -18
34 -17 9 1 17 -2 19 -8 1 -5 -14 -10 -33 -12 -25 -1 -35 2 -35 12 0 16 -42 30
-64 22 -28 -11 -45 -50 -38 -86 9 -40 38 -64 51 -42 7 11 10 11 12 -3 4 -15 6
-15 27 -1 34 25 28 45 -13 45 -19 0 -35 4 -35 9 0 15 37 23 70 16 28 -6 30 -9
30 -56 0 -27 -4 -49 -10 -49 -5 0 -10 7 -10 16 0 14 -2 14 -22 0 -32 -23 -71
-20 -102 9 -20 19 -26 33 -26 68 0 24 6 51 13 60 16 23 71 56 75 45 2 -4 12
-8 21 -8z m259 8 c-7 -19 -38 -22 -38 -4 0 10 9 16 21 16 12 0 19 -5 17 -12z
m-1730 -24 c24 -16 30 -44 9 -44 -7 0 -18 9 -25 20 -14 23 -50 26 -75 7 -10
-6 -20 -29 -23 -49 -11 -67 63 -112 102 -62 13 16 34 19 34 4 0 -5 -9 -19 -20
-30 -29 -29 -84 -27 -115 5 -35 34 -35 106 0 140 28 29 79 33 113 9z m194 5
c31 -17 49 -70 37 -112 -18 -68 -92 -89 -146 -43 -38 33 -40 102 -4 140 27 28
76 35 113 15z m149 -56 l44 -67 3 67 c2 51 6 67 17 67 12 0 15 -19 15 -95 0
-69 -3 -95 -12 -95 -7 0 -34 33 -60 73 l-48 72 0 -72 c0 -58 -3 -73 -15 -73
-12 0 -15 17 -15 95 0 118 10 122 71 28z m223 51 c9 -8 16 -20 16 -25 0 -15
-27 -10 -34 7 -9 22 -50 14 -54 -11 -2 -15 8 -24 43 -38 25 -11 45 -23 45 -27
0 -5 3 -15 6 -23 8 -23 -31 -57 -65 -57 -20 0 -36 9 -51 27 -26 33 -8 45 21
14 22 -24 39 -27 57 -9 22 22 13 37 -35 60 -52 25 -66 54 -38 82 21 20 69 21
89 0z m86 -59 c0 -64 3 -76 20 -85 14 -8 26 -8 40 0 17 9 20 21 20 85 0 60 3
75 15 75 12 0 15 -15 15 -73 0 -85 -19 -117 -70 -117 -52 0 -70 29 -70 115 0
60 3 75 15 75 12 0 15 -15 15 -75z m180 -7 l0 -83 37 0 c60 0 49 -20 -12 -23
l-55 -3 0 96 c0 78 3 95 15 95 12 0 15 -16 15 -82z m896 41 c7 -12 -15 -31
-28 -23 -4 3 -8 12 -8 20 0 17 26 19 36 3z m-1747 -43 c10 -12 8 -17 -8 -25
-11 -6 -24 -11 -29 -11 -12 0 -24 29 -16 41 8 14 40 11 53 -5z m1691 -17 c0
-24 -23 -21 -28 4 -2 10 3 17 12 17 10 0 16 -9 16 -21z m56 10 c10 -17 -13
-36 -27 -22 -12 12 -4 33 11 33 5 0 12 -5 16 -11z m-106 -65 c0 -14 -21 -19
-33 -7 -9 9 13 34 24 27 5 -3 9 -12 9 -20z m105 5 c0 -7 -8 -15 -17 -17 -18
-3 -25 18 -11 32 10 10 28 1 28 -15z m-375 -53 c0 -8 6 -16 13 -19 10 -4 10
-7 0 -18 -11 -11 -13 -10 -13 4 0 9 -7 17 -15 17 -16 0 -20 12 -8 23 11 12 23
8 23 -7z m378 -3 c2 -8 -5 -13 -17 -13 -12 0 -21 6 -21 16 0 18 31 15 38 -3z
m-273 -52 c0 -21 -24 -25 -31 -7 -6 15 -8 15 -20 -1 -10 -14 -15 -15 -24 -6
-19 18 -3 31 37 29 25 -1 38 -6 38 -15z m111 8 c10 -17 -13 -36 -27 -22 -12
12 -4 33 11 33 5 0 12 -5 16 -11z m50 0 c10 -17 -13 -36 -27 -22 -12 12 -4 33
11 33 5 0 12 -5 16 -11z m54 -10 c0 -24 -23 -21 -28 4 -2 10 3 17 12 17 10 0
16 -9 16 -21z m56 10 c10 -17 -13 -36 -27 -22 -12 12 -4 33 11 33 5 0 12 -5
16 -11z m-286 -47 c8 2 16 -5 18 -14 5 -25 -25 -23 -38 1 -12 23 -13 42 -1 23
4 -7 14 -12 21 -10z m180 -18 c0 -14 -21 -19 -33 -7 -9 9 13 34 24 27 5 -3 9
-12 9 -20z m105 5 c0 -7 -8 -15 -17 -17 -18 -3 -25 18 -11 32 10 10 28 1 28
-15z m3 -56 c2 -8 -5 -13 -17 -13 -12 0 -21 6 -21 16 0 18 31 15 38 -3z m-268
-54 c0 -13 -15 -18 -29 -9 -8 4 -10 13 -7 19 4 6 2 11 -3 11 -6 0 -11 5 -11
10 0 6 11 3 25 -6 14 -9 25 -20 25 -25z m-46 -4 c9 -14 14 -25 11 -25 -12 0
-20 6 -17 13 1 4 -7 7 -18 7 -11 0 -20 -7 -20 -15 0 -8 9 -15 20 -15 21 0 27
-15 9 -25 -5 -4 -20 4 -33 18 l-22 24 20 21 c27 27 30 27 50 -3z m202 14 c10
-17 -13 -36 -27 -22 -12 12 -4 33 11 33 5 0 12 -5 16 -11z m109 -9 c0 -22 -29
-18 -33 3 -3 14 1 18 15 15 10 -2 18 -10 18 -18z m-105 -56 c0 -14 -21 -19
-33 -7 -9 9 13 34 24 27 5 -3 9 -12 9 -20z m105 5 c0 -7 -8 -15 -17 -17 -18
-3 -25 18 -11 32 10 10 28 1 28 -15z m-262 -9 c3 -11 2 -18 -1 -17 -4 2 -15 7
-25 10 -10 4 -15 11 -12 17 10 17 32 11 38 -10z m-65 -45 c-2 -6 -9 -9 -15 -9
-7 1 -11 -2 -8 -6 6 -9 -13 -25 -20 -18 -8 7 26 49 37 46 5 -2 8 -8 6 -13z
m330 -2 c2 -8 -5 -13 -17 -13 -12 0 -21 6 -21 16 0 18 31 15 38 -3z m-272 -44
c10 -17 -13 -36 -27 -22 -12 12 -4 33 11 33 5 0 12 -5 16 -11z m54 -10 c0 -24
-23 -21 -28 4 -2 10 3 17 12 17 10 0 16 -9 16 -21z m54 13 c2 -4 1 -14 -4 -22
-7 -11 -12 -12 -21 -3 -6 6 -8 16 -5 22 8 13 23 14 30 3z m56 -6 c0 -21 -21
-31 -30 -15 -5 7 -6 17 -4 21 9 14 34 9 34 -6z m105 -6 c0 -22 -29 -18 -33 3
-3 14 1 18 15 15 10 -2 18 -10 18 -18z m-321 -62 c-3 -5 -12 -7 -20 -4 -8 3
-14 -1 -14 -9 0 -8 -4 -15 -10 -15 -15 0 -12 18 8 38 17 19 48 10 36 -10z
m159 17 c8 -18 -11 -31 -25 -17 -11 11 -3 32 12 32 4 0 10 -7 13 -15z m53 4
c8 -14 -11 -33 -25 -25 -11 7 -4 36 9 36 5 0 12 -5 16 -11z m109 -10 c0 -7 -8
-15 -17 -17 -18 -3 -25 18 -11 32 10 10 28 1 28 -15z m-284 -39 c10 0 19 -7
19 -15 0 -22 -27 -19 -40 4 -5 11 -10 23 -9 28 0 4 3 2 6 -4 2 -7 13 -13 24
-13z m-36 -10 c3 -6 -2 -13 -12 -17 -34 -13 -59 -53 -33 -53 6 0 10 -6 10 -14
0 -8 8 -13 18 -12 9 0 17 -5 17 -13 0 -27 -23 -22 -41 8 -10 17 -24 31 -31 31
-18 0 -16 13 5 32 9 9 23 24 30 32 15 18 28 20 37 6z m323 -2 c-7 -19 -38 -22
-38 -4 0 10 9 16 21 16 12 0 19 -5 17 -12z m-293 -42 c16 6 29 -12 20 -27 -5
-7 -13 -5 -25 6 -13 12 -19 13 -22 4 -3 -8 -11 -10 -22 -6 -9 4 -14 12 -11 18
4 6 13 8 21 5 8 -3 14 0 15 7 0 9 2 9 5 0 3 -7 11 -10 19 -7z m185 -10 c0 -21
-21 -31 -30 -15 -5 7 -6 17 -4 21 9 14 34 9 34 -6z m50 -7 c0 -24 -23 -21 -28
4 -2 10 3 17 12 17 10 0 16 -9 16 -21z m55 1 c0 -22 -29 -18 -33 3 -3 14 1 18
15 15 10 -2 18 -10 18 -18z m-273 -62 c-9 -9 -15 -9 -24 0 -10 10 -10 15 2 22
20 12 38 -6 22 -22z m111 17 c8 -18 -11 -31 -25 -17 -11 11 -3 32 12 32 4 0
10 -7 13 -15z m53 4 c8 -14 -11 -33 -25 -25 -11 7 -4 36 9 36 5 0 12 -5 16
-11z m110 0 c10 -17 -13 -36 -27 -22 -12 12 -4 33 11 33 5 0 12 -5 16 -11z
m-356 -44 c0 -8 6 -12 14 -9 17 7 31 -12 16 -21 -6 -4 -20 1 -31 11 -21 19
-25 34 -9 34 6 0 10 -7 10 -15z m360 -16 c0 -12 -29 -24 -37 -16 -3 4 -3 13 0
21 6 16 37 11 37 -5z m-280 -44 c17 -10 11 -25 -10 -25 -11 0 -20 7 -20 15 0
8 -5 15 -11 15 -5 0 -7 -5 -4 -10 3 -6 -2 -13 -12 -17 -10 -4 -24 -14 -31 -22
-15 -18 -13 -9 7 31 11 21 19 26 42 23 16 -2 34 -7 39 -10z m170 -8 c0 -8 -3
-17 -7 -20 -9 -9 -34 13 -27 24 8 14 34 11 34 -4z m106 2 c7 -12 -15 -31 -28
-23 -4 3 -8 12 -8 20 0 17 26 19 36 3z m-270 -50 c3 -6 1 -16 -5 -22 -9 -9
-14 -8 -21 3 -6 9 -5 17 3 22 8 5 3 8 -11 8 -13 0 -20 4 -17 10 7 11 39 -2 51
-21z m110 0 c10 -17 -13 -36 -27 -22 -12 12 -4 33 11 33 5 0 12 -5 16 -11z
m50 0 c10 -17 -13 -36 -27 -22 -12 12 -4 33 11 33 5 0 12 -5 16 -11z m109 -10
c0 -7 -8 -15 -17 -17 -18 -3 -25 18 -11 32 10 10 28 1 28 -15z m-318 -3 c-3
-7 0 -19 6 -26 7 -7 0 -5 -15 5 -33 21 -36 35 -7 35 14 0 19 -5 16 -14z m-57
-53 c0 -14 2 -14 20 2 15 14 23 15 34 6 10 -8 16 -9 21 -1 9 15 35 12 35 -4 0
-15 -41 -30 -50 -18 -10 13 -39 10 -33 -4 7 -18 -16 -18 -39 0 -22 16 -23 36
-3 36 8 0 15 -7 15 -17z m378 5 c-7 -19 -38 -22 -38 -4 0 10 9 16 21 16 12 0
19 -5 17 -12z m-268 -51 c0 -8 -3 -17 -7 -20 -9 -9 -34 13 -27 24 8 14 34 11
34 -4z m103 6 c9 -9 -13 -34 -24 -27 -14 8 -11 34 4 34 8 0 17 -3 20 -7z m57
-7 c0 -21 -21 -31 -30 -15 -5 7 -6 17 -4 21 9 14 34 9 34 -6z m105 -6 c0 -22
-29 -18 -33 3 -3 14 1 18 15 15 10 -2 18 -10 18 -18z m-268 -54 c-6 -17 -32
-13 -31 5 1 9 -4 16 -10 16 -7 0 -12 -9 -12 -19 0 -10 5 -18 10 -18 5 0 7 -3
4 -6 -4 -3 -16 -1 -27 6 -13 7 -21 7 -21 1 0 -6 9 -15 21 -22 15 -8 18 -14 10
-22 -8 -8 -18 -4 -35 12 l-25 23 36 34 c34 32 36 33 59 17 14 -9 23 -21 21
-27z m109 13 c10 -17 -13 -36 -27 -22 -12 12 -4 33 11 33 5 0 12 -5 16 -11z
m50 0 c8 -14 -11 -33 -25 -25 -11 7 -4 36 9 36 5 0 12 -5 16 -11z m54 -9 c0
-11 -7 -20 -15 -20 -8 0 -15 9 -15 20 0 11 7 20 15 20 8 0 15 -9 15 -20z m56
9 c10 -17 -13 -36 -27 -22 -12 12 -4 33 11 33 5 0 12 -5 16 -11z m-266 -64 c0
-8 -9 -15 -20 -15 -11 0 -20 -5 -20 -12 0 -6 -3 -9 -6 -6 -3 4 -1 16 6 27 12
24 40 28 40 6z m268 3 c-7 -19 -38 -22 -38 -4 0 10 9 16 21 16 12 0 19 -5 17
-12z m-165 -45 c9 -9 -13 -34 -24 -27 -14 8 -11 34 4 34 8 0 17 -3 20 -7z m57
-6 c0 -8 -3 -17 -7 -20 -9 -9 -34 13 -27 24 8 14 34 11 34 -4z m106 2 c7 -12
-15 -31 -28 -23 -4 3 -8 12 -8 20 0 17 26 19 36 3z m-160 -50 c10 -17 -13 -36
-27 -22 -12 12 -4 33 11 33 5 0 12 -5 16 -11z m50 0 c8 -14 -11 -33 -25 -25
-11 7 -4 36 9 36 5 0 12 -5 16 -11z m54 -9 c0 -11 -7 -20 -15 -20 -8 0 -15 9
-15 20 0 11 7 20 15 20 8 0 15 -9 15 -20z m56 9 c10 -17 -13 -36 -27 -22 -12
12 -4 33 11 33 5 0 12 -5 16 -11z m-352 -44 c-4 -11 -2 -13 9 -9 27 10 27 -13
0 -31 -18 -12 -28 -14 -31 -7 -2 7 -10 12 -18 12 -8 0 -14 7 -14 15 0 8 7 15
15 15 8 0 15 -7 15 -15 0 -8 7 -15 17 -15 15 0 15 1 0 18 -21 23 -21 32 -2 32
9 0 12 -6 9 -15z m67 -5 c10 0 19 -7 19 -15 0 -22 -27 -19 -40 4 -5 11 -10 23
-9 28 0 4 3 2 6 -4 2 -7 13 -13 24 -13z m179 -16 c0 -14 -21 -19 -33 -7 -9 9
13 34 24 27 5 -3 9 -12 9 -20z m105 5 c0 -7 -8 -15 -17 -17 -18 -3 -25 18 -11
32 10 10 28 1 28 -15z m-315 -39 c-8 -6 -11 -10 -5 -10 5 0 4 -5 -2 -11 -6 -6
-17 -8 -23 -4 -9 6 -6 13 11 26 13 10 26 15 29 13 2 -3 -2 -9 -10 -14z m50
-15 c0 -8 -9 -15 -20 -15 -11 0 -20 -4 -20 -10 0 -5 -5 -10 -10 -10 -6 0 -3
11 6 25 18 28 44 33 44 10z m266 4 c7 -12 -15 -31 -28 -23 -4 3 -8 12 -8 20 0
17 26 19 36 3z"/>
<path d="M1330 1410 c-20 -20 -27 -74 -12 -96 15 -23 50 -34 76 -24 33 12 49
45 42 83 -11 55 -68 75 -106 37z m68 -54 c-4 -25 -36 -34 -44 -12 -8 21 13 46
32 39 8 -3 14 -15 12 -27z"/>
<path d="M798 2700 c-22 -14 -52 -74 -38 -78 5 -2 10 -10 10 -17 0 -8 14 -22
30 -32 42 -24 57 -59 54 -121 -2 -31 0 -52 7 -52 6 0 7 -5 2 -12 -11 -18 -12
-302 -1 -309 5 -3 -8 -13 -29 -22 -49 -19 -93 -65 -74 -76 7 -5 11 -16 9 -26
-2 -9 6 -22 16 -29 11 -6 38 -28 60 -48 22 -21 46 -38 52 -38 7 0 16 -9 19
-21 4 -11 18 -24 32 -30 30 -11 541 -11 568 1 12 5 -105 9 -283 9 l-303 1 3
32 c3 30 1 32 -32 32 -32 1 -35 4 -35 30 l0 30 65 -3 c36 -1 70 -7 77 -13 9
-7 14 -6 18 3 6 17 87 17 93 0 2 -6 9 -8 15 -4 6 3 65 8 131 10 143 5 151 9
143 91 -6 52 -5 52 23 52 l28 0 -1 -97 -2 -98 -255 -5 -255 -6 251 -2 c259 -2
274 0 274 39 0 10 10 19 24 21 27 5 35 -11 36 -72 1 -31 2 -33 14 -17 7 9 20
17 29 17 9 0 21 -8 26 -17 9 -16 10 -16 11 5 0 33 -2 36 -35 36 -25 1 -31 6
-33 28 -3 27 -3 27 61 27 35 0 70 -5 77 -9 15 -9 40 5 40 21 0 5 -57 9 -126 9
l-125 0 3 38 c3 36 5 37 44 40 l40 3 94 247 c51 136 101 266 111 290 l18 42
-35 0 c-33 0 -34 1 -34 40 l0 40 89 0 c85 0 91 -1 110 -26 12 -15 21 -33 21
-40 0 -7 10 -14 22 -16 12 -2 28 -14 34 -27 7 -13 22 -28 35 -35 27 -12 57
-69 89 -164 12 -34 26 -60 30 -57 5 3 0 26 -10 51 -11 25 -20 52 -20 59 0 8
-6 20 -13 27 -8 7 -17 25 -20 40 -4 14 -32 52 -63 84 -30 32 -62 69 -70 84
-22 36 -59 50 -133 50 -88 0 -109 -7 -126 -41 -15 -29 -13 -41 19 -98 15 -25
14 -31 -49 -196 -15 -38 -41 -108 -58 -155 -47 -128 -68 -165 -97 -168 -24 -2
-80 37 -80 57 0 4 -9 17 -20 29 -30 32 -92 30 -114 -3 -9 -13 -16 -33 -16 -43
0 -10 -5 -23 -12 -30 -16 -16 -100 -16 -116 0 -13 13 -18 331 -6 362 3 9 15
16 26 16 40 0 58 19 58 61 0 32 -4 41 -25 51 -14 6 -25 15 -25 20 0 5 -13 23
-30 41 -16 17 -41 47 -55 65 l-27 32 -121 0 c-67 0 -130 -5 -139 -10z m272
-59 l0 -40 35 6 c35 6 35 5 35 -31 0 -35 1 -36 35 -36 34 0 35 -1 35 -40 l0
-40 -45 0 -45 0 0 -209 c0 -124 -4 -212 -10 -216 -5 -3 -18 3 -30 15 -19 19
-20 32 -20 218 0 222 3 242 34 242 17 0 18 2 6 10 -8 5 -23 10 -32 10 -16 0
-18 -22 -20 -254 l-3 -255 128 -3 127 -3 0 58 0 58 43 -3 42 -3 3 -92 3 -93
-301 0 -301 0 3 38 c3 37 3 37 48 38 l45 1 3 253 c2 220 0 254 -13 264 -16 12
-11 46 6 46 5 0 9 5 9 10 0 6 -22 10 -50 10 l-50 0 0 33 c0 19 3 37 7 40 3 4
66 7 140 7 l133 0 0 -39z"/>
<path d="M980 2306 l0 -293 25 5 c29 5 31 14 10 36 -12 12 -15 49 -15 201 0
122 3 184 10 180 6 -3 10 1 10 9 0 9 -7 16 -15 16 -26 0 -19 65 10 95 14 14
30 25 35 25 6 0 10 5 10 10 0 6 -18 10 -40 10 l-40 0 0 -294z"/>
<path d="M1801 2428 c-30 -79 -56 -147 -58 -153 -2 -6 39 -10 112 -10 63 0
115 2 115 5 0 6 -57 155 -74 195 -8 17 -19 47 -26 68 -6 20 -12 37 -14 37 -1
0 -26 -64 -55 -142z m68 32 c-8 -5 -6 -11 7 -18 18 -10 18 -13 -5 -82 -14 -40
-30 -74 -36 -76 -6 -3 -23 0 -38 5 l-26 10 25 68 c14 37 32 81 40 97 8 16 14
39 15 50 0 16 4 13 15 -13 12 -26 12 -36 3 -41z m71 -167 c0 -2 -18 -3 -39 -3
-43 0 -43 2 -21 62 l14 38 23 -48 c12 -26 23 -48 23 -49z"/>
<path d="M1970 2518 c0 -6 160 -429 180 -475 5 -13 15 -23 21 -23 8 0 8 4 1
13 -10 12 -109 263 -159 402 -22 61 -43 102 -43 83z"/>
<path d="M2010 2518 c0 -2 41 -109 90 -238 50 -129 90 -240 90 -246 0 -7 12
-14 28 -16 25 -3 27 -6 24 -40 l-3 -38 36 5 c35 4 35 4 35 -36 0 -37 1 -39 21
-29 33 18 49 5 49 -40 l0 -40 -130 0 -130 0 0 33 c0 32 -1 33 -35 29 -34 -4
-35 -3 -35 32 0 34 2 36 25 30 13 -3 40 -7 59 -8 19 -2 41 -8 49 -14 12 -10
13 -8 9 13 -4 25 -5 25 -109 25 l-104 0 3 38 c3 37 3 37 46 36 23 0 42 0 42 0
0 1 -16 39 -35 86 l-34 85 -147 0 -146 0 -29 -75 c-15 -41 -28 -80 -28 -85 -1
-6 16 -9 40 -7 39 4 40 5 17 16 -27 14 -27 35 -1 95 16 36 22 41 50 41 20 0
33 -5 33 -12 0 -7 5 -5 11 5 7 12 23 17 55 17 42 0 45 -2 39 -22 -5 -20 -4
-21 5 -5 7 11 24 17 49 17 30 0 40 -5 49 -25 l11 -24 -115 -3 -116 -3 -24 -64
c-13 -35 -24 -75 -24 -88 0 -21 4 -24 23 -19 12 3 26 6 31 6 6 0 2 6 -9 14
-21 15 -23 57 -3 106 l14 33 108 -1 c91 -1 111 -5 122 -19 17 -25 -2 -31 -92
-32 l-71 -1 -18 -47 c-10 -27 -22 -52 -26 -57 -5 -6 -9 -24 -9 -41 0 -30 2
-31 32 -27 29 4 30 6 13 18 -19 14 -17 52 8 106 13 30 58 45 96 33 17 -5 19
-10 11 -25 -19 -36 -11 -68 23 -94 19 -15 38 -26 43 -26 5 0 14 -10 19 -22 6
-13 20 -24 31 -26 12 -2 26 -14 32 -28 12 -25 15 -26 98 -29 29 -1 59 -5 67
-8 9 -3 18 -1 20 6 3 9 8 8 21 -2 14 -12 19 -12 26 -2 4 8 13 11 19 7 17 -11
54 13 42 27 -6 8 -5 18 5 31 12 17 10 22 -26 48 -22 17 -40 33 -40 37 0 4 -16
24 -35 44 -19 20 -35 44 -35 51 0 10 -9 14 -26 13 -20 -2 -31 5 -44 28 -9 17
-18 35 -20 40 -1 6 -7 21 -12 35 -5 14 -23 61 -39 105 -16 44 -36 94 -43 110
-7 17 -23 58 -36 93 -12 34 -27 65 -31 68 -5 3 -9 4 -9 2z"/>
<path d="M2146 2278 c4 -13 16 -45 28 -73 12 -27 30 -75 41 -107 13 -39 23
-54 32 -51 12 5 12 9 0 27 -8 11 -20 39 -27 61 -7 22 -16 45 -20 50 -4 6 -15
34 -25 63 -18 50 -44 77 -29 30z"/>
<path d="M418 2060 c17 -16 32 -34 32 -40 0 -15 11 -12 26 8 16 21 17 32 3 32
-5 0 -7 -4 -4 -10 3 -5 0 -10 -7 -10 -18 1 -48 25 -48 39 0 6 -8 11 -17 11
-14 -1 -10 -8 15 -30z"/>
<path d="M2544 2041 c3 -13 -2 -33 -10 -46 -12 -19 -12 -22 0 -22 20 0 28 40
16 69 l-11 23 5 -24z"/>
<path d="M1668 1853 c23 -2 61 -2 85 0 23 2 4 4 -43 4 -47 0 -66 -2 -42 -4z"/>
<path d="M2183 1853 c26 -2 67 -2 90 0 23 2 2 3 -48 3 -49 0 -68 -1 -42 -3z"/>
<path d="M1630 1789 c29 -12 229 -9 236 3 3 4 -55 8 -128 7 -99 0 -127 -3
-108 -10z"/>
<path d="M920 1180 c0 -5 -6 -10 -14 -10 -24 0 -49 -67 -38 -100 7 -19 7 -31
-1 -39 -6 -6 -7 -11 -3 -11 5 0 3 -7 -4 -15 -10 -12 -7 -20 20 -45 35 -32 91
-41 132 -19 14 8 23 8 31 0 15 -15 120 -14 135 1 10 10 17 10 32 0 16 -10 24
-10 43 2 19 13 25 13 41 0 26 -19 32 -18 56 8 14 16 19 31 15 48 -5 23 -4 23
6 5 21 -36 62 -75 80 -75 10 0 28 13 41 29 l23 28 25 -29 c24 -27 26 -28 54
-13 25 13 32 13 50 2 38 -25 73 -28 117 -10 33 13 46 14 60 5 24 -16 104 -15
128 0 15 9 25 9 46 0 33 -15 85 -15 106 1 23 17 52 77 38 77 -6 0 -9 7 -6 15
4 8 2 17 -3 20 -6 4 -7 23 -4 44 5 33 3 40 -26 64 -33 28 -63 30 -112 7 -23
-11 -29 -10 -43 4 -21 21 -93 21 -124 0 -22 -16 -25 -16 -51 0 -37 21 -72 20
-117 -4 -31 -17 -39 -18 -52 -6 -9 7 -37 14 -63 14 -42 0 -51 -4 -69 -29 l-21
-30 -27 30 c-28 31 -55 40 -66 22 -3 -6 -19 -4 -40 5 -42 17 -87 18 -103 2 -9
-9 -18 -9 -37 0 -37 17 -97 15 -124 -4 -22 -16 -25 -16 -51 0 -31 18 -80 22
-80 6z m85 -52 c19 -28 2 -37 -25 -13 -23 21 -55 16 -55 -9 0 -11 16 -25 45
-39 31 -15 46 -29 48 -45 5 -31 -24 -62 -57 -62 -32 0 -71 25 -71 46 0 21 19
17 39 -7 21 -26 61 -18 61 12 0 14 -13 25 -44 38 -50 22 -63 45 -41 77 21 33
77 33 100 2z m165 12 c0 -5 -20 -10 -45 -10 -43 0 -45 -1 -45 -30 0 -29 2 -30
45 -30 25 0 45 -4 45 -10 0 -5 -20 -10 -45 -10 -43 0 -45 -1 -45 -30 0 -29 2
-30 45 -30 33 0 45 -4 45 -15 0 -12 -13 -15 -55 -15 l-55 0 0 95 0 95 55 0
c30 0 55 -4 55 -10z m150 -10 c25 -25 25 -45 0 -70 -20 -20 -20 -20 0 -52 24
-40 25 -48 5 -48 -8 0 -22 18 -31 40 -11 27 -22 40 -35 40 -15 0 -19 -7 -19
-40 0 -29 -4 -40 -15 -40 -12 0 -15 17 -15 95 l0 95 45 0 c32 0 51 -6 65 -20z
m100 -59 c15 -41 29 -70 32 -65 3 5 15 39 27 77 14 41 28 67 37 67 17 0 20 10
-20 -95 -19 -49 -40 -91 -47 -93 -9 -2 -27 31 -51 93 -29 75 -33 96 -21 93 9
-2 27 -34 43 -77z m170 -16 c0 -78 -3 -95 -15 -95 -12 0 -15 17 -15 95 0 78 3
95 15 95 12 0 15 -17 15 -95z m180 75 c11 -11 20 -24 20 -30 0 -17 -25 -11
-38 10 -29 47 -102 8 -102 -54 0 -61 71 -95 106 -50 13 16 34 19 34 5 0 -17
-52 -51 -77 -51 -37 0 -63 18 -79 56 -17 40 -10 79 19 112 27 29 89 30 117 2z
m180 11 c0 -6 -21 -11 -47 -13 -44 -3 -48 -5 -51 -30 -3 -27 -2 -28 42 -28 25
0 46 -4 46 -10 0 -5 -20 -10 -45 -10 -43 0 -45 -1 -45 -30 0 -29 1 -30 50 -30
38 0 50 -4 50 -15 0 -12 -13 -15 -60 -15 l-60 0 0 95 0 95 60 0 c33 0 60 -4
60 -9z m131 -1 c22 -12 26 -40 5 -40 -8 0 -17 7 -20 16 -8 21 -50 14 -54 -9
-3 -12 9 -22 42 -37 33 -14 47 -26 52 -46 13 -51 -66 -86 -108 -47 -22 20 -24
43 -3 43 8 0 15 -6 15 -14 0 -17 27 -28 51 -21 35 12 22 44 -25 65 -52 22 -67
52 -40 81 19 21 55 25 85 9z m-326 -80 c7 -12 -33 -33 -51 -26 -17 7 -18 28
-2 44 11 11 41 2 53 -18z"/>
<path d="M1240 1094 c0 -34 1 -35 33 -32 25 2 33 8 35 27 4 26 -12 41 -45 41
-20 0 -23 -5 -23 -36z"/>
<path d="M492 920 c23 -22 45 -40 50 -40 4 0 -12 18 -34 40 -23 22 -45 40 -50
40 -4 0 12 -18 34 -40z"/>
<path d="M850 767 c-32 -15 -58 -45 -65 -78 -3 -15 -15 -36 -25 -47 -22 -23
-27 -52 -9 -52 6 0 9 -6 6 -14 -14 -35 57 -50 86 -18 10 10 14 21 11 24 -3 4
8 9 25 13 22 5 36 2 47 -9 8 -9 23 -20 32 -24 26 -13 359 -14 367 -2 7 12 26
14 24 3 -4 -27 31 -73 55 -73 8 0 36 20 64 45 27 25 52 45 54 45 3 0 15 -9 28
-20 22 -19 70 -27 82 -14 4 3 125 6 270 7 234 2 267 4 291 20 28 18 35 53 21
103 -8 30 -52 53 -64 34 -7 -11 -16 -12 -43 -3 -20 6 -41 7 -50 1 -16 -8 -79
2 -128 21 -18 6 -34 4 -58 -9 -33 -17 -36 -17 -66 1 -31 19 -32 19 -49 0 -22
-24 -47 -17 -81 21 -19 21 -31 27 -43 22 -9 -4 -30 -8 -47 -9 -48 -1 -57 -12
-50 -56 8 -47 -7 -52 -38 -13 -17 22 -26 25 -59 21 -21 -3 -59 1 -85 9 -49 15
-153 11 -201 -7 -12 -5 -46 -6 -74 -4 -32 4 -54 1 -58 -5 -4 -7 -23 3 -51 26
-35 29 -83 57 -92 53 -1 0 -13 -6 -27 -12z m78 -46 c3 -8 18 -27 32 -41 20
-19 25 -31 19 -46 -17 -44 2 -49 21 -5 27 66 79 75 67 12 -4 -18 -2 -31 3 -31
6 0 10 6 10 13 1 6 7 26 16 42 l14 30 -4 -30 c-3 -16 -8 -38 -11 -47 -14 -35
10 -17 29 22 11 22 23 40 28 40 12 0 9 -12 -7 -34 -17 -23 -19 -36 -6 -36 5 0
15 16 21 35 6 19 15 35 20 35 5 0 2 -16 -6 -35 -17 -40 -17 -45 -5 -45 5 0 18
17 28 38 11 24 26 38 41 40 14 2 22 10 22 23 0 10 5 19 10 19 13 0 13 -9 -6
-63 -22 -65 -11 -82 16 -24 25 55 38 57 20 2 -18 -53 -4 -55 19 -3 20 47 39
62 61 48 11 -7 12 -16 3 -44 -13 -43 2 -49 19 -8 19 43 37 60 59 55 23 -6 23
-5 4 -50 -19 -44 -12 -54 14 -22 11 13 20 19 21 14 0 -17 -30 -55 -44 -55 -7
0 -18 -11 -24 -25 -15 -33 -55 -35 -50 -3 2 14 12 24 28 28 20 5 22 7 8 12 -9
4 -26 4 -38 1 -22 -6 -22 -4 -15 42 6 43 5 48 -9 36 -8 -7 -20 -27 -26 -46
l-11 -32 -84 0 c-47 0 -85 4 -85 8 0 4 -14 3 -31 -3 -18 -6 -34 -7 -38 -2 -3
5 -13 9 -21 9 -11 0 -14 10 -12 40 3 35 1 38 -11 25 -24 -24 -31 -60 -13 -60
9 0 16 -4 16 -9 0 -6 -18 -9 -41 -9 -39 0 -40 2 -39 32 3 49 0 53 -16 23 -9
-16 -18 -27 -21 -24 -2 3 1 15 7 27 14 26 8 36 -10 15 -7 -8 -22 -15 -34 -15
-16 0 -27 -11 -39 -36 -14 -29 -22 -35 -45 -32 -35 4 -43 41 -13 58 26 13 28
2 4 -16 -14 -10 -15 -15 -6 -25 19 -19 39 4 59 64 9 29 22 58 28 66 9 11 8 13
-4 10 -8 -3 -22 -19 -30 -37 -18 -37 -26 -40 -33 -11 -3 12 -3 18 0 15 4 -3
13 3 21 15 27 38 87 45 100 10z m641 5 c19 -23 49 -26 54 -5 3 11 12 19 21 19
18 0 21 -21 6 -36 -11 -11 -2 -74 10 -74 4 0 12 11 18 25 11 25 45 34 56 16 4
-5 2 -21 -4 -35 -5 -14 -6 -26 -1 -26 10 0 41 72 41 95 0 8 5 15 10 15 14 0
13 -8 -10 -67 -26 -70 -2 -74 29 -5 20 45 21 36 4 -35 -5 -25 -4 -27 10 -15 9
8 21 29 27 48 8 22 18 34 30 34 10 0 22 9 25 20 9 28 23 25 21 -5 0 -14 -4
-25 -8 -25 -6 0 -28 -56 -28 -73 0 -20 29 16 40 49 6 19 16 34 21 34 12 0 12
-1 -6 -44 -21 -49 -1 -46 25 4 14 27 27 40 41 40 18 0 21 -5 17 -35 -5 -45 7
-45 22 -1 6 20 19 36 31 39 25 7 34 -12 25 -53 -3 -17 -1 -30 4 -30 6 0 10 4
10 10 0 5 10 19 22 30 13 12 23 29 23 38 0 9 7 17 15 17 9 0 14 -8 12 -21 -1
-11 2 -32 7 -46 8 -21 6 -27 -12 -36 -12 -6 -40 -10 -62 -9 -42 2 -44 6 -30
60 4 16 3 27 -3 27 -10 0 -42 -60 -42 -79 0 -14 -17 -14 -25 -1 -4 6 -12 7
-18 3 -17 -11 -249 -13 -269 -2 -10 6 -19 5 -23 -1 -11 -17 -37 -11 -42 11 -5
20 -6 19 -17 -3 -28 -57 -120 -19 -93 39 14 30 60 29 65 -2 4 -20 4 -20 -11 0
-13 16 -17 17 -31 6 -31 -26 -6 -64 35 -54 44 12 29 96 -19 106 -15 3 -33 15
-40 26 -14 23 -1 29 17 7z"/>
<path d="M880 701 c-11 -21 -14 -51 -4 -51 20 0 44 24 44 45 0 30 -25 33 -40
6z"/>
<path d="M1222 657 c-16 -20 -24 -57 -13 -57 14 0 43 58 32 64 -5 3 -13 0 -19
-7z"/>
<path d="M1425 640 c-15 -29 -13 -56 5 -45 14 8 30 64 20 70 -5 3 -16 -8 -25
-25z"/>
<path d="M1690 651 c-13 -25 -13 -51 0 -51 6 0 10 7 10 15 0 8 5 15 10 15 6 0
10 9 10 20 0 25 -16 26 -30 1z"/>
<path d="M1852 634 c-14 -45 6 -42 25 4 11 27 11 32 0 32 -8 0 -19 -16 -25
-36z"/>
<path d="M1980 649 c-6 -11 -9 -30 -7 -42 l4 -22 8 23 c4 12 11 22 16 22 5 0
9 9 9 20 0 26 -16 26 -30 -1z"/>
<path d="M2521 646 c-18 -19 -31 -40 -28 -48 4 -11 6 -11 6 0 1 8 15 27 31 44
27 27 35 38 27 38 -2 0 -18 -15 -36 -34z"/>
<path d="M500 586 c0 -9 -5 -16 -10 -16 -7 0 -7 -7 0 -20 12 -22 5 -44 -11
-34 -6 3 -8 13 -4 23 5 12 4 13 -6 4 -10 -10 -9 -15 1 -28 17 -20 43 0 34 27
-3 10 -1 25 6 33 7 9 8 15 0 20 -5 3 -10 -1 -10 -9z"/>
</g>
</svg>
