<?xml version='1.0' encoding='utf-8'?>
<svg xmlns="http://www.w3.org/2000/svg" width="656px" height="656px" version="1.1" viewBox="187 690 656 656"> <g fill="#96e5fc"> <path d="m187 689.52c-0.12803 0-0.2508 0.05084-0.34132 0.14134-0.09051 0.0905-0.14137 0.21333-0.14137 0.3413l0.00101 656c0 0.2666 0.21611 0.4827 0.48268 0.4827l656 9e-4c0.12797 0 0.2508-0.0507 0.3413-0.1413s0.14134-0.2133 0.14134-0.3413l-9.7e-4 -656c0-0.2666-0.21607-0.48267-0.48267-0.48267l-656-9.7e-4z"/> </g> <g> <g fill="#f5f5f5"> <path d="m378.07 1143.1 266.12 1.4191q-0.28714 53.882-0.57437 107.76-133.06-0.7087-266.12-1.4176 0.2872-53.882 0.57441-107.76"/> </g> <g fill-opacity=".66667"> <path d="m773.35 1251.8q0.7377 0.3525-21.196 0.7956-19.121 0.4138-74.136 0.8623-101.25 0.74-214.04 0.7146-70.023-0.0121-117.49-0.3284-27.249-0.1861-44.395-0.4577-6.2131-0.0592-16.557-0.4085-15.4-1.0987 99.944-1.9845 15.113-0.111 31.591-0.2049l16.82-0.0896q34.322-0.1704 74.106-0.2716 58.934-0.1505 122.2-0.0672 61.171 0.0912 107.07 0.5193 34.59 0.3811 36.085 0.9206"/> </g> <g fill="#4b728c"> <path d="m643.66 1100.6 15.697 0.0649q-2.8803-11.473-3.0967-21.43-0.43487-9.2039 1.1437-36.052 8.7898-5.2777 12.116-8.7665 3.5171-3.3366 8.4142-11.71l-3.569 27.96q-14.971-6.0045-18.911-6.683-4.9846-1.1943-5.9953 0.6519-0.6534 1.3609 0.1717 3.853 1.3535 3.8264 3.9546 8.6079l18.596 10.68q1.7267 0.8047 3.4522 1.4504 5.4547 1.9975 8.9029-0.7533 5.8051-3.5356 10.565-23.098 5.2186-23.615 4.3996-41.506-0.37715-6.4697-3.9648-11.243-0.36515-0.582-2.674-2.748l-13.256-11.743-35.084-18.852-0.86305 141.32"/> </g> <g fill="#ffa68b"> <path d="m665.07 935.27"/> </g> <g> <path d="m668.31 943.55-10.298-1.1177q0.9574-5.4355 2.7354-9.4501 2.321-4.8021 5.3402-7.5848 5.4692-5.5284 14.121-4.6789 10.651 1.3531 14.733 10.048 1.3414 2.8262 1.863 5.9371 0.45084 3.8536 0.2686 4.5913-0.3211 4.4973-2.4467 8.3242-1.6651 3.228-5.8999 8.5758l-20.416-14.645"/> </g> <g fill="#ffbd90"> <path d="m656.56 991.35-3.8605-19.268 4.6489-11.137c-1.1529-2.6606-1.6417-4.6785-1.6367-6.0577 0.0047-1.3705 0.5077-3.4715 1.6798-6.3058-0.74394-1.1274-1.1446-2.5277-1.1449-4.2019-2e-4 -2.0858 0.426-4.5306 1.3411-7.2955 0.6258-1.891 1.3796-1.4975 2.1425 1.1394 1.9136-3.5773 4.2863-6.1624 7.1992-7.5931 2.4326-1.1947 6.099-2.0457 10.921-2.7167 6.7479 8.0752 10.437 13.598 11.53 16.402 1.222 3.1334 0.9984 6.4969-1.1251 10.281 2.6635-1.8364 4.2553-2.4644 4.4148-1.7671 0.3403 1.489-0.777 3.4798-3.1683 5.7076-2.0767 1.9345-3.9639 3.1619-5.4686 3.906-1.1312 0.55927-1.5078 0.38721-1.141-0.53883-1.5885 2.2778-3.622 4.195-6.1008 5.7512l-2.9137 12.401z"/> </g> <g> <path d="m664.75 949.42v3.6e-4 -3.6e-4 3.6e-4"/> </g> <g fill="#f00" fill-opacity=".21569"> <path d="m675.7 967.67-0.9872 0.32984q-2.9871 1.0549-5.7467 1.5216-0.91147 0.1339-1.7723 0.13695l-0.845-0.0376q-0.7504-0.0462-1.7531-0.38555-0.70464-0.2586-1.405-0.71754-0.33294-0.13196-1.7359-1.4693-0.2923-0.2374-1.5735-1.8891-0.7641-1.0028-2.4268-3.6531l4.5063 15.598 13.739-9.4342"/> </g> <g fill="#f00"> <path d="m663.92 956.26 0.26754 0.24909q1.6114 1.4854 2.2206 1.8936 0.90554 0.6677 1.8472 1.1082 0.42295 0.196 0.87405 0.3581l0.457 0.15516q0.4633 0.14744 0.9472 0.26994 1.2044 0.31295 3.5299 0.6854l-5.0326-3.3664-5.1109-1.3531"/> </g> <g fill="#fff"> <path d="m665.15 957.05 0.35155 0.19323q2.3102 1.2808 3.6478 1.8932 1.2076 0.5639 3.1089 1.1538l-7.1082-3.2402"/> </g> <g> <path d="m698.56 925.03-0.411 1.2164q-1.6122 3.5802-5.3173 5.0188-3.7262 1.4314-7.8796-0.0949-3.9155-1.6446-5.6112-5.152-0.5412-1.1322-0.7637-2.3597l-0.134-1.2373q-0.04955-1.2543 0.27345-2.5204 1.11-3.8547 4.576-5.709 3.466-1.8544 7.7074-0.8626 4.1906 1.1876 6.3238 4.4893 2.1332 3.3016 1.2361 7.2114"/> </g> <g fill="#fff"> <path d="m678.66 947.86 0.25848-0.03653q0.78156-0.12244 1.5106-0.12117 0.24115 0.00526 0.4707 0.0377l0.22583 0.0412 0.21851 0.0586 0.21046 0.0774 0.1403 0.0653q0.1384 0.0701 0.2693 0.1578 0.2614 0.1762 0.49896 0.40863 0.34478 0.30097 1.1476 1.4102-1.0507-0.07705-1.6091-0.18561-0.22397-0.04168-0.442-0.09854l-0.21623-0.06186q-0.21447-0.06624-0.42097-0.15324-0.2061-0.0877-0.4041-0.19673-0.10303-0.04427-0.57954-0.36417-0.47302-0.3291-1.2788-1.039"/> </g> <g> <path d="m682.12 949.21-0.0629 0.09307q-0.22325 0.26306-0.6012 0.28386-0.3797 0.0194-0.7409-0.22734-0.3364-0.25036-0.42656-0.59936-0.0285-0.1123-0.02509-0.2242l0.01209-0.1101q0.02032-0.10925 0.07593-0.2092 0.18139-0.30044 0.54516-0.36367 0.36347-0.06299 0.74353 0.14027 0.37144 0.2187 0.5069 0.562 0.13538 0.3433-0.02696 0.65467"/> <path d="m680.15 944.46-1.2e-4 1.3e-4 6.5306 2.2229q0.2265 1.1963 0.45326 2.3924-0.62433-0.98244-1.2487-1.9652l-5.735-2.6503"/> </g> <g fill="#fff"> <path d="m670.96 943.22-0.13495-0.22356q-0.3977-0.6839-0.85846-1.2488-0.15588-0.1839-0.32594-0.3415l-0.1744-0.14916-0.18325-0.13269-0.19281-0.11465-0.13914-0.06797q-0.1416-0.06303-0.29214-0.10937-0.30176-0.09162-0.63202-0.12946-0.45084-0.07794-1.8178-0.0016 0.7223 0.767 1.1583 1.132 0.17364 0.14757 0.3554 0.28097l0.1844 0.1287q0.1865 0.1247 0.3843 0.23 0.19815 0.1047 0.40756 0.1897 0.09904 0.05216 0.64804 0.2201 0.55356 0.15964 1.613 0.3373"/> </g> <g> <path d="m667.74 941.38-0.03275 0.10775q-0.0634 0.33895 0.15885 0.64538 0.2243 0.30701 0.64361 0.43167 0.40637 0.1031 0.73404-0.0468 0.10526-0.04875 0.1897-0.12187l0.078-0.07893q0.072-0.0846 0.1144-0.1906 0.11915-0.3305-0.06127-0.65234-0.1803-0.32202-0.5777-0.48889-0.40403-0.15027-0.75583-0.03887-0.35183 0.11126-0.49105 0.4335"/> <path d="m672.66 939.92v2.4e-4l-5.8433-3.6666q-1.0712 0.5785-2.1425 1.157 1.1562-0.13516 2.3124-0.2699l5.6734 2.7793"/> </g> <g fill="#ffa68b"> <path d="m668.8 951.96-0.02413-0.01384-0.0239-0.01405q0.75085 1.8424 1.5017 3.6847 1.8021-1.088 3.604-2.1761-1.5622 0.23624-3.1247 0.47241l-1.9329-1.9531"/> <path d="m677.96 949.59v1.4e-4 -1.4e-4"/> </g> <g fill="#ffbd90"> <path d="m646.04 1041.2-4.2999-3.6942-9.2769-3.0862 0.46741-2.5247 12.432 1.5897 0.67776 7.7154"/> <path d="m645.41 1034-13.366-2.6186q-0.0469-1.5429-0.09346-3.0861 6.835 0.3156 13.67 0.6314l-0.2104 5.0733"/> <path d="m645.51 1029.1-12.899-0.7247q0.03516-1.3093 0.07013-2.6184 6.5312-0.5261 13.063-1.0521l-0.2336 4.3952"/> <path d="m645.72 1025.4-12.198 0.0231q0.17535-1.7417 0.35059-3.4833 5.9238 0.0468 11.848 0.0933v3.3669"/> </g> <g fill-opacity=".1451"> <path d="m647.82 1040.1 9.4601 4.3503q-2.6203-1.6611-4.2232-2.3757-1.7793-0.8135-4.7795-1.8184l-0.4574-0.1562zm-2.1758 11.808 0.34987 0.2788q2.2229 1.8032 4.3239 3.1445 1.8275 1.1856 6.5866 3.7388l-11.26-7.1621z"/> </g> <g> <path d="m706.32 914.16v1.4e-4 -1.4e-4"/> </g> <g fill="#f5f5f5"> <path d="m386.47 805.78c-11.491 0-20.814 9.3226-20.814 20.819l-3e-5 333.1c0 11.497 9.3226 20.814 20.814 20.814l239.42 0.0012c11.496-0.0012 20.814-9.3187 20.814-20.815l7e-5 -257.51-100.35-96.411-159.89 0.00135z"/> </g> <g fill="#e1e1e1"> <path d="m646.71 902.19-79.534 0.0012c-11.497-0.0012-20.814-9.3186-20.814-20.815v-75.597l100.35 96.411z"/> </g> <g fill="#c9c9c8"> <path d="m617.42 930.63c0 3.5866-2.9094 6.5019-6.5016 6.5019l-207.93 0.0013c-3.587-0.0013-6.4966-2.9166-6.4966-6.5032v0.00136c0-3.5885 2.9096-6.5032 6.4966-6.5032l207.93 0.00123c3.5922 0 6.5016 2.9135 6.5016 6.5006v0.00136z"/> <path d="m617.42 964.74c0 3.5868-2.9094 6.5016-6.5016 6.5016l-207.93 0.0016c-3.587-0.0016-6.4966-2.9164-6.4966-6.5032v0.00124c0-3.5881 2.9096-6.5028 6.4966-6.5028l207.93 9.6e-4c3.5922-9.6e-4 6.5016 2.9137 6.5016 6.5006v0.00124z"/> <path d="m617.42 997.23c-1e-4 3.5867-2.9094 6.5017-6.5017 6.5017l-207.93 0.00123c-3.587-0.00123-6.4966-2.9162-6.4966-6.5029v0.0012c0-3.5935 2.9096-6.4978 6.4966-6.4978l207.93 0.00136c3.5922-0.00512 6.5016 2.9043 6.5016 6.4952v0.0012z"/> <path d="m617.42 1031.3c0 3.5866-2.9094 6.5016-6.5016 6.5016l-207.93 0.0015c-3.587-0.0015-6.4966-2.9165-6.4966-6.5031v1e-3c0-3.5879 2.9096-6.5029 6.4966-6.5029l207.93 0.0013c3.5922-0.0013 6.5016 2.9137 6.5016 6.5006v1e-3z"/> <path d="m511.83 1059-108.84 0.0018c-3.587-0.0018-6.4966 2.9134-6.4966 6.5 0 3.5871 2.9096 6.5019 6.4966 6.5019l108.84 0.0013c3.592-0.0013 6.5015-2.9161 6.5015-6.5032 0-3.5866-2.9096-6.5018-6.5016-6.5018z"/> </g> <g> <path d="m660.4 1107.2-17.659 0.4847 0.0475 7.2207h18.934l-1.3227-7.7054z"/> </g> <g fill="#f00"> <path d="m662.83 1110.4q-35.085 0.9009 0 0"/> </g> <g> <g fill="#3c464f"> <path d="m570.78 1099v40.421l0.25745 0.0288 131.67-0.0288 1.5e-4 -40.421-131.93 0.0288"/> </g> <g fill="#a6d8ff"> <path d="m578.56 1105.4v27.442l0.22693 0.0303 116.14-0.0303 1e-4 -27.442-116.37 0.0288"/> </g> </g> <g> <g fill="#637079"> <path d="m584.08 1143.5 109.84 7e-4q-1e-4 51.43 0 102.86-54.92 4e-4 -109.84 7e-4 6e-5 -51.432 0-102.86"/> </g> <g fill="#3c464f"> <path d="m575.4 1245.6c0.00947 3.5157 2.8669 6.3577 6.3845 6.3462l111.42-0.3214c3.5176-0.0098 6.3582-2.8686 6.3503-6.3838l-0.31426-108.24-124.15 0.3576 0.31333 108.24zm95.235-92.599c-0.01-3.5152 2.8312-6.3747 6.3491-6.3846l9.5501-0.0275c3.5177-0.0091 6.3755 2.8318 6.3849 6.3487l0.0096 3.1828c0.0102 3.5183-2.8314 6.3761-6.3476 6.3865l-9.5509 0.027c-3.5175 0.0103-6.3763-2.8318-6.3864-6.3489l-0.0088-3.184zm0.0742 25.47c-0.01-3.5185 2.8316-6.3764 6.3492-6.3851l9.5495-0.0289c3.5174-0.0099 6.3755 2.8323 6.3864 6.3492l0.00844 3.1837c0.01024 3.5159-2.8312 6.3737-6.3488 6.3836l-9.5501 0.0274c-3.5179 0.0101-6.3759-2.8309-6.3858-6.3475l-0.00875-3.1824zm0.0744 25.467c-0.0109-3.5168 2.8305-6.3749 6.3482-6.3854l9.5501-0.0274c3.5177-0.0099 6.3757 2.8308 6.3859 6.3493l0.08263 28.65c0.01014 3.5165-2.8305 6.3748-6.3481 6.3848l-9.5501 0.0274c-3.5176 0.0101-6.3757-2.8305-6.3866-6.3487l-0.0821-28.65zm-28.8-50.854c-0.00883-3.5171 2.8311-6.3735 6.3488-6.385l9.551-0.0259c3.5176-0.0116 6.3748 2.8304 6.3849 6.3475l0.00955 3.1839c0.01062 3.5168-2.8308 6.375-6.3484 6.3849l-9.5507 0.0278c-3.5176 0.0099-6.3749-2.8307-6.3859-6.3491l-0.00937-3.1841zm0.07417 25.469c-0.01014-3.5172 2.8313-6.3753 6.3491-6.3851l9.5507-0.029c3.5177-0.0084 6.3749 2.8323 6.3848 6.3506l0.01024 3.1824c0.00844 3.5156-2.832 6.3734-6.3498 6.3837l-9.5508 0.0288c-3.5175 0.0085-6.375-2.8319-6.3844-6.3476l-0.00994-3.1838zm0.0743 25.467c-0.01095-3.5171 2.8307-6.3753 6.3483-6.385l9.5507-0.0276c3.5176-0.0104 6.3748 2.8307 6.3859 6.3493l0.0093 3.1837c0.0095 3.5168-2.8306 6.3748-6.3484 6.3851l-9.5507 0.0272c-3.5176 0.0102-6.3758-2.8307-6.3856-6.3487l-0.0095-3.184zm0.0734 25.468c-0.01-3.5185 2.8306-6.3752 6.3483-6.3865l9.5509-0.0274c3.5176-0.0099 6.3749 2.8319 6.3857 6.3487l0.00935 3.1839c0.01005 3.5184-2.8306 6.375-6.3482 6.3851l-9.5507 0.0275c-3.5179 0.0113-6.3758-2.8306-6.3852-6.3476l-0.0101-3.1837zm-28.873-76.321c-0.00785-3.5157 2.8327-6.3733 6.3505-6.3837l9.5509-0.0276c3.5173-0.0098 6.3733 2.8297 6.3829 6.3462l0.00933 3.184c0.011 3.5171-2.8296 6.3753-6.3475 6.3865l-9.5508 0.0276c-3.5176 0.01-6.3748-2.8321-6.3852-6.3491l-0.0102-3.1839zm0.0751 25.469c-0.00946-3.5184 2.8306-6.3765 6.3482-6.3866l9.5508-0.0272c3.518-0.0086 6.3743 2.8307 6.385 6.3486l0.0096 3.183c0.0084 3.5167-2.8306 6.3761-6.3484 6.3862l-9.5509 0.0259c-3.5176 0.0115-6.3748-2.8307-6.3851-6.3473l-0.0092-3.1826zm0.07355 25.468c-0.01032-3.5187 2.8312-6.3766 6.3488-6.3853l9.551-0.0289c3.5177-0.0099 6.3734 2.8307 6.3845 6.348l0.0092 3.1837c0.01016 3.517-2.8299 6.3764-6.3476 6.3863l-9.5509 0.0289c-3.5176 0.0087-6.3748-2.8318-6.3851-6.3504l-0.00995-3.1823zm0.07415 25.466c-0.0107-3.5164 2.8306-6.3742 6.3483-6.3847l9.5508-0.0275c3.5176-0.0101 6.3742 2.8296 6.3843 6.3461l0.01006 3.1838c0.00954 3.5186-2.8305 6.3779-6.348 6.388l-9.5511 0.0274c-3.5167 0.0098-6.3755-2.8307-6.385-6.349l-0.00934-3.1841zm-28.873-76.321c-0.00861-3.5156 2.8328-6.3734 6.3504-6.3839l9.5493-0.0272c3.5177-0.0104 6.3764 2.8305 6.3853 6.3473l0.0085 3.1841c0.0102 3.5169-2.8306 6.3752-6.3481 6.3852l-9.5501 0.0274c-3.5179 0.0101-6.3758-2.8307-6.3866-6.3487l-0.00876-3.1842zm0.07416 25.47c-0.01-3.5185 2.8314-6.3752 6.3484-6.3868l9.5507-0.0258c3.5176-0.0112 6.3757 2.8305 6.3859 6.3474l0.00845 3.1839c0.01025 3.517-2.8312 6.3753-6.3488 6.3851l-9.5501 0.0276c-3.5178 0.0099-6.3758-2.8307-6.3851-6.3477l-0.00933-3.1837zm0.07446 25.468c-0.01096-3.5171 2.8304-6.3753 6.3473-6.3866l9.5508-0.0275c3.5179-0.0085 6.3759 2.8323 6.3852 6.3504l0.0101 3.183c0.0101 3.5179-2.8313 6.3761-6.3489 6.3845l-9.551 0.0289c-3.516 0.0092-6.374-2.832-6.385-6.3488l-0.00854-3.1839zm0.07344 25.466c-0.0109-3.5167 2.8298-6.3746 6.3473-6.3845l9.5509-0.0276c3.5179-0.0104 6.3759 2.8304 6.3858 6.3492l0.0094 3.1821c0.0108 3.5186-2.8306 6.3762-6.3482 6.3862l-9.5508 0.0278c-3.5171 0.01-6.3751-2.8321-6.386-6.3491l-0.0084-3.1841z"/> </g> <g> <path d="m680.2 1159.4 3.1832-0.0085-0.00872-3.184 3.1831-0.0102-0.00864-3.1824-3.1844 0.0085-0.00891-3.1838-3.1831 0.01 0.0094 3.1824-3.1838 0.0105 0.0094 3.1839 3.1831-0.0102z"/> <path d="m677.18 1213.5 9.5501-0.0273 0.01 3.1842-9.5508 0.0271-0.00934-3.184z"/> <path d="m677.07 1178.5 9.551-0.0279 0.0088 3.1844-9.5512 0.0273-0.00867-3.1838z"/> <path d="m677.19 1219.9 9.5509-0.0269 0.0084 3.1821-9.5509 0.0278-0.0084-3.183z"/> </g> <g fill="#7d8b96"> <path d="m683.28 1149.9 0.00835 3.1004c0 0.0224 0.00895 0.0432 0.0246 0.0592 0.01565 0.0154 0.03675 0.0241 0.05859 0.0241l4.6e-4 8e-4 3.1012-0.0092 0.00827 3.0162-3.0999 0.0096c-0.04607 5e-4 -0.08305 0.0379-0.08293 0.0834l0.0083 3.101-3.0167 0.0081-0.0092-3.1009c0-0.0219-0.0088-0.0432-0.02455-0.0586-0.01565-0.0155-0.03662-0.0239-0.05841-0.0239l-4.9e-4 5e-4 -3.0998 0.0091-0.0089-3.0174 3.1005-0.0104c0.0461 0 0.0831-0.0374 0.08296-0.0834l-0.00926-3.099 3.0169-0.0096zm3.2729-3.3589h-0.00784l-0.0079 5e-4 -9.5503 0.0266c-3.5634 0.0105-6.4421 2.9073-6.4318 6.4687l0.00866 3.184c0.0102 3.5565 2.8961 6.4316 6.451 6.4316l3e-4 9e-4 0.00934-9e-4 0.00936 9e-4 9.5509-0.028c3.5621-0.0105 6.4406-2.9057 6.4305-6.4702l-0.0094-3.1825c-0.0097-3.557-2.8962-6.4316-6.4524-6.4316z"/> </g> </g> <g fill="#ffb68b"> <path d="m647 938.92-1.1522 0.2934-1.1524 0.2938q-3.4922 0.7342-6.9841 1.4688-0.05746-1.3428-0.1149-2.6857 3.9755-1.3625 7.9509-2.7248l1.4527 3.3545"/> </g> <g fill="#ffbd90"> <path d="m646.03 936.12-0.55216 0.20125-0.552 0.20148q-3.6324 0.47397-7.2646 0.9483-0.17438-1.4294-0.34865-2.8588 4.1474-1.1376 8.2948-2.2748l0.42261 3.7826"/> <path d="m646.57 932.1v1e-4l-8.6413 1.6336q-0.05326-1.8399-0.10666-3.6792 4.8438-1.5754 9.6877-3.1501l-0.9397 5.1956"/> <path d="m646.47 922.58-5.5536 3.3862q0.29626 1.378 0.59253 2.756 2.2111-0.77209 4.4221-1.5444l0.539-4.5977"/> <path d="m645.08 921.26 0.04384 7.7897-0.09304 14.554 5.2383-1.2081q0.66346-2.0247 1.1109-3.7982 0.2848-1.1669 0.3134-2.0364l-0.0118-0.40442q-0.05314-0.43004-0.11686-0.55274-0.07174-0.3225-0.5691-0.69165-0.50531-0.42085-2.6264-0.34525 1.0855-1.1102 1.1425-1.7974 0.0039-0.45425-0.42511-0.8576-0.33209-0.33905-1.2273-0.91495 0.67182-0.59 1.1376-1.1744 0.2978-0.38917 0.3513-0.77216 0.02296-0.19134-0.038-0.38038l-0.084-0.1889q-0.0339-0.14886-1.0276-1.2347-0.1944-0.2355-0.35529-0.5048-0.16083-0.2692-0.25726-0.5816l-0.0726-0.32536-0.02713-0.34998q-0.00337-0.36296 0.05703-0.75403 0.09507-0.61203 0.41807-1.9187 0.07879-0.35533 0.10888-0.65443 0.04419-0.2534-0.04915-0.60906-0.2058-0.86218-2.9411-0.28864"/> <path d="m646.21 1022.6 0.35143-0.00598q2.5873-0.2644 4.9711 1.59 0.8658 0.6958 1.5058 1.8537 0.6402 1.1574 0.7406 2.8859l-0.00799 0.9089-0.1048 0.9902-0.20849 1.0737-0.3061 1.1513q-0.35528 1.1904-0.87035 2.5086-0.8258 2.4731-5.6145 11.736l-0.45673-24.692"/> </g> <g> <g> <path d="m366.86 1018.9c-3.8926 0.15954-8.3268 0.74939-11.816 1.5727-1.4922 0.3506-3.3828 0.855-4.2749 1.1365-5.3051 1.6678-9.3728 3.4736-14.072 6.2407-1.7736 1.0464-4.5986 2.9743-6.3723 4.3499-3.3721 2.6128-6.9883 6.0754-9.6169 9.1982-4.3223 5.141-7.6835 10.606-10.19 16.564-2.8248 6.7178-4.3909 13.489-4.8685 21.083-0.08484 1.3701-0.08459 5.7407 4.8e-4 7.063 0.3987 6.0645 1.3656 11.099 3.1714 16.516 2.3583 7.0893 5.9219 13.642 10.643 19.568 3.0643 3.8497 7.0209 7.7474 10.866 10.705 3.6485 2.8091 6.9996 4.8958 11.073 6.8922 4.4397 2.1718 8.9484 3.77 13.755 4.8636 3.0908 0.7062 6.5001 1.2105 9.5483 1.4122l0.54162 0.0371 3.7e-4 4.5033 2.4e-4 4.5086-1.3701 5e-4c-1.0462-2e-4 -1.4445 0.021-1.6834 0.0794-1.0887 0.2762-1.9914 1.1153-2.3471 2.1775-0.14337 0.4195-0.14337 0.4354-0.15918 2.1507-0.01056 0.9506-0.03589 21.465-0.06628 45.591-0.0402 38.395-0.03983 43.912 0.0292 44.236 0.09558 0.4568 0.42492 1.1364 0.72229 1.4764 0.2815 0.3239 0.70636 0.6424 1.1312 0.839 0.69568 0.3291 0.4514 0.3186 7.7746 0.3022l6.6752-0.0164 0.35582-0.1381c0.53101-0.2072 0.91333-0.4568 1.285-0.8444 0.37182-0.3877 0.57354-0.701 0.77002-1.2162l0.13269-0.3506 0.03673-8.5498c0.01563-4.7051 0.04093-25.326 0.05027-45.83l0.01898-37.28-0.12213-0.3503c-0.34527-0.9984-1.0887-1.7417-2.0925-2.1082-0.37701-0.138-0.42485-0.1433-1.8693-0.1593l-1.4816-0.0212 0.0371-0.4778c0.01594-0.2656 0.03175-2.2942 0.03163-4.5033l-3.1e-4 -4.0149 0.94525-0.0638c1.0887-0.0691 2.4217-0.2125 4.0732-0.4409 1.1312-0.1541 1.4498-0.2072 3.027-0.4994 4.4236-0.8181 9.2242-2.3053 13.541-4.1962 1.0408-0.4515 3.6164-1.7048 4.4608-2.1615 0.98773-0.5364 1.3064-0.717 1.9117-1.0676 8.7726-5.0986 16.244-12.226 21.729-20.723 2.156-3.3456 4.0356-6.9622 5.5276-10.648 2.384-5.8949 3.8759-12.188 4.3906-18.481 0.28124-3.4784 0.281-7.1479-0.00599-10.568-1.0363-12.528-5.8058-24.497-13.693-34.358-4.7851-5.9846-10.622-11.088-17.111-14.974-5.3374-3.1967-10.643-5.4214-16.808-7.0565-1.3648-0.3611-3.6431-0.8389-5.3053-1.1149-1.0993-0.1858-1.6304-0.2601-3.3456-0.483-2.2889-0.2974-6.9356-0.47756-9.5856-0.37124zm6.0019 16.59c5.0397 0.4033 9.5483 1.4546 14.142 3.3022 5.4327 2.1875 10.366 5.3471 14.663 9.3882 0.80731 0.7645 0.85504 0.8071 1.6942 1.6886 2.0341 2.1348 3.5902 4.0782 5.2206 6.521 4.3285 6.5049 6.9469 13.95 7.6644 21.825 0.20721 2.2199 0.24463 5.6982 0.09075 7.6739-0.45635 5.7512-1.6721 10.696-3.865 15.719-3.7168 8.5024-10.073 15.895-17.938 20.855-6.7759 4.2807-14.455 6.7399-22.49 7.2077-1.1099 0.0637-4.4927 0.0695-5.4698 0.0056-1.5612-0.1007-3.1066-0.2494-4.0891-0.3979-0.27617-0.0425-0.74352-0.1168-1.0355-0.1593-3.7652-0.5785-8.3324-1.9802-12.029-3.6901-2.1668-0.9983-4.0308-2.0337-6.1019-3.3875-11.179-7.2909-18.768-19.144-20.745-32.404-0.38245-2.5702-0.47815-4.0041-0.47833-7.116-1.8e-4 -3.0536 0.07935-4.2644 0.45093-6.8558 1.688-11.784 7.8423-22.528 17.178-30 3.8392-3.0699 8.146-5.5235 12.771-7.2763 4.3227-1.636 9.0914-2.6557 13.621-2.9215 0.55762-0.032 1.1418-0.0638 1.301-0.0745 0.7594-0.0479 4.4714 0.021 5.4433 0.0953z"/> </g> <g fill="#f00"> <path d="m358.8 1157.4 20.659 0.0226q-0.04779 46.028-0.09562 92.057-10.329-0.0102-20.659-0.0205 0.04782-46.029 0.09562-92.059"/> </g> </g> <g fill="#11445f" fill-opacity=".99608"> <path d="m382.68 1234.3 191.09 0.6581q-0.0279 8.1892-0.056 16.38-95.546-0.3283-191.09-0.6562 0.02803-8.1907 0.05622-16.382"/> <path d="m503.04 1166.9 14.715 0.0508 14.715 0.0509q-0.1338 38.956-0.2676 77.912-14.715-0.0508-29.43-0.101 0.1339-38.956 0.26763-77.913"/> <path d="m469.53 1186.2 29.43 0.101-0.20075 58.457-29.43-0.1007 0.20076-58.458"/> <path d="m436.03 1201.8 29.43 0.1015q-0.07349 21.417-0.14692 42.834-14.715-0.05-29.43-0.1004 0.07342-21.418 0.14702-42.835"/> <path d="m536.56 1144.2 14.715 0.0508 14.715 0.051q-0.1729 50.376-0.3457 100.75-14.715-0.0509-29.43-0.1012 0.1729-50.376 0.34614-100.75"/> </g> <g fill="#11445f"> <path d="m435.25 1188.8v5e-4 5e-4l-2.6701-1.6831 46.317-29.952c0.35321-0.2284 0.77722-0.3211 1.1934-0.2607l21.708 3.1381-1.2666 0.311 50.472-36.41c0.77904-0.5623 1.8663-0.3867 2.4284 0.3926 0.5623 0.7792 0.3861 1.8664-0.39304 2.4284v2e-4l-50.472 36.41c-0.36596 0.2639-0.82007 0.3754-1.2665 0.311l-1.2e-4 3e-4 -21.708-3.1389 1.1935-0.2609-46.317 29.952c-0.56868 0.3674-1.2991 0.3721-1.872 0.011-0.573-0.3616-0.88422-1.0219-0.79804-1.694v5e-4 -5e-4c0.1225-0.9527 0.9942-1.6258 1.947-1.5036 0.953 0.1225 1.6262 0.9943 1.5037 1.9471z"/> </g> <g fill="#11445f" fill-opacity=".99608"> <path d="m546.56 1120.7h-1.5e-4l7.8017 11.402q0.90044-4.8006 1.8007-9.6016l-9.6022-1.8006"/> <path d="m402.54 1214.5 14.715 0.0509 14.715 0.0512q-0.05414 15.729-0.1081 31.458-14.715-0.0503-29.43-0.1008 0.05402-15.73 0.10809-31.46"/> </g> <g fill="#0f3b52" fill-opacity=".99608"> <path d="m382.58 1250 191.17 0.658q-0.00215 0.6388-0.00447 1.2781-95.585-0.3284-191.17-0.6567 0.0022-0.6395 0.00438-1.2794"/> <path d="m382.66 1234.4 191.17 0.6571-0.00444 1.2789-191.17-0.6568 0.00434-1.2792"/> <path d="m536.52 1144.2 1.2688 0.0044 1.269 0.0054q-0.15664 45.611-0.31314 91.223-1.2692-0.0044-2.5381-0.0092 0.15676-45.612 0.31336-91.224"/> <path d="m502.73 1166.9 1.269 0.0044 1.2691 0.0045q-0.11798 34.318-0.23578 68.637-1.269-0.0041-2.5378-0.0085 0.11774-34.319 0.23548-68.637"/> <path d="m469.42 1186.2 1.2688 0.0044 1.2689 0.0048q-0.08417 24.52-0.16822 49.041-1.269-0.0044-2.538-0.0085 0.08424-24.521 0.16852-49.042"/> <path d="m435.4 1201.7 1.2689 4e-3 1.2692 0.0049q-0.05682 16.572-0.11371 33.146-1.2692-0.0043-2.5382-0.0087 0.057-16.573 0.11378-33.146"/> <path d="m402.53 1214.4 1.269 0.0042 1.2692 0.0056q-0.03674 10.698-0.07356 21.396-1.2691-0.0042-2.5381-0.0085 0.0368-10.699 0.07347-21.398"/> </g> <g> <path d="m574.34 1139.7 125.05-0.0945q-1e-4 -0.2011-3e-4 -0.4023-62.527 0.0482-125.05 0.0964 1.3e-4 0.2002 3.1e-4 0.4004"/> </g> </g> </svg>